<?xml version="1.0" encoding="UTF-8"?>
<svg width="34px" height="30px" viewBox="0 0 34 30" version="1.1" xmlns="http://www.w3.org/2000/svg" xmlns:xlink="http://www.w3.org/1999/xlink">
    <title>编组</title>
    <g id="定稿" stroke="none" stroke-width="1" fill="none" fill-rule="evenodd">
        <g id="30消费情况-食堂消费-消费金额" transform="translate(-472.000000, -672.000000)" fill="#FFFFFF" fill-rule="nonzero">
            <g id="编组" transform="translate(472.000000, 672.000000)">
                <path d="M18.3990945,17.2164564 L18.5507317,17.2244024 C19.3572565,17.3005521 19.9730759,17.9627235 19.9730759,18.7546805 C19.9737381,19.5691514 19.3267966,20.235958 18.5070284,20.2909182 L18.3990945,20.2942291 L15.7755714,20.2942291 C15.1085215,20.2942291 14.5677708,20.8349798 14.5677708,21.5020297 C14.5677708,22.1476468 15.0432098,22.6886408 15.6722726,22.7800205 L15.7722605,22.7912774 L21.4543533,23.175999 L31.6411981,20.8100606 C32.5380423,20.6021391 33.454491,21.0693044 33.8131203,21.9172112 C34.085321,22.5969934 33.7873455,23.3716718 33.1297594,23.693817 L33.0344067,23.736196 L20.5014887,28.7567795 L20.2081467,28.8534566 C19.2065794,29.159994 18.1453787,29.2177247 17.1164685,29.0216481 L16.8800733,28.9719853 L1.50577775,25.1360263 C0.663489356,24.9260527 0.0550803994,24.193495 0.0033108363,23.3269741 L0,23.2091075 L0,19.2029706 C0,18.1510732 0.819886361,17.2814786 1.86997203,17.2197672 L1.98651417,17.2164564 L18.3990945,17.2164564 Z M21.8516562,0 C27.7032648,0 32.4463986,4.74313372 32.4463986,10.5947424 C32.4463986,14.5677708 30.2599086,18.0296029 27.0245391,19.8426282 L21.2941079,21.174917 L21.2788779,21.1742548 L21.0073876,21.1543897 C21.6203388,20.5056458 21.9611415,19.6465291 21.9595901,18.7540184 C21.9589279,16.9284118 20.5557867,15.418661 18.7374641,15.2464965 L18.6447601,15.2398748 L18.3997566,15.2306044 L12.3223476,15.2306044 C11.6190056,13.7865447 11.2546039,12.2009781 11.2569028,10.5947424 C11.2569028,4.74313375 16.0000475,0 21.8516562,0 L21.8516562,0 Z M24.7122366,4.71598474 C24.6047908,4.61038561 24.4321774,4.61156991 24.3261907,4.71863339 L22.1827418,6.89055558 L20.039293,4.71863339 C19.9878418,4.66691471 19.9178982,4.63783687 19.8449457,4.63783687 C19.7719933,4.63783687 19.7020497,4.66691471 19.6505984,4.71863339 L18.752694,5.62978124 C18.647679,5.73626503 18.647679,5.90735689 18.752694,6.01384068 L20.6398825,7.92619165 L18.814276,7.92619165 C18.6632389,7.92619165 18.5407992,8.04863138 18.5407992,8.19966844 L18.5407992,9.50944347 C18.5407992,9.66041855 18.6633009,9.78292026 18.814276,9.78292026 L21.2722562,9.78225811 L21.2722562,10.7106224 L18.814276,10.7106224 C18.7417454,10.7106224 18.6721855,10.739435 18.6208987,10.7907219 C18.5696118,10.8420087 18.5407992,10.9115686 18.5407992,10.9840992 L18.5407992,12.2938742 C18.5407992,12.4441871 18.6633009,12.5666888 18.814276,12.5666888 L21.2722562,12.5666888 L21.2722562,14.9571276 C21.2722562,15.1074405 21.3947579,15.2299422 21.545733,15.2299422 L22.8204129,15.2299422 C22.8928827,15.2299422 22.9623747,15.2011086 23.0135565,15.1498027 C23.0647382,15.0984967 23.0934034,15.028935 23.0932275,14.9564654 L23.0932275,12.5666888 L25.5518699,12.5666888 C25.6242249,12.5666888 25.6936163,12.537946 25.744779,12.4867833 C25.7959417,12.4356206 25.8246854,12.3662292 25.8246854,12.2938742 L25.8246854,10.9840992 C25.8248605,10.9116296 25.7961952,10.8420679 25.7450135,10.7907619 C25.6938317,10.7394559 25.6243397,10.7106222 25.5518699,10.7106224 L23.0932275,10.7106224 L23.0932275,9.78225811 L25.5518699,9.78225811 C25.6242249,9.78225812 25.6936163,9.75351523 25.744779,9.70235256 C25.7959417,9.65118989 25.8246854,9.58179841 25.8246854,9.50944347 L25.8246854,8.19966844 C25.8246854,8.1273135 25.7959417,8.05792203 25.744779,8.00675936 C25.6936163,7.9555967 25.6242249,7.92685382 25.5518699,7.92685383 L23.7249391,7.92619165 L25.6121275,6.01384068 C25.7176847,5.90768599 25.7179802,5.73629929 25.6127897,5.62978124 L24.7148853,4.71863339 L24.7122366,4.71598474 Z" id="形状"></path>
            </g>
        </g>
    </g>
</svg>