<?xml version="1.0" encoding="UTF-8"?>
<svg width="29px" height="24px" viewBox="0 0 29 24" version="1.1" xmlns="http://www.w3.org/2000/svg" xmlns:xlink="http://www.w3.org/1999/xlink">
    <title>编组备份 25</title>
    <g id="定稿" stroke="none" stroke-width="1" fill="none" fill-rule="evenodd">
        <g id="30消费情况-食堂消费-消费金额" transform="translate(-796.000000, -673.000000)" fill="#FFFFFF" fill-rule="nonzero">
            <g id="编组备份-25" transform="translate(796.000000, 673.000000)">
                <path d="M29,7.25 L29,19.9375 C29,21.9395322 27.3770322,23.5625 25.375,23.5625 L3.625,23.5625 C1.62296778,23.5625 0,21.9395322 0,19.9375 L0,7.25 L29,7.25 Z M11.60725,16.3125 L4.4968125,16.3125 L4.40709375,16.31975 C3.9675625,16.3895313 3.625,16.9677187 3.625,17.671875 C3.625,18.3760313 3.9675625,18.9542187 4.40709375,19.024 L4.4968125,19.03125 L11.60725,19.03125 L11.6960625,19.024 C12.1355938,18.9542187 12.4781563,18.3760313 12.4781563,17.671875 C12.4781563,16.9215 12.0884688,16.3125 11.60725,16.3125 Z M15.0274375,11.78125 L4.7360625,11.78125 L4.629125,11.7875937 C4.0654375,11.85375 3.625,12.43375 3.625,13.140625 C3.625,13.8475 4.0654375,14.4275 4.629125,14.4936562 L4.7360625,14.5 L15.0274375,14.5 L15.134375,14.4936562 C15.6971563,14.4275 16.1385,13.8475 16.1385,13.140625 C16.1385,12.39025 15.6400625,11.78125 15.0274375,11.78125 L15.0274375,11.78125 Z M25.375,0 C27.3770322,0 29,1.62296778 29,3.625 L29,5.4375 L0,5.4375 L0,3.625 C0,1.62296778 1.62296778,0 3.625,0 L25.375,0 L25.375,0 Z" id="形状"></path>
            </g>
        </g>
    </g>
</svg>