<?xml version="1.0" encoding="UTF-8"?>
<svg width="26px" height="26px" viewBox="0 0 26 26" version="1.1" xmlns="http://www.w3.org/2000/svg" xmlns:xlink="http://www.w3.org/1999/xlink">
    <title>编组备份 21</title>
    <g id="定稿" stroke="none" stroke-width="1" fill="none" fill-rule="evenodd">
        <g id="30消费情况-食堂消费-消费金额" transform="translate(-472.000000, -824.000000)" fill="#FFFFFF" fill-rule="nonzero">
            <g id="编组备份-21" transform="translate(472.000000, 824.000000)">
                <path d="M22.4833984,0 L6.3984375,0 C2.8640625,0 0,2.8640625 0,6.3984375 L0,22.4833984 C0,24.4257812 1.57421875,26 3.51660156,26 L19.6015625,26 C23.1359375,26 26,23.1359375 26,19.6015625 L26,3.51660156 C26,1.57421875 24.4257812,0 22.4833984,0 Z M7.02050781,19.4212891 C6.28417969,19.4212891 5.69003906,18.8246094 5.69003906,18.0908203 C5.69003906,17.3544922 6.28671875,16.7603516 7.02050781,16.7603516 C7.75683594,16.7603516 8.35098464,17.3570313 8.35098464,18.0908203 C8.35351562,18.8246094 7.75683594,19.4212891 7.02050781,19.4212891 Z M7.02050781,14.3304687 C6.28417969,14.3304687 5.69003906,13.7337891 5.69003906,13 C5.69003906,12.2636719 6.28671875,11.6695313 7.02050781,11.6695313 C7.75683594,11.6695313 8.35098464,12.2662109 8.35098464,13 C8.35351562,13.7363281 7.75683594,14.3304687 7.02050781,14.3304687 Z M7.02050781,9.2421875 C6.28417969,9.2421875 5.69003906,8.64550781 5.69003906,7.91171875 C5.69003906,7.17539063 6.28671875,6.58125 7.02050781,6.58125 C7.75683594,6.58125 8.35098464,7.17792969 8.35098464,7.91171875 C8.35351562,8.64550781 7.75683594,9.2421875 7.02050781,9.2421875 Z M20.3099609,18.0908203 C20.3099609,18.8271484 19.7132812,19.4212891 18.9794922,19.4212891 L12.1697266,19.4212891 C11.4333984,19.4212891 10.8392578,18.8246094 10.8392578,18.0908203 C10.8392578,17.3544922 11.4359375,16.7603435 12.1697266,16.7603435 L18.9794922,16.7603435 C19.7132812,16.7578125 20.3099609,17.3544922 20.3099609,18.0908203 Z M20.3099609,13 C20.3099609,13.7363281 19.7132812,14.3304687 18.9794922,14.3304687 L12.1697266,14.3304687 C11.4333984,14.3304687 10.8392578,13.7337891 10.8392578,13 C10.8392578,12.2636719 11.4359375,11.6695313 12.1697266,11.6695313 L18.9794922,11.6695313 C19.7132812,11.6695313 20.3099609,12.2636719 20.3099609,13 Z M20.3099609,7.90917969 C20.3099609,8.64550781 19.7132812,9.23964844 18.9794922,9.23964844 L12.1697266,9.23964844 C11.4333984,9.23964844 10.8392578,8.64296875 10.8392578,7.90917969 C10.8392578,7.17285156 11.4359375,6.57871094 12.1697266,6.57871094 L18.9794922,6.57871094 C19.7132812,6.57871094 20.3099609,7.17539063 20.3099609,7.90917969 Z" id="形状"></path>
            </g>
        </g>
    </g>
</svg>