<?xml version="1.0" encoding="UTF-8"?>
<svg width="27px" height="27px" viewBox="0 0 27 27" version="1.1" xmlns="http://www.w3.org/2000/svg" xmlns:xlink="http://www.w3.org/1999/xlink">
    <title>编组</title>
    <g id="定稿" stroke="none" stroke-width="1" fill="none" fill-rule="evenodd">
        <g id="30消费情况-食堂消费-消费金额" transform="translate(-796.000000, -825.000000)" fill="#FFFFFF" fill-rule="nonzero">
            <g id="编组" transform="translate(796.000000, 825.000000)">
                <path d="M18.046875,14.765625 C18.9525,14.765625 19.6875,14.030625 19.6875,13.125 C19.6875,12.219375 18.9525,11.484375 18.046875,11.484375 C17.14125,11.484375 16.40625,12.219375 16.40625,13.125 C16.40625,14.030625 17.14125,14.765625 18.046875,14.765625 Z M18.046875,9.84375 L26.25,9.84375 L26.25,16.40625 L18.046875,16.40625 C16.235625,16.40625 14.765625,14.93625 14.765625,13.125 C14.765625,11.31375 16.235625,9.84375 18.046875,9.84375 Z M26.25,8.203125 L18.046875,8.203125 C15.33,8.203125 13.125,10.408125 13.125,13.125 C13.125,15.841875 15.33,18.046875 18.046875,18.046875 L26.25,18.046875 L26.25,22.05 C26.2139063,24.3796875 24.3140625,26.25 21.984375,26.25 L4.18359375,26.25 C1.88671875,26.2073437 0.03609375,24.3501563 0,22.05 L0,4.2 C0.03609375,1.89984375 1.88671875,0.04265625 4.18359375,0 L22.0664062,0 C24.3632812,0.04265625 26.2139063,1.89984375 26.25,4.2 L26.25,8.203125 Z" id="形状"></path>
            </g>
        </g>
    </g>
</svg>