<?xml version="1.0" encoding="UTF-8"?>
<svg width="29px" height="29px" viewBox="0 0 29 29" version="1.1" xmlns="http://www.w3.org/2000/svg" xmlns:xlink="http://www.w3.org/1999/xlink">
    <title>编组</title>
    <g id="定稿" stroke="none" stroke-width="1" fill="none" fill-rule="evenodd">
        <g id="30消费情况-食堂消费-消费金额" transform="translate(-472.000000, -970.000000)" fill="#FFFFFF" fill-rule="nonzero">
            <g id="编组" transform="translate(472.000000, 970.000000)">
                <path d="M14.4,-9.20184849e-16 C6.44324324,-9.20184849e-16 0,6.44324324 0,14.4 C0,22.3567568 6.44324324,28.8 14.4,28.8 C22.3567568,28.8 28.8,22.3567568 28.8,14.4 C28.8,6.44324324 22.3567568,-9.20184849e-16 14.4,-9.20184849e-16 Z M18.4312312,16.418018 C18.9693694,16.418018 19.4402402,16.8504505 19.4402402,17.3885886 C19.4402402,17.9267267 19.0078078,18.3591592 18.4312312,18.3591591 L15.3753754,18.3591591 L15.3753754,21.3093093 C15.3753754,21.8474475 14.9429429,22.2798799 14.3663664,22.2798799 C13.8282282,22.2798799 13.3573573,21.8474474 13.3573573,21.3093093 L13.3573573,18.3591591 L10.3687688,18.3591591 C9.83063063,18.3591591 9.35975977,17.9267267 9.35975977,17.3885886 C9.35975977,16.8504505 9.7921922,16.418018 10.3687688,16.418018 L13.3573573,16.418018 L13.3573573,14.4384384 L10.3687688,14.4384384 C9.83063063,14.4384384 9.35975977,14.006006 9.35975977,13.4678679 C9.35975977,12.9297298 9.7921922,12.4972973 10.3687688,12.4972973 L13.3573573,12.4972973 L13.3573573,11.8870871 L9.64804806,8.17777779 C9.25405405,7.78378378 9.25405405,7.16876878 9.64804806,6.77477477 C10.0420421,6.38078077 10.6906907,6.38078077 11.051051,6.77477477 L14.4336336,10.0852853 L17.6384384,6.77477477 C18.0324324,6.38078077 18.6474474,6.38078077 19.0414414,6.74114113 C19.4354354,7.10150149 19.4354354,7.75015014 19.0750751,8.14414414 L15.3753754,11.987988 L15.3753754,12.4540541 L18.436036,12.4540541 C18.9741742,12.4540541 19.445045,12.8864865 19.445045,13.4246246 C19.445045,13.9627628 19.0126126,14.3951952 18.436036,14.3951952 L15.3753754,14.3951952 L15.3753754,16.3747748 L18.436036,16.3747748 L18.436036,16.418018 L18.4312312,16.418018 L18.4312312,16.418018 Z" id="形状"></path>
            </g>
        </g>
    </g>
</svg>