<?xml version="1.0" encoding="UTF-8"?>
<svg width="25px" height="29px" viewBox="0 0 25 29" version="1.1" xmlns="http://www.w3.org/2000/svg" xmlns:xlink="http://www.w3.org/1999/xlink">
    <title>编组</title>
    <g id="定稿" stroke="none" stroke-width="1" fill="none" fill-rule="evenodd">
        <g id="30消费情况-食堂消费-消费金额" transform="translate(-796.000000, -971.000000)" fill="#FFFFFF" fill-rule="nonzero">
            <g id="编组" transform="translate(796.000000, 971.000000)">
                <path d="M21.4285714,0 L3.57142857,0 C1.60714286,0 0,1.60714286 0,3.57142857 L0,25 C0,26.9642857 1.60714286,28.5714286 3.57142857,28.5714286 L21.4285714,28.5714286 C23.3928571,28.5714286 25,26.9642857 25,25 L25,3.57142857 C25,1.60714286 23.3928571,0 21.4285714,0 Z M8.03571429,10.7142857 C7.5,10.7142857 7.14285714,10.3571429 7.14285714,9.82142857 C7.14285714,9.28571429 7.5,8.92857143 8.03571429,8.92857143 L11.25,8.92857143 L8.21428571,5.89285714 C7.85714286,5.53571429 7.85714286,5 8.21428571,4.64285714 C8.57142857,4.28571429 9.10714286,4.28571429 9.46428571,4.64285714 L12.5,7.67857143 L15.5357143,4.64285714 C15.8928571,4.28571429 16.4285714,4.28571429 16.7857143,4.64285714 C17.1428571,5 17.1428571,5.53571429 16.7857143,5.89285714 L13.75,8.92857143 L16.9642857,8.92857143 C17.5,8.92857143 17.8571429,9.28571429 17.8571429,9.82142857 C17.8571429,10.3571429 17.5,10.7142857 16.9642857,10.7142857 L13.3928571,10.7142857 L13.3928571,12.5 L16.9642857,12.5 C17.5,12.5 17.8571429,12.8571429 17.8571429,13.3928571 C17.8571429,13.9285714 17.5,14.2857143 16.9642857,14.2857143 L13.3928571,14.2857143 L13.3928571,16.9642857 C13.3928571,17.5 13.0357143,17.8571429 12.5,17.8571429 C11.9642857,17.8571429 11.6071429,17.5 11.6071429,16.9642857 L11.6071429,14.2857143 L8.03571429,14.2857143 C7.5,14.2857143 7.14285714,13.9285714 7.14285714,13.3928571 C7.14285714,12.8571429 7.5,12.5 8.03571429,12.5 L11.6071429,12.5 L11.6071429,10.7142857 L8.03571429,10.7142857 Z M18.75,23.2142857 L6.25,23.2142857 C5.71428571,23.2142857 5.35714286,22.8571429 5.35714286,22.3214286 C5.35714286,21.7857143 5.71428571,21.4285714 6.25,21.4285714 L18.75,21.4285714 C19.2857143,21.4285714 19.6428571,21.7857143 19.6428571,22.3214286 C19.6428571,22.8571429 19.2857143,23.2142857 18.75,23.2142857 Z" id="形状"></path>
            </g>
        </g>
    </g>
</svg>