<?xml version="1.0" encoding="UTF-8"?>
<svg width="294px" height="120px" viewBox="0 0 294 120" version="1.1" xmlns="http://www.w3.org/2000/svg" xmlns:xlink="http://www.w3.org/1999/xlink">
    <title>编组备份 22</title>
    <defs>
        <path d="M8,0 L286,0 C290.418278,-8.11624501e-16 294,3.581722 294,8 L294,112 C294,116.418278 290.418278,120 286,120 L8,120 C3.581722,120 -7.45252278e-15,116.418278 0,112 L0,8 C-5.41083001e-16,3.581722 3.581722,-9.64732338e-16 8,0 Z" id="path-1"></path>
    </defs>
    <g id="定稿" stroke="none" stroke-width="1" fill="none" fill-rule="evenodd">
        <g id="30消费情况-食堂消费-消费金额" transform="translate(-776.000000, -803.000000)">
            <g id="编组备份-22" transform="translate(776.000000, 803.000000)">
                <mask id="mask-2" fill="white">
                    <use xlink:href="#path-1"></use>
                </mask>
                <use id="蒙版" fill="#B22924" xlink:href="#path-1"></use>
                <g opacity="0.203962054" mask="url(#mask-2)" fill="#FFFFFF" fill-rule="nonzero" id="形状">
                    <g transform="translate(226.000000, 59.000000)">
                        <path d="M51.734375,42.328125 C54.3305,42.328125 56.4375,40.221125 56.4375,37.625 C56.4375,35.028875 54.3305,32.921875 51.734375,32.921875 C49.13825,32.921875 47.03125,35.028875 47.03125,37.625 C47.03125,40.221125 49.13825,42.328125 51.734375,42.328125 Z M51.734375,28.21875 L75.25,28.21875 L75.25,47.03125 L51.734375,47.03125 C46.542125,47.03125 42.328125,42.81725 42.328125,37.625 C42.328125,32.43275 46.542125,28.21875 51.734375,28.21875 Z M75.25,23.515625 L51.734375,23.515625 C43.946,23.515625 37.625,29.836625 37.625,37.625 C37.625,45.413375 43.946,51.734375 51.734375,51.734375 L75.25,51.734375 L75.25,63.21 C75.1465312,69.8884375 69.7003125,75.25 63.021875,75.25 L11.9929687,75.25 C5.40859375,75.1277187 0.10346875,69.8037813 0,63.21 L0,12.04 C0.10346875,5.44621875 5.40859375,0.12228125 11.9929687,0 L63.2570312,0 C69.8414062,0.12228125 75.1465312,5.44621875 75.25,12.04 L75.25,23.515625 Z"></path>
                    </g>
                </g>
            </g>
        </g>
    </g>
</svg>