<?xml version="1.0" encoding="UTF-8"?>
<svg width="294px" height="120px" viewBox="0 0 294 120" version="1.1" xmlns="http://www.w3.org/2000/svg" xmlns:xlink="http://www.w3.org/1999/xlink">
    <title>编组备份 26</title>
    <defs>
        <path d="M8,0 L286,0 C290.418278,-8.11624501e-16 294,3.581722 294,8 L294,112 C294,116.418278 290.418278,120 286,120 L8,120 C3.581722,120 -7.45252278e-15,116.418278 0,112 L0,8 C-5.41083001e-16,3.581722 3.581722,-9.64732338e-16 8,0 Z" id="path-1"></path>
    </defs>
    <g id="定稿" stroke="none" stroke-width="1" fill="none" fill-rule="evenodd">
        <g id="30消费情况-食堂消费-消费金额" transform="translate(-776.000000, -653.000000)">
            <g id="编组备份-26" transform="translate(776.000000, 653.000000)">
                <mask id="mask-2" fill="white">
                    <use xlink:href="#path-1"></use>
                </mask>
                <use id="蒙版" fill="#DDAB1F" xlink:href="#path-1"></use>
                <g opacity="0.20031157" mask="url(#mask-2)" fill="#FFFFFF" fill-rule="nonzero" id="形状">
                    <g transform="translate(220.000000, 59.000000)">
                        <path d="M79,19.75 L79,54.3125 C79,59.7663119 74.5788119,64.1875 69.125,64.1875 L9.875,64.1875 C4.4211881,64.1875 0,59.7663119 0,54.3125 L0,19.75 L79,19.75 Z M31.61975,44.4375 L12.2499375,44.4375 L12.0055312,44.45725 C10.8081875,44.6473438 9.875,46.2224062 9.875,48.140625 C9.875,50.0588437 10.8081875,51.6339062 12.0055313,51.824 L12.2499375,51.84375 L31.61975,51.84375 L31.8616875,51.824 C33.0590313,51.6339062 33.9922188,50.0588437 33.9922188,48.140625 C33.9922188,46.0965 32.9306563,44.4375 31.61975,44.4375 Z M40.9368125,32.09375 L12.9016875,32.09375 L12.610375,32.1110312 C11.0748125,32.29125 9.875,33.87125 9.875,35.796875 C9.875,37.7225 11.0748125,39.3025 12.610375,39.4827187 L12.9016875,39.5 L40.9368125,39.5 L41.228125,39.4827187 C42.7612188,39.3025 43.9635,37.7225 43.9635,35.796875 C43.9635,33.75275 42.6056875,32.09375 40.9368125,32.09375 L40.9368125,32.09375 Z M69.125,0 C74.5788119,0 79,4.4211881 79,9.875 L79,14.8125 L0,14.8125 L0,9.875 C0,4.4211881 4.4211881,0 9.875,0 L69.125,0 L69.125,0 Z"></path>
                    </g>
                </g>
            </g>
        </g>
    </g>
</svg>