<?xml version="1.0" encoding="UTF-8"?>
<svg width="294px" height="120px" viewBox="0 0 294 120" version="1.1" xmlns="http://www.w3.org/2000/svg" xmlns:xlink="http://www.w3.org/1999/xlink">
    <title>编组备份 31</title>
    <defs>
        <path d="M8,0 L286,0 C290.418278,-8.11624501e-16 294,3.581722 294,8 L294,112 C294,116.418278 290.418278,120 286,120 L8,120 C3.581722,120 -7.45252278e-15,116.418278 0,112 L0,8 C-5.41083001e-16,3.581722 3.581722,-9.64732338e-16 8,0 Z" id="path-1"></path>
    </defs>
    <g id="定稿" stroke="none" stroke-width="1" fill="none" fill-rule="evenodd">
        <g id="30消费情况-食堂消费-消费金额" transform="translate(-452.000000, -803.000000)">
            <g id="编组备份-31" transform="translate(452.000000, 803.000000)">
                <mask id="mask-2" fill="white">
                    <use xlink:href="#path-1"></use>
                </mask>
                <use id="蒙版" fill="#1B528B" xlink:href="#path-1"></use>
                <g opacity="0.203427269" mask="url(#mask-2)" fill="#FFFFFF" fill-rule="nonzero" id="形状">
                    <g transform="translate(221.000000, 59.000000)">
                        <path d="M65.7207031,0 L18.703125,0 C8.371875,0 0,8.371875 0,18.703125 L0,65.7207031 C0,71.3984375 4.6015625,76 10.2792969,76 L57.296875,76 C67.628125,76 76,67.628125 76,57.296875 L76,10.2792969 C76,4.6015625 71.3984375,0 65.7207031,0 Z M20.5214844,56.7699219 C18.3691406,56.7699219 16.6324219,55.0257813 16.6324219,52.8808594 C16.6324219,50.7285156 18.3765625,48.9917969 20.5214844,48.9917969 C22.6738281,48.9917969 24.4105705,50.7359375 24.4105705,52.8808594 C24.4179687,55.0257813 22.6738281,56.7699219 20.5214844,56.7699219 Z M20.5214844,41.8890625 C18.3691406,41.8890625 16.6324219,40.1449219 16.6324219,38 C16.6324219,35.8476562 18.3765625,34.1109375 20.5214844,34.1109375 C22.6738281,34.1109375 24.4105705,35.8550781 24.4105705,38 C24.4179687,40.1523438 22.6738281,41.8890625 20.5214844,41.8890625 Z M20.5214844,27.015625 C18.3691406,27.015625 16.6324219,25.2714844 16.6324219,23.1265625 C16.6324219,20.9742188 18.3765625,19.2375 20.5214844,19.2375 C22.6738281,19.2375 24.4105705,20.9816406 24.4105705,23.1265625 C24.4179687,25.2714844 22.6738281,27.015625 20.5214844,27.015625 Z M59.3675781,52.8808594 C59.3675781,55.0332031 57.6234375,56.7699219 55.4785156,56.7699219 L35.5730469,56.7699219 C33.4207031,56.7699219 31.6839844,55.0257812 31.6839844,52.8808594 C31.6839844,50.7285156 33.428125,48.9917733 35.5730469,48.9917733 L55.4785156,48.9917733 C57.6234375,48.984375 59.3675781,50.7285156 59.3675781,52.8808594 Z M59.3675781,38 C59.3675781,40.1523438 57.6234375,41.8890625 55.4785156,41.8890625 L35.5730469,41.8890625 C33.4207031,41.8890625 31.6839844,40.1449219 31.6839844,38 C31.6839844,35.8476562 33.428125,34.1109375 35.5730469,34.1109375 L55.4785156,34.1109375 C57.6234375,34.1109375 59.3675781,35.8476562 59.3675781,38 Z M59.3675781,23.1191406 C59.3675781,25.2714844 57.6234375,27.0082031 55.4785156,27.0082031 L35.5730469,27.0082031 C33.4207031,27.0082031 31.6839844,25.2640625 31.6839844,23.1191406 C31.6839844,20.9667969 33.428125,19.2300781 35.5730469,19.2300781 L55.4785156,19.2300781 C57.6234375,19.2300781 59.3675781,20.9742188 59.3675781,23.1191406 Z"></path>
                    </g>
                </g>
            </g>
        </g>
    </g>
</svg>