<?xml version="1.0" encoding="UTF-8"?>
<svg width="294px" height="120px" viewBox="0 0 294 120" version="1.1" xmlns="http://www.w3.org/2000/svg" xmlns:xlink="http://www.w3.org/1999/xlink">
    <title>形状</title>
    <g id="定稿" stroke="none" stroke-width="1" fill="none" fill-rule="evenodd">
        <g id="30消费情况-食堂消费-消费金额" transform="translate(-776.000000, -953.000000)">
            <g id="形状" transform="translate(776.000000, 953.000000)">
                <g id="蒙版" fill="#8C6C4E">
                    <path d="M8,0 L286,0 C290.418278,-8.11624501e-16 294,3.581722 294,8 L294,112 C294,116.418278 290.418278,120 286,120 L8,120 C3.581722,120 -7.45252278e-15,116.418278 0,112 L0,8 C-5.41083001e-16,3.581722 3.581722,-9.64732338e-16 8,0 Z"></path>
                </g>
                <path d="M287.285714,59 L233.714286,59 C227.821429,59 223,63.8214286 223,69.7142857 L223,134 C223,139.892857 227.821429,144.714286 233.714286,144.714286 L287.285714,144.714286 C293.178571,144.714286 298,139.892857 298,134 L298,69.7142857 C298,63.8214286 293.178571,59 287.285714,59 Z M247.107143,91.1428571 C245.5,91.1428571 244.428571,90.0714286 244.428571,88.4642857 C244.428571,86.8571429 245.5,85.7857143 247.107143,85.7857143 L256.75,85.7857143 L247.642857,76.6785714 C246.571429,75.6071429 246.571429,74 247.642857,72.9285714 C248.714286,71.8571429 250.321429,71.8571429 251.392857,72.9285714 L260.5,82.0357143 L269.607143,72.9285714 C270.678571,71.8571429 272.285714,71.8571429 273.357143,72.9285714 C274.428571,74 274.428571,75.6071429 273.357143,76.6785714 L264.25,85.7857143 L273.892857,85.7857143 C275.5,85.7857143 276.571429,86.8571429 276.571429,88.4642857 C276.571429,90.0714286 275.5,91.1428571 273.892857,91.1428571 L263.178571,91.1428571 L263.178571,96.5 L273.892857,96.5 C275.5,96.5 276.571429,97.5714286 276.571429,99.1785714 C276.571429,100.785714 275.5,101.857143 273.892857,101.857143 L263.178571,101.857143 L263.178571,109.892857 C263.178571,111.5 262.107143,112.571429 260.5,112.571429 C258.892857,112.571429 257.821429,111.5 257.821429,109.892857 L257.821429,101.857143 L247.107143,101.857143 C245.5,101.857143 244.428571,100.785714 244.428571,99.1785714 C244.428571,97.5714286 245.5,96.5 247.107143,96.5 L257.821429,96.5 L257.821429,91.1428571 L247.107143,91.1428571 Z M279.25,128.642857 L241.75,128.642857 C240.142857,128.642857 239.071429,127.571429 239.071429,125.964286 C239.071429,124.357143 240.142857,123.285714 241.75,123.285714 L279.25,123.285714 C280.857143,123.285714 281.928571,124.357143 281.928571,125.964286 C281.928571,127.571429 280.857143,128.642857 279.25,128.642857 Z" fill="#FFFFFF" fill-rule="nonzero" opacity="0.199800037"></path>
            </g>
        </g>
    </g>
</svg>