<?xml version="1.0" encoding="UTF-8"?>
<svg width="294px" height="120px" viewBox="0 0 294 120" version="1.1" xmlns="http://www.w3.org/2000/svg" xmlns:xlink="http://www.w3.org/1999/xlink">
    <title>形状</title>
    <defs>
        <path d="M8,0 L286,0 C290.418278,-8.11624501e-16 294,3.581722 294,8 L294,112 C294,116.418278 290.418278,120 286,120 L8,120 C3.581722,120 -7.45252278e-15,116.418278 0,112 L0,8 C-5.41083001e-16,3.581722 3.581722,-9.64732338e-16 8,0 Z" id="path-1"></path>
    </defs>
    <g id="定稿" stroke="none" stroke-width="1" fill="none" fill-rule="evenodd">
        <g id="30消费情况-食堂消费-消费金额" transform="translate(-452.000000, -953.000000)">
            <g id="形状" transform="translate(452.000000, 953.000000)">
                <mask id="mask-2" fill="white">
                    <use xlink:href="#path-1"></use>
                </mask>
                <use id="蒙版" fill="#4D5FC1" xlink:href="#path-1"></use>
                <path d="M262.4,59 C241.181982,59 224,76.181982 224,97.4 C224,118.618018 241.181982,135.8 262.4,135.8 C283.618018,135.8 300.8,118.618018 300.8,97.4 C300.8,76.181982 283.618018,59 262.4,59 Z M273.14995,102.781381 C274.584985,102.781381 275.840641,103.934535 275.840641,105.36957 C275.840641,106.804605 274.687487,107.957758 273.14995,107.957758 L265.001001,107.957758 L265.001001,115.824825 C265.001001,117.25986 263.847848,118.413013 262.31031,118.413013 C260.875275,118.413013 259.61962,117.25986 259.61962,115.824825 L259.61962,107.957758 L251.65005,107.957758 C250.215015,107.957758 248.959359,106.804605 248.959359,105.36957 C248.959359,103.934535 250.112513,102.781381 251.65005,102.781381 L259.61962,102.781381 L259.61962,97.5025025 L251.65005,97.5025025 C250.215015,97.5025025 248.959359,96.3493493 248.959359,94.9143143 C248.959359,93.4792794 250.112513,92.3261261 251.65005,92.3261261 L259.61962,92.3261261 L259.61962,90.6988989 L249.728128,80.8074074 C248.677477,79.7567568 248.677477,78.1167167 249.728128,77.0660661 C250.778779,76.0154154 252.508509,76.0154154 253.469469,77.0660661 L262.48969,85.8940941 L271.035836,77.0660661 C272.086486,76.0154154 273.726527,76.0154154 274.777177,76.9763764 C275.827828,77.9373373 275.827828,79.667067 274.866867,80.7177177 L265.001001,90.9679679 L265.001001,92.2108108 L273.162763,92.2108108 C274.597798,92.2108108 275.853453,93.363964 275.853453,94.798999 C275.853453,96.2340341 274.7003,97.3871872 273.162763,97.3871872 L265.001001,97.3871872 L265.001001,102.666066 L273.162763,102.666066 L273.162763,102.781381 L273.14995,102.781381 L273.14995,102.781381 Z" fill="#FFFFFF" fill-rule="nonzero" opacity="0.203055246" mask="url(#mask-2)"></path>
            </g>
        </g>
    </g>
</svg>