<?xml version="1.0" encoding="UTF-8"?>
<svg width="294px" height="120px" viewBox="0 0 294 120" version="1.1" xmlns="http://www.w3.org/2000/svg" xmlns:xlink="http://www.w3.org/1999/xlink">
    <title>编组备份 20</title>
    <defs>
        <path d="M8,0 L286,0 C290.418278,-8.11624501e-16 294,3.581722 294,8 L294,112 C294,116.418278 290.418278,120 286,120 L8,120 C3.581722,120 -7.45252278e-15,116.418278 0,112 L0,8 C-5.41083001e-16,3.581722 3.581722,-9.64732338e-16 8,0 Z" id="path-1"></path>
    </defs>
    <g id="定稿" stroke="none" stroke-width="1" fill="none" fill-rule="evenodd">
        <g id="30消费情况-食堂消费-消费金额" transform="translate(-452.000000, -653.000000)">
            <g id="编组备份-20" transform="translate(452.000000, 653.000000)">
                <mask id="mask-2" fill="white">
                    <use xlink:href="#path-1"></use>
                </mask>
                <use id="蒙版" fill="#45A0E6" xlink:href="#path-1"></use>
                <g opacity="0.201507" mask="url(#mask-2)" fill="#FFFFFF" fill-rule="nonzero" id="形状">
                    <g transform="translate(220.000000, 59.000000)">
                        <path d="M42.8596844,40.1818122 L43.212915,40.2003577 C45.0916704,40.3780849 46.526188,41.9235392 46.5261881,43.7719026 C46.5277306,45.6728114 45.0207158,47.2290839 43.1111106,47.3573566 L42.8596844,47.3650839 L36.7483309,47.3650839 C35.1944747,47.3650839 33.9348253,48.6271523 33.9348253,50.1839926 C33.9348253,51.6908105 35.0423346,52.9534467 36.5077021,53.1667194 L36.7406184,53.1929921 L49.9767427,54.090901 L73.7064406,48.5689928 C75.7955901,48.083721 77.9304072,49.174047 78.7658146,51.1529925 C79.3998912,52.7395489 78.7057737,54.5475856 77.1739628,55.2994463 L76.9518439,55.3983554 L47.7570967,67.11599 L47.0737727,67.3416264 C44.7406763,68.0570598 42.2686674,68.1917987 39.8718773,67.7341718 L39.3212076,67.6182627 L3.50762692,58.6654459 C1.54556217,58.1753844 0.128306778,56.4656543 0.0077124121,54.4432646 L0,54.1681738 L0,44.8181752 C0,42.363132 1.90988044,40.3335687 4.35599757,40.1895395 L4.62747611,40.1818122 L42.8596844,40.1818122 Z M50.902238,0 C64.5332403,0 75.582111,11.0700892 75.582111,24.7272691 C75.582111,34 70.4888022,42.0796301 62.952186,46.3110841 L49.6034597,49.4205381 L49.5679823,49.4189927 L48.9355606,49.3726291 C50.3633968,47.8585135 51.1572781,45.8534047 51.1536642,43.7703571 C51.1521216,39.5095396 47.883581,35.9859037 43.6478979,35.5840857 L43.431949,35.5686311 L42.8612268,35.5469948 L28.7042348,35.5469948 C27.0658382,32.1766766 26.2169842,28.4760928 26.2223396,24.7272691 C26.2223396,11.0700893 37.2712356,0 50.902238,0 L50.902238,0 Z M57.5658037,11.0067257 C57.3155145,10.7602659 56.9134212,10.76303 56.6665308,11.0129075 L51.673484,16.0819976 L46.6804372,11.0129075 C46.5605843,10.8922002 46.3976545,10.8243349 46.2277158,10.8243349 C46.0577771,10.8243349 45.8948473,10.8922002 45.7749944,11.0129075 L43.6833751,13.1394526 C43.4387484,13.3879771 43.4387484,13.7872916 43.6833751,14.0358162 L48.0794775,18.4990882 L43.8268269,18.4990882 C43.4749944,18.4990882 43.1897777,18.7848525 43.1897777,19.1373608 L43.1897777,22.1942694 C43.1897777,22.546633 43.4751387,22.8325421 43.8268269,22.8325421 L49.5525574,22.8309967 L49.5525574,24.9977236 L43.8268269,24.9977236 C43.657871,24.9977236 43.495835,25.06497 43.3763651,25.1846693 C43.2568952,25.3043687 43.1897777,25.4667158 43.1897777,25.6359962 L43.1897777,28.6929049 C43.1897777,29.043723 43.4751387,29.329632 43.8268269,29.329632 L49.5525574,29.329632 L49.5525574,34.9087221 C49.5525574,35.2595403 49.8379185,35.5454493 50.1896067,35.5454493 L53.1589039,35.5454493 C53.3277183,35.5454493 53.4895962,35.4781541 53.6088212,35.3584101 C53.7280463,35.2386662 53.7948203,35.0763148 53.7944106,34.9071767 L53.7944106,29.329632 L59.5216836,29.329632 C59.6902305,29.329632 59.8518741,29.2625485 59.9710548,29.143139 C60.0902354,29.0237295 60.1571923,28.8617754 60.1571923,28.6929049 L60.1571923,25.6359962 C60.1576001,25.466858 60.0908261,25.3045067 59.971601,25.1847627 C59.8523759,25.0650187 59.6904981,24.9977231 59.5216836,24.9977236 L53.7944106,24.9977236 L53.7944106,22.8309967 L59.5216836,22.8309967 C59.6902305,22.8309967 59.8518741,22.7639131 59.9710548,22.6445036 C60.0902354,22.5250941 60.1571923,22.36314 60.1571923,22.1942694 L60.1571923,19.1373608 C60.1571923,18.9684902 60.0902354,18.8065362 59.9710548,18.6871267 C59.8518741,18.5677172 59.6902305,18.5006336 59.5216836,18.5006336 L55.2659481,18.4990882 L59.6620504,14.0358162 C59.90794,13.7880597 59.9086284,13.3880571 59.6635929,13.1394526 L57.5719737,11.0129075 L57.5658037,11.0067257 Z"></path>
                    </g>
                </g>
            </g>
        </g>
    </g>
</svg>