<?xml version="1.0" encoding="UTF-8"?>
<svg width="17px" height="17px" viewBox="0 0 17 17" version="1.1" xmlns="http://www.w3.org/2000/svg" xmlns:xlink="http://www.w3.org/1999/xlink">
    <title>编组 2</title>
    <g id="页面-1" stroke="none" stroke-width="1" fill-rule="evenodd">
        <g id="关注群体-重点名单备份" transform="translate(-368.000000, -427.000000)" fill-rule="nonzero">
            <g id="编组" transform="translate(368.000000, 427.000000)">
                <path d="M14.1316415,2.41995847 C17.3582528,5.64648695 17.3582528,10.9051131 14.1316415,14.1316415 C12.5154374,15.7478457 10.3956394,16.5559477 8.2758414,16.5559477 C6.1559606,16.5559477 4.03616263,15.7478457 2.41995847,14.1316415 C-0.806652825,10.9050302 -0.806652825,5.64648693 2.41995847,2.41995847 C5.64648695,-0.806652825 10.9051131,-0.806652825 14.1316415,2.41995847 Z M3.29828707,3.29828707 C0.551915979,6.04474097 0.551915979,10.506859 3.29828707,13.2532301 C6.04474097,15.999684 10.506859,15.999684 13.2532301,13.2533129 C15.999684,10.506859 15.999684,6.04474099 13.2532301,3.29828707 C10.506859,0.551915979 6.04474099,0.551915979 3.29828707,3.29828707 Z M8.22896851,4.35234767 C8.68577227,4.35234767 8.89065488,4.72128544 8.89065488,5.17800637 L8.89065488,7.61407223 L11.3969473,7.61407223 C11.853751,7.61407223 12.222606,7.81903765 12.222606,8.2757586 C12.222606,8.73247955 11.853751,8.8554588 11.3969473,8.85545878 L8.89065488,8.85545878 L8.89065488,11.3032843 C8.89065488,11.7600052 8.68568945,12.128943 8.22896851,12.128943 C7.77224756,12.128943 7.6492683,11.7600052 7.6492683,11.3032843 L7.6492683,8.8555416 L5.17808919,8.8555416 C4.72128544,8.8555416 4.35243047,8.73256235 4.35243047,8.2758414 C4.35243047,7.81912045 4.72128542,7.61407223 5.17808919,7.61407223 L7.6492683,7.61407223 L7.6492683,5.17800637 C7.6492683,4.72128542 7.77216474,4.35234767 8.22896851,4.35234767 Z" id="路径-4"></path>
            </g>
        </g>
    </g>
</svg>