<?xml version="1.0" encoding="UTF-8"?>
<svg width="19px" height="18px" viewBox="0 0 19 18" version="1.1" xmlns="http://www.w3.org/2000/svg" xmlns:xlink="http://www.w3.org/1999/xlink">
    <title>编组 5</title>
    <g id="页面-1" stroke="none" stroke-width="1" fill-rule="evenodd">
        <g id="关注群体-作息不规律行为分析" transform="translate(-124.000000, -291.000000)" fill-rule="nonzero">
            <g id="编组" transform="translate(124.000000, 291.000000)">
                <path d="M8.89537223,5.38430584 L8.89537223,5.37022133 C9.23742455,5.37022133 9.51509054,5.09255533 9.51509054,4.75050302 C9.51509054,4.4084507 9.23742455,4.13078471 8.89537223,4.13078471 C6.15090543,4.13078471 3.91750503,6.36418511 3.91750503,9.10865191 C3.91750503,11.8531187 6.15090543,14.0865191 8.89537223,14.0865191 C11.639839,14.0865191 13.8732394,11.8531187 13.8732394,9.10865191 C13.8732394,8.87726358 13.8571429,8.63983903 13.8229376,8.40241449 L13.7987928,8.40442656 C13.7404427,8.14285714 13.5191147,7.94366197 13.2414487,7.94366197 C12.9295775,7.94366197 12.6800805,8.19114688 12.665996,8.49899396 L12.6559356,8.49899396 C12.7102616,8.75452716 12.665996,8.84507042 12.665996,9.10663984 C12.665996,11.1609658 10.9517103,12.832998 8.89738431,12.832998 C6.84507042,12.832998 5.17303823,11.1609658 5.17303823,9.10663984 C5.17303823,8.11066398 5.55935614,7.1750503 6.26358149,6.47283702 C6.9637827,5.77062374 7.89939638,5.38430584 8.89537223,5.38430584 L8.89537223,5.38430584 Z M10.637827,3.5110664 L11.0140845,5.97183099 L11.0020121,5.98390342 L8.93762575,8.04828974 L8.91146881,8.04627767 C8.9054326,8.04627767 8.89939638,8.04426559 8.89537223,8.04426559 C8.30985915,8.04426559 7.83299799,8.52112676 7.83299799,9.10663984 C7.83299799,9.11267606 7.83299799,9.11871227 7.83501006,9.12474849 L7.83702213,9.14084507 L7.87726358,9.36217304 C7.97183099,9.74044266 8.26760563,10.0342052 8.64788732,10.1287726 L8.86720322,10.1690141 C8.87726358,10.1690141 8.88732394,10.1710262 8.89738431,10.1710262 C9.48289738,10.1710262 9.95975855,9.69416499 9.95975855,9.10865191 L9.95975855,9.09657948 C9.95975855,9.09054326 9.95774648,9.08450704 9.95774648,9.07847082 L9.95774648,9.06237425 L12.0321932,6.98792757 L14.5895372,7.37826962 L14.6579477,7.30985915 L18.0060362,3.96177062 L14.5653924,3.46881288 L14.5613682,3.44466801 L14.0382294,0 L13.7686117,0.269617706 L10.6237425,3.41448692 L10.637827,3.5110664 L10.637827,3.5110664 Z M11.8028169,3.74044266 L13.1871227,2.42253521 L13.1971831,2.48289738 L13.5472837,4.4889336 L13.7927565,4.49899396 L15.6740443,4.75653924 L15.6237425,4.80482897 L14.1871227,6.13480885 L14.1730382,6.13279678 L12.0965795,5.89134809 L12.0925553,5.86519115 L11.7907445,3.75452716 L11.8028169,3.74044266 Z M17.4386318,6.99798793 C17.3380282,6.80885312 17.1468813,6.67605634 16.917505,6.67605634 C16.5875252,6.67605634 16.3199195,6.94366197 16.3199195,7.27364185 C16.3199195,7.38028169 16.3561368,7.47686117 16.4064386,7.56338028 L16.4044266,7.56338028 C16.5311871,8.11871227 16.5331992,8.5331992 16.5331992,9.10462777 C16.5331992,13.3179074 13.1066398,16.7464789 8.89336016,16.7464789 C4.68008048,16.7464789 1.25352113,13.3179074 1.25352113,9.10462777 C1.25352113,4.89134809 4.68008048,1.46277666 8.89336016,1.46277666 C9.4668008,1.46277666 10.0382294,1.52716298 10.5935614,1.65191147 L10.5995976,1.63179074 C10.6317907,1.63782696 10.6599598,1.65191147 10.694165,1.65191147 C11.0342052,1.65191147 11.3078471,1.37625755 11.3078471,1.0362173 C11.3078471,0.774647887 11.1448692,0.555331992 10.915493,0.466800805 C10.1126761,0.23138833 9.7444668,0.209255533 8.89336016,0.209255533 C3.98993964,0.209255533 0,4.19919517 0,9.10462777 C0,14.0100604 3.98993964,18 8.89336016,18 C13.7967807,18 17.7867203,14.0100604 17.7867203,9.10462777 C17.7867203,8.25150905 17.6961771,7.79678068 17.4587525,6.98390342 L17.4386318,6.99798793 Z" id="形状"></path>
            </g>
        </g>
    </g>
</svg>