<?xml version="1.0" encoding="UTF-8"?>
<svg width="17px" height="15px" viewBox="0 0 17 15" version="1.1" xmlns="http://www.w3.org/2000/svg" xmlns:xlink="http://www.w3.org/1999/xlink">
    <title>编组</title>
    <g id="页面-1" stroke="none" stroke-width="1" fill-rule="evenodd">
        <g id="关注群体-新建自定义人群" transform="translate(-499.000000, -761.000000)" fill-rule="nonzero">
            <g id="编组" transform="translate(499.000000, 761.000000)">
                <path d="M5.15970037,0.0629339755 C5.3577248,-0.0892868392 5.64430791,0.0518876635 5.64430791,0.301643462 L5.64430791,1.44052388 L10.9145843,1.44052388 C14.1987827,1.44052388 16.8611509,4.10289209 16.8611509,7.38709051 L16.8611509,9.90873585 L15.355691,9.90873585 L15.355691,7.38709051 C15.355691,4.93433877 13.367336,2.94598379 10.9145843,2.94598379 L5.64430791,2.94598379 L5.64430791,4.08245547 C5.64430791,4.33221127 5.3577248,4.47338577 5.15970037,4.32116495 L2.85576335,2.5501231 C2.62057288,2.36933619 2.62057288,2.01476274 2.85576335,1.83397583 L5.15970037,0.0629339755 Z M11.2168807,12.0540162 L5.94656663,12.0540162 C3.49381489,12.0540162 1.50545991,10.0656612 1.50545991,7.61290949 L1.50545991,5.27944664 L0,5.27944664 L0,7.61290949 C0,10.8971079 2.66236821,13.5594761 5.94656663,13.5594761 L11.2168807,13.5594761 L11.2168807,14.6983565 C11.2168807,14.9481123 11.5034638,15.0892868 11.7014694,14.937066 L14.0054252,13.1660242 C14.2406157,12.9852373 14.2406157,12.6306638 14.0054252,12.4498769 L11.7014694,10.678835 C11.5034638,10.5266142 11.2168807,10.6677887 11.2168807,10.9175445 L11.2168807,12.0540162 L11.2168807,12.0540162 Z" id="形状"></path>
            </g>
        </g>
    </g>
</svg>