<?xml version="1.0" encoding="UTF-8"?>
<svg width="13px" height="13px" viewBox="0 0 13 13" version="1.1" xmlns="http://www.w3.org/2000/svg" xmlns:xlink="http://www.w3.org/1999/xlink">
    <title>编组 5</title>
    <g id="页面-1" stroke="none" stroke-width="1" fill="none" fill-rule="evenodd">
        <g id="关注群体-作息不规律行为分析" transform="translate(-364.000000, -555.000000)" fill-rule="nonzero">
            <g id="编组" transform="translate(364.000000, 555.000000)">
                <path d="M7.89285714,3.71428571 L2.32142857,3.71428571 C2.06389509,3.71428571 1.85714286,3.50753348 1.85714286,3.25 C1.85714286,2.99246652 2.06389509,2.78571429 2.32142857,2.78571429 L7.89285714,2.78571429 C8.15039063,2.78571429 8.35714286,2.99246652 8.35714286,3.25 C8.35714286,3.50753348 8.15039063,3.71428571 7.89285714,3.71428571 Z M4.64285714,6.5 L2.32142857,6.5 C2.06389509,6.5 1.85714286,6.29324777 1.85714286,6.03571429 C1.85714286,5.7781808 2.06389509,5.57142857 2.32142857,5.57142857 L4.64285714,5.57142857 C4.90039063,5.57142857 5.10714286,5.7781808 5.10714286,6.03571429 C5.10714286,6.29324777 4.90039063,6.5 4.64285714,6.5 Z M3.71428571,9.28571429 L2.32142857,9.28571429 C2.06389509,9.28571429 1.85714286,9.07896205 1.85714286,8.82142857 C1.85714286,8.56389509 2.06389509,8.35714286 2.32142857,8.35714286 L3.71428571,8.35714286 C3.9718192,8.35714286 4.17857143,8.56389509 4.17857143,8.82142857 C4.17857143,9.07896205 3.9718192,9.28571429 3.71428571,9.28571429 Z" id="形状" fill="#B22924"></path>
                <path d="M9.05357143,13 C7.99804688,13 7.0078125,12.5901228 6.26422991,11.8429129 C5.51883371,11.0993304 5.10714286,10.1072824 5.10714286,9.05357143 C5.10714286,7.99804688 5.51702009,7.0078125 6.26422991,6.26422991 C7.0078125,5.51883371 7.99986049,5.10714286 9.05357143,5.10714286 C10.109096,5.10714286 11.0993304,5.51702009 11.8429129,6.26422991 C12.5864955,7.00962612 13,8.00167411 13,9.05357143 C13,10.109096 12.5901228,11.0993304 11.8429129,11.8429129 C11.0975167,12.5883092 10.109096,13 9.05357143,13 Z" id="形状结合" fill="#B22924"></path>
                <path d="M8.72167969,7.89285714 C8.81054688,7.80398996 8.92843192,7.75502232 9.05357143,7.75502232 C9.17871094,7.75502232 9.29659598,7.80398996 9.38546317,7.89285714 C9.47433036,7.98172433 9.52329799,8.09960937 9.52329799,8.22474888 C9.52329799,8.34988839 9.47433036,8.46777344 9.38546317,8.55664062 C9.29659598,8.64550781 9.17871094,8.69447545 9.05357143,8.69447545 C8.92843192,8.69447545 8.81054688,8.64550781 8.72167969,8.55664062 C8.6328125,8.46777344 8.58384487,8.34988839 8.58384487,8.22474888 C8.58384487,8.09960937 8.6328125,7.98172433 8.72167969,7.89285714 Z M4.64285714,12.0714286 L1.39285714,12.0714286 C0.625697545,12.0714286 0,11.445731 0,10.6785714 L0,1.39285714 C0,0.625697545 0.625697545,0 1.39285714,0 L8.82142857,0 C9.58858817,0 10.2142857,0.625697545 10.2142857,1.39285714 L10.2142857,4.17857143 C10.2142857,4.43610491 10.0075335,4.64285714 9.75,4.64285714 C9.49246652,4.64285714 9.28571429,4.43610491 9.28571429,4.17857143 L9.28571429,1.39285714 C9.28571429,1.13713728 9.07714844,0.928571429 8.82142857,0.928571429 L1.39285714,0.928571429 C1.13713728,0.928571429 0.928571429,1.13713728 0.928571429,1.39285714 L0.928571429,10.6785714 C0.928571429,10.9342913 1.13713728,11.1428571 1.39285714,11.1428571 L4.64285714,11.1428571 C4.90039062,11.1428571 5.10714286,11.3496094 5.10714286,11.6071429 C5.10714286,11.8646763 4.90039062,12.0714286 4.64285714,12.0714286 Z" id="形状" fill="#B22924"></path>
                <path d="M10.6296038,9.7391183 C10.5443638,9.5359933 10.4210379,9.35281808 10.2632533,9.19503348 C10.179827,9.11160714 10.0891462,9.03724888 9.99121094,8.97377232 C10.1598772,8.76339286 10.2541853,8.49860491 10.2541853,8.22293527 C10.2541853,7.5609654 9.71554129,7.02232143 9.05357143,7.02232143 C8.39160156,7.02232143 7.85295759,7.5609654 7.85295759,8.22293527 C7.85295759,8.49860491 7.94726563,8.76157924 8.11593192,8.97377232 C8.01799665,9.03724888 7.92731585,9.11160714 7.84388951,9.19503348 C7.68791853,9.35100446 7.56459263,9.53417969 7.47753906,9.7391183 C7.39229911,9.93861607 7.34695871,10.1508092 7.34333147,10.3684431 C7.34151786,10.4337333 7.36690848,10.4990234 7.4140625,10.5461775 C7.4594029,10.5933315 7.52469308,10.6205357 7.58998326,10.6205357 L7.82938058,10.6205357 C7.96177455,10.6205357 8.07240513,10.5135324 8.07603237,10.3811384 C8.08328683,10.1290458 8.18484933,9.89146205 8.36258371,9.71372768 C8.54757254,9.52873884 8.79422433,9.42717634 9.05538504,9.42717634 C9.31654576,9.42717634 9.56319754,9.52873884 9.74818638,9.71372768 C9.92592076,9.89146205 10.0292969,10.1290458 10.0347377,10.3811384 C10.038365,10.515346 10.1453683,10.6205357 10.2813895,10.6205357 L10.5207868,10.6205357 C10.586077,10.6205357 10.6513672,10.5933315 10.6967076,10.5461775 C10.742048,10.4990234 10.7674386,10.4337333 10.7674386,10.3684431 C10.7601842,10.1508092 10.7148438,9.94042969 10.6296038,9.7391183 Z" id="路径" fill="#FFFFFF"></path>
            </g>
        </g>
    </g>
</svg>