<?xml version="1.0" encoding="UTF-8"?>
<svg width="17px" height="16px" viewBox="0 0 17 16" version="1.1" xmlns="http://www.w3.org/2000/svg" xmlns:xlink="http://www.w3.org/1999/xlink">
    <title>编组</title>
    <g id="页面-1" stroke="none" stroke-width="1" fill="none" fill-rule="evenodd">
        <g id="新建标签步骤3" transform="translate(-229.000000, -746.000000)" fill="#1D538C" fill-rule="nonzero">
            <g id="编组" transform="translate(229.000000, 746.000000)">
                <path d="M7.58532621,8.69208667 L0.430864767,5.01918149 C0.0904127985,4.88250369 -0.0736005587,4.49483575 0.063077239,4.15438379 C0.130173612,3.98540033 0.264366359,3.85369263 0.430864767,3.78659626 L7.50580458,0.113691077 C7.79407048,-0.0378970257 8.1370075,-0.0378970257 8.4252734,0.113691077 L15.6269508,3.78659626 C15.9674028,3.92327405 16.1314161,4.31094199 15.9947383,4.65139396 C15.927642,4.82037742 15.7934492,4.95208511 15.6269508,5.01918149 L8.53958574,8.69208667 C8.24137964,8.85112992 7.88353231,8.85112992 7.58532621,8.69208667 Z" id="路径"></path>
                <path d="M15.589675,7.37997981 C15.9326121,7.52411276 16.0941404,7.9167508 15.9500074,8.25968782 C15.8829111,8.42370117 15.7512034,8.55292382 15.589675,8.62002019 L8.49982493,12.2929254 C8.20678539,12.4370555 7.86345545,12.4370555 7.5704159,12.2929254 L0.415954462,8.62002019 C0.0730174424,8.47588724 -0.0885108639,8.0832492 0.0556220864,7.74031218 C0.12271846,7.57629883 0.254426156,7.44707618 0.415954462,7.37997981 L0.967635754,7.09916906 L7.58532621,10.4912635 C7.87856221,10.6353964 8.22149923,10.6353964 8.51473523,10.4912635 L15.0529041,7.10662421 L15.589675,7.37997981 L15.589675,7.37997981 Z" id="路径" opacity="0.717261905"></path>
                <path d="M15.589675,10.9808185 C15.930127,11.1174963 16.0941404,11.5051642 15.9574626,11.8456162 C15.8903662,12.0145997 15.7561735,12.1463074 15.589675,12.2134037 L8.49982493,15.8863089 C8.20907398,16.037897 7.86116686,16.037897 7.5704159,15.8863089 L0.415954462,12.2134037 C0.0755024933,12.0767259 -0.0885108639,11.689058 0.0481669338,11.348606 C0.115263307,11.1796226 0.249456054,11.0479149 0.415954462,10.9808185 L0.967635754,10.6925526 L7.58532621,14.0945872 C7.87856221,14.2387202 8.22149923,14.2387202 8.51473523,14.0945872 L15.0529041,10.7024928 C15.0529041,10.7000078 15.589675,10.9808185 15.589675,10.9808185 L15.589675,10.9808185 Z" id="路径" opacity="0.429013207"></path>
            </g>
        </g>
    </g>
</svg>