<?xml version="1.0" encoding="UTF-8"?>
<svg width="18px" height="15px" viewBox="0 0 18 15" version="1.1" xmlns="http://www.w3.org/2000/svg" xmlns:xlink="http://www.w3.org/1999/xlink">
    <title>编组</title>
    <g id="学生群像定稿" stroke="none" stroke-width="1" fill-rule="evenodd">
        <g id="45毕业就业-创新创业-考研情况-考研人数" transform="translate(-365.000000, -529.000000)" fill-rule="nonzero">
            <g id="编组" transform="translate(365.000000, 529.000000)">
                <path d="M8.83406387,9.32075677 C8.75439415,9.32075677 8.67472443,9.30083934 8.60501343,9.26100448 L0.249651626,4.7995002 C0.0903121877,4.70987177 -0.00927496128,4.54057362 0.000683753618,4.36131675 C0.0106424685,4.18205988 0.120188332,4.01276173 0.289486486,3.94305072 L9.21249504,0.0392344795 C9.35191705,-0.02051781 9.51125649,-0.0105590951 9.64071978,0.0591519093 L17.4483523,4.52065619 C17.6076917,4.61028462 17.6973201,4.77958277 17.6873614,4.95883964 C17.6774027,5.13809651 17.5778156,5.29743595 17.4085174,5.37710567 L9.04319689,9.28092191 C8.97348588,9.30083934 8.90377488,9.32075677 8.83406387,9.32075677 L8.83406387,9.32075677 Z M1.56420199,4.42106904 L8.84402259,8.30496785 L16.1537193,4.89908735 L9.36187576,1.01518854 L1.56420199,4.42106904 L1.56420199,4.42106904 Z" id="形状"></path>
                <path d="M8.90377488,14.3399491 C5.54768795,14.3399491 3.14763766,13.1648207 2.99825694,13.0951097 C2.8389175,13.01544 2.72937164,12.8461418 2.72937164,12.666885 L2.72937164,7.84686696 C2.72937164,7.58794038 2.93850465,7.36884865 3.20738995,7.36884865 C3.47627525,7.36884865 3.68540827,7.57798166 3.68540827,7.84686696 L3.68540827,12.3581648 C4.79082562,12.8162657 9.20253632,14.3897427 13.9727608,12.3581648 L13.9727608,8.38463757 C13.9727608,8.12571098 14.1818938,7.90661925 14.4507791,7.90661925 C14.7196644,7.90661925 14.9287974,8.11575227 14.9287974,8.38463757 L14.9287974,12.666885 C14.9287974,12.8561006 14.8192515,13.0253987 14.6499534,13.1050684 C12.5984581,14.0312289 10.6266326,14.3399491 8.90377488,14.3399491 L8.90377488,14.3399491 Z M17.3288477,10.4361328 C17.0599624,10.4361328 16.8508294,10.2269998 16.8508294,9.95811452 L16.8508294,7.16967435 C16.8508294,6.91074776 17.0599624,6.69165603 17.3288477,6.69165603 C17.597733,6.69165603 17.806866,6.90078905 17.806866,7.16967435 L17.806866,9.95811452 C17.806866,10.2170411 17.597733,10.4361328 17.3288477,10.4361328 Z" id="形状"></path>
            </g>
        </g>
    </g>
</svg>