<?xml version="1.0" encoding="UTF-8"?>
<svg width="15px" height="15px" viewBox="0 0 15 15" version="1.1" xmlns="http://www.w3.org/2000/svg" xmlns:xlink="http://www.w3.org/1999/xlink">
    <title>编组</title>
    <g id="页面-1" stroke="none" stroke-width="1" fill="none" fill-rule="evenodd">
        <g id="行为轨迹弹窗-智慧推荐" transform="translate(-735.000000, -555.000000)" fill="#C3C3C3" fill-rule="nonzero">
            <g id="编组" transform="translate(735.000000, 555.000000)">
                <path d="M7.5,13.8970588 C11.032998,13.8970588 13.8970588,11.032998 13.8970588,7.5 C13.8970588,3.96700197 11.032998,1.10294118 7.5,1.10294118 C3.96700197,1.10294118 1.10294118,3.96700197 1.10294118,7.5 C1.10294118,11.032998 3.96700197,13.8970588 7.5,13.8970588 Z M7.5,15 C3.35786438,15 0,11.6421356 0,7.5 C0,3.35786438 3.35786438,0 7.5,0 C11.6421356,0 15,3.35786438 15,7.5 C15,9.48912367 14.2098237,11.396778 12.8033009,12.8033009 C11.396778,14.2098237 9.48912367,15 7.5,15 L7.5,15 Z" id="形状"></path>
                <path d="M8.27647059,7.5 L10.3852941,9.60882353 C10.5997105,9.82323996 10.5997105,10.1708777 10.3852941,10.3852941 C10.1708777,10.5997105 9.82323996,10.5997105 9.60882353,10.3852941 L7.5,8.27647059 L5.39117647,10.3852941 C5.25247336,10.5239972 5.05030917,10.578167 4.86083719,10.5273981 C4.67136522,10.4766292 4.52337076,10.3286348 4.4726019,10.1391628 C4.42183303,9.94969083 4.47600277,9.74752664 4.61470588,9.60882353 L6.72352941,7.5 L4.61470588,5.39117647 C4.47600276,5.25247336 4.42183302,5.05030917 4.47260188,4.86083719 C4.52337075,4.67136521 4.67136521,4.52337075 4.86083719,4.47260188 C5.05030917,4.42183302 5.25247336,4.47600276 5.39117647,4.61470588 L7.5,6.72352941 L9.60882353,4.61470588 C9.74752664,4.47600277 9.94969083,4.42183303 10.1391628,4.4726019 C10.3286348,4.52337076 10.4766292,4.67136522 10.5273981,4.86083719 C10.578167,5.05030917 10.5239972,5.25247336 10.3852941,5.39117647 L8.27647059,7.5 Z" id="路径"></path>
            </g>
        </g>
    </g>
</svg>