<?xml version="1.0" encoding="UTF-8"?>
<svg width="17px" height="17px" viewBox="0 0 17 17" version="1.1" xmlns="http://www.w3.org/2000/svg" xmlns:xlink="http://www.w3.org/1999/xlink">
    <title>编组</title>
    <g id="定稿" stroke="none" stroke-width="1" fill="none" fill-rule="evenodd">
        <g id="17学业水平-自修自习" transform="translate(-729.000000, -528.000000)" fill="currentColor" fill-rule="nonzero" stroke="#666666" stroke-width="0.2">
            <g id="编组" transform="translate(730.000000, 529.000000)">
                <path d="M14.25,0 C14.6290458,0 14.9433826,0.282749721 14.9931398,0.648378402 L15,0.75 L15,2.25 C15,2.45758929 14.8325893,2.625 14.625,2.625 C14.4433594,2.625 14.2924805,2.49682617 14.2575989,2.32571411 L14.25,2.25 L14.25,0.75 L0.75,0.75 L0.75,14.25 L14.25,14.25 L14.25,4.875 C14.25,4.66741071 14.4174107,4.5 14.625,4.5 C14.8066406,4.5 14.9575195,4.62817383 14.9924011,4.79928589 L15,4.875 L15,14.25 C15,14.6290458 14.7172503,14.9433826 14.3516216,14.9931398 L14.25,15 L0.75,15 C0.370954241,15 0.0566173735,14.7172503 0.0068601578,14.3516216 L0,14.25 L0,0.75 C0,0.370954241 0.282749721,0.0566173735 0.648378402,0.0068601578 L0.75,0 L14.25,0 Z M11.625,10.875 C11.8325893,10.875 12,11.0424107 12,11.25 C12,11.4575893 11.8325893,11.625 11.625,11.625 L11.625,11.625 L3.375,11.625 C3.16741071,11.625 3,11.4575893 3,11.25 C3,11.0424107 3.16741071,10.875 3.375,10.875 L3.375,10.875 Z M5.625,3 C5.77566964,3 5.91127232,3.09040179 5.96986607,3.22767857 L5.96986607,3.22767857 L8.22154018,8.47767857 C8.30189732,8.66852679 8.21484375,8.88783482 8.02399554,8.96986607 C7.97544643,8.98995536 7.92689732,9 7.87667411,9 C7.73102679,9 7.59207589,8.91462054 7.53180804,8.77232143 L7.53180804,8.77232143 L6.82533482,7.125 L4.42633929,7.125 L3.71986607,8.77232143 C3.63783482,8.96316964 3.41685268,9.05189732 3.22767857,8.96986607 C3.03683036,8.88783482 2.94810268,8.66852679 3.03013393,8.47767857 L3.03013393,8.47767857 L5.28013393,3.22767857 C5.33872768,3.08872768 5.47433036,3 5.625,3 Z M11.625,7.125 C11.8325893,7.125 12,7.29241071 12,7.5 C12,7.70758929 11.8325893,7.875 11.625,7.875 L11.625,7.875 L9.375,7.875 C9.16741071,7.875 9,7.70758929 9,7.5 C9,7.29241071 9.16741071,7.125 9.375,7.125 L9.375,7.125 Z M5.625,4.32756696 L4.74776786,6.375 L6.50223214,6.375 L5.625,4.32756696 Z M11.625,4.875 C11.8325893,4.875 12,5.04241071 12,5.25 C12,5.43164062 11.8718262,5.58251953 11.7007141,5.61740112 L11.625,5.625 L9.375,5.625 C9.16741071,5.625 9,5.45758929 9,5.25 C9,5.06835938 9.12817383,4.91748047 9.29928589,4.88259888 L9.375,4.875 L11.625,4.875 Z" id="形状"></path>
            </g>
        </g>
    </g>
</svg>