<?xml version="1.0" encoding="UTF-8"?>
<svg width="28px" height="25px" viewBox="0 0 28 25" version="1.1" xmlns="http://www.w3.org/2000/svg" xmlns:xlink="http://www.w3.org/1999/xlink">
    <title>编组</title>
    <g id="定稿" stroke="none" stroke-width="1" fill="none" fill-rule="evenodd">
        <g id="34消费情况-校内商户-超市消费" transform="translate(-769.000000, -667.000000)" fill="#FFFFFF" fill-rule="nonzero">
            <g id="编组-5" transform="translate(499.000000, 645.000000)">
                <g id="编组" transform="translate(270.000000, 22.000000)">
                    <path d="M28,7 L28,21.25 C28,23.1829966 26.4329966,24.75 24.5,24.75 L3.5,24.75 C1.56700338,24.75 0,23.1829966 0,21.25 L0,7 L28,7 Z M11.207,15.75 L4.34175,15.75 L4.255125,15.757 C3.83075,15.824375 3.5,16.382625 3.5,17.0625 C3.5,17.742375 3.83075,18.300625 4.255125,18.368 L4.34175,18.375 L11.207,18.375 L11.29275,18.368 C11.717125,18.300625 12.047875,17.742375 12.047875,17.0625 C12.047875,16.338 11.671625,15.75 11.207,15.75 Z M14.50925,11.375 L4.57275,11.375 L4.4695,11.381125 C3.92525,11.445 3.5,12.005 3.5,12.6875 C3.5,13.37 3.92525,13.93 4.4695,13.993875 L4.57275,14 L14.50925,14 L14.6125,13.993875 C15.155875,13.93 15.582,13.37 15.582,12.6875 C15.582,11.963 15.10075,11.375 14.50925,11.375 L14.50925,11.375 Z M24.5,0 C26.4329966,0 28,1.56700338 28,3.5 L28,5.25 L0,5.25 L0,3.5 C0,1.56700338 1.56700338,0 3.5,0 L24.5,0 L24.5,0 Z" id="形状"></path>
                </g>
            </g>
        </g>
    </g>
</svg>