<?xml version="1.0" encoding="UTF-8"?>
<svg width="12px" height="13px" viewBox="0 0 12 13" version="1.1" xmlns="http://www.w3.org/2000/svg" xmlns:xlink="http://www.w3.org/1999/xlink">
    <title>编组 3</title>
    <g id="页面-1" stroke="none" stroke-width="1" fill="none" fill-rule="evenodd">
        <g id="关注群体-作息不规律行为分析" transform="translate(-364.000000, -672.000000)" fill="#B22924" fill-rule="nonzero">
            <g id="编组" transform="translate(364.000000, 672.000000)">
                <path d="M6.97758308,2.15489221 L8.1685679,0.82734113 C8.29987209,0.681806802 8.33303161,0.472543865 8.2531524,0.293545701 C8.17327318,0.114547538 7.99537472,-0.000529257086 7.7993626,1.83043721e-06 L4.16606491,1.83043721e-06 C3.97024134,-0.000137635141 3.79264609,0.114893877 3.71270094,0.293655344 C3.6327558,0.472416811 3.66541205,0.68147635 3.79606562,0.82734113 L4.97911055,2.14377635 C2.10851646,2.62061519 0.00295624143,5.10222826 0,8.01215557 L0,11.3826426 C0.00130757416,12.274413 0.723207897,12.9973781 1.61497542,13.0000018 L10.278199,13.0000018 C11.1712069,12.9991255 11.8950376,12.27565 11.8963504,11.3826426 L11.8963504,8.01215557 C11.8930431,5.12564738 9.82006166,2.65714307 6.97758308,2.15489221 Z M10.904657,11.3826426 C10.9042189,11.7278772 10.6242279,12.0075126 10.278993,12.0075126 L1.61497542,12.0075126 C1.27005058,12.0070752 0.990542827,11.7275674 0.990105382,11.3826426 L0.990105382,8.01215557 C0.967505265,6.22671055 1.90708007,4.56713482 3.44966414,3.6678245 C4.99224821,2.76851418 6.89933824,2.76851418 8.44192231,3.6678245 C9.98450638,4.56713482 10.9240812,6.22671055 10.9014811,8.01215557 L10.904657,11.3826426 Z" id="形状"></path>
                <path d="M4.18591465,8.97208933 L5.52299361,8.97208933 L5.52299361,10.408417 C5.51610492,10.5710324 5.59893442,10.7243319 5.73872734,10.8076936 C5.87852026,10.8910552 6.05276568,10.8910552 6.19255861,10.8076936 C6.33235153,10.7243319 6.41518102,10.5710324 6.40829233,10.408417 L6.40829233,8.97208933 L7.74537129,8.97208933 C7.9079867,8.97897802 8.06128621,8.89614853 8.14464786,8.75635561 C8.2280095,8.61656268 8.2280095,8.44231726 8.14464786,8.30252434 C8.06128621,8.16273142 7.9079867,8.07990192 7.74537129,8.08679061 L6.40829233,8.08679061 L6.40829233,7.30074063 L7.74537129,7.30074063 C7.9079867,7.30762932 8.06128621,7.22479983 8.14464786,7.08500691 C8.2280095,6.94521398 8.2280095,6.77096856 8.14464786,6.63117564 C8.06128621,6.49138272 7.9079867,6.40855322 7.74537129,6.41544191 L6.63378546,6.41544191 L7.27453529,5.77389809 C7.44664988,5.6017835 7.44664988,5.32273062 7.27453529,5.15061603 C7.10242071,4.97850145 6.82336782,4.97850145 6.65125324,5.15061603 L5.97397987,5.82868339 L5.2967065,5.15061603 C5.18536788,5.03927742 5.02308831,4.99579474 4.87099694,5.0365475 C4.71890556,5.07730026 4.60010867,5.19609715 4.55935591,5.34818853 C4.51860315,5.50027991 4.56208583,5.66255947 4.67342444,5.77389809 L5.31417428,6.41544191 L4.18591465,6.41544191 C3.94873301,6.42548937 3.76161975,6.62069691 3.76161975,6.85809127 C3.76161975,7.09548564 3.94873301,7.29069318 4.18591465,7.30074063 L5.52299361,7.30074063 L5.52299361,8.08679061 L4.18591465,8.08679061 C3.94873301,8.09683807 3.76161975,8.29204561 3.76161975,8.52943997 C3.76161975,8.76683434 3.94873301,8.96204188 4.18591465,8.97208933 L4.18591465,8.97208933 Z" id="路径"></path>
            </g>
        </g>
    </g>
</svg>