<?xml version="1.0" encoding="UTF-8"?>
<svg width="26px" height="27px" viewBox="0 0 26 27" version="1.1" xmlns="http://www.w3.org/2000/svg" xmlns:xlink="http://www.w3.org/1999/xlink">
    <title>形状结合</title>
    <g id="定稿" stroke="none" stroke-width="1" fill="none" fill-rule="evenodd">
        <g id="34消费情况-校内商户-超市消费" transform="translate(-519.000000, -666.000000)" fill="#FFFFFF" fill-rule="nonzero">
            <g id="编组-5" transform="translate(499.000000, 645.000000)">
                <path d="M32.8479789,21.0071294 C32.8479789,21.0071294 32.9513681,21.0020879 33.1317491,21.0003908 L33.3368164,21.0001192 C34.82386,21.0096376 39.1920505,21.2785635 39.1920505,24.1099068 C39.1920505,24.1099068 39.1781988,25.693616 37.3682454,27.5035695 C41.7684638,29.2996713 45.5453565,33.4136216 45.6884906,37.6984094 C45.9655243,46.0140374 38.4671457,47.1083205 32.8433617,47.1083205 C27.2195778,47.1083205 19.7304336,45.8339655 20.0074673,37.5183375 C20.1506014,33.2243152 23.8813218,29.2027095 28.3046264,27.4620144 C26.9311549,26.1735 26.6052504,24.8904133 26.5279395,24.361792 L26.5128853,24.2414978 C26.5041639,24.1563356 26.5039074,24.1099068 26.5039074,24.1099068 C26.5039074,21.2785635 30.8720979,21.0096376 32.3591415,21.0001192 L32.5642088,21.0003908 C32.7445898,21.0020879 32.8479789,21.0071294 32.8479789,21.0071294 Z M35.4243923,31.4328307 L32.8849168,33.8245549 L30.3454413,31.4328307 C29.9483596,31.0588352 29.3296511,31.0773041 28.9510383,31.4743858 C28.5770429,31.8714674 28.5955118,32.4947932 28.9925934,32.8687887 L31.0426427,34.7987901 L28.8725455,34.7987901 C28.3277125,34.7987901 27.8890759,35.2374267 27.8890759,35.7822597 C27.8890759,36.3270926 28.3277125,36.7657293 28.8725455,36.7657293 L31.8645093,36.7657293 L31.8645093,38.5156588 L28.8725455,38.5156588 C28.3277125,38.5156588 27.8890759,38.9589127 27.8890759,39.4991284 C27.8890759,40.0439613 28.3277125,40.482598 28.8725455,40.482598 L31.8645093,40.482598 L31.8645093,42.9851357 C31.8645093,43.5299686 32.303146,43.9686053 32.8479789,43.9686053 C33.3928119,43.9686053 33.8314486,43.5299686 33.8314486,42.9851357 L33.8314486,40.482598 L36.8234124,40.482598 C37.3682454,40.482598 37.806882,40.0439613 37.806882,39.4991284 C37.806882,38.9542955 37.3682454,38.5156588 36.8234124,38.5156588 L33.8314486,38.5156588 L33.8314486,36.7657293 L36.8280297,36.7657293 C37.3728626,36.7657293 37.8114993,36.3270926 37.8114993,35.7822597 C37.8114993,35.2374267 37.3728626,34.7987901 36.8280297,34.7987901 L34.7225736,34.7987901 L36.7772402,32.8687887 C37.1743218,32.4947932 37.1927907,31.8714674 36.8187952,31.4743858 C36.4447997,31.0773041 35.8214739,31.0588352 35.4243923,31.4328307 Z" id="形状结合"></path>
            </g>
        </g>
    </g>
</svg>