<?xml version="1.0" encoding="UTF-8"?>
<svg width="18px" height="18px" viewBox="0 0 18 18" version="1.1" xmlns="http://www.w3.org/2000/svg" xmlns:xlink="http://www.w3.org/1999/xlink">
    <title>编组 3</title>
    <g id="页面-1" stroke="none" stroke-width="1" fill-rule="evenodd">
        <g id="关注群体-作息不规律行为分析" transform="translate(-124.000000, -480.000000)" fill-rule="nonzero">
            <g id="编组" transform="translate(124.000000, 480.000000)">
                <path d="M8.79999999,0 C8.47999999,0 8.16,0.24 8.16,0.640000013 L8.16,3.68000001 C8.16,4 8.4,4.32 8.79999999,4.32 C9.19999999,4.32 9.43999999,4.08 9.43999999,3.68000001 L9.43999999,0.640000013 C9.43999999,0.320000006 9.11999998,0 8.79999999,0 Z M8.79999999,9.44000001 C8.47999999,9.44000001 8.16,9.68000001 8.16,10.08 L8.16,12.32 C8.16,12.64 8.4,12.96 8.79999999,12.96 C9.19999999,12.96 9.43999999,12.72 9.43999999,12.32 L9.43999999,10.08 C9.43999999,9.68000001 9.11999998,9.44000001 8.79999999,9.44000001 Z M8.79999999,5.12000001 C8.47999999,5.12000001 8.16,5.36000001 8.16,5.76 L8.16,8.00000001 C8.16,8.32000001 8.4,8.64 8.79999999,8.64 C9.19999999,8.64 9.43999999,8.4 9.43999999,8.00000001 L9.43999999,5.68000001 C9.43999999,5.36000001 9.11999998,5.12000001 8.79999999,5.12000001 Z M8.79999999,13.68 C8.47999999,13.68 8.16,13.92 8.16,14.32 L8.16,17.36 C8.16,17.68 8.4,18 8.79999999,18 C9.19999999,18 9.43999999,17.76 9.43999999,17.36 L9.43999999,14.32 C9.43999999,13.92 9.11999998,13.68 8.79999999,13.68 Z M1.76300641,1.60658844 L6.39999999,1.60658844 C6.87999999,1.60658844 7.2,1.32285473 7.2,0.842854725 C7.2,0.362854725 6.87999999,0.160000012 6.39999999,0.160000012 L2,0.160000012 C0.879999994,0.160000012 0,1.04000001 0,2.16000001 L0,15.76 C0,16.88 0.879999994,17.76 2,17.76 L6.39999999,17.76 C6.87999999,17.76 7.2,17.5714963 7.2,17.0914963 C7.2,16.6114964 6.87999999,16.3430775 6.39999999,16.3430775 L1.76300641,16.3430775 C1.52300641,16.3430775 1.36300642,16.1830775 1.36300642,15.9430775 L1.36300642,2.00658844 C1.36300642,1.76658844 1.52300641,1.60658844 1.76300641,1.60658844 Z M15.9369936,1.60658844 L11.3,1.60658844 C10.82,1.60658844 10.5,1.32285473 10.5,0.842854725 C10.5,0.362854725 10.82,0.160000012 11.3,0.160000012 L15.7,0.160000012 C16.82,0.160000012 17.7,1.04000001 17.7,2.16000001 L17.7,15.76 C17.7,16.88 16.82,17.76 15.7,17.76 L11.3,17.76 C10.82,17.76 10.5,17.5714963 10.5,17.0914963 C10.5,16.6114964 10.82,16.3430775 11.3,16.3430775 L15.9369936,16.3430775 C16.1769936,16.3430775 16.3369936,16.1830775 16.3369936,15.9430775 L16.3369936,2.00658844 C16.3369936,1.76658844 16.1769936,1.60658844 15.9369936,1.60658844 Z" id="形状"></path>
            </g>
        </g>
    </g>
</svg>