<?xml version="1.0" encoding="UTF-8"?>
<svg width="64px" height="64px" viewBox="0 0 64 64" version="1.1" xmlns="http://www.w3.org/2000/svg" xmlns:xlink="http://www.w3.org/1999/xlink">
    <title>编组 5</title>
    <g id="页面-1" stroke="none" stroke-width="1" fill="none" fill-rule="evenodd">
        <g id="关注群体-挂科人群行为分析" transform="translate(-603.000000, -233.000000)">
            <g id="编组-5" transform="translate(603.000000, 233.000000)">
                <circle id="椭圆形" fill="#F39704" opacity="0.130417597" cx="32" cy="32" r="32"></circle>
                <circle id="椭圆形" fill="#F39704" cx="32" cy="32" r="25.6"></circle>
                <g id="编组" transform="translate(13.866667, 21.333333)" fill="#FFFFFF" fill-rule="nonzero">
                    <path d="M29.1666667,21.3333333 C29.1666667,21.3333333 29.1666667,17.4414414 28.4666667,16.5765766 C28,15.9279279 27.5333333,15.2792793 26.6,14.8468468 C26.6,14.4144144 26.6,13.7657658 26.6,13.7657658 C26.6,13.7657658 26.1333333,13.3333333 25.6666667,12.2522523 C24.9666667,12.036036 24.9666667,11.8198198 24.9666667,11.3873874 C24.9666667,11.3873874 24.7333333,9.87387387 25.2,9.87387387 C25.2,9.87387387 25.4333333,9.65765766 25.4333333,9.44144144 C25.4333333,8.79279279 25.2,7.92792793 25.4333333,7.4954955 C25.4333333,7.06306306 25.2,6.1981982 26.1333333,5.98198198 C27.0666667,5.76576577 26.6,5.98198198 27.0666667,5.76576577 C27.3,5.76576577 27.3,5.54954955 27.7666667,5.54954955 L28.9333333,5.33333333 C29.4,5.33333333 29.8666667,5.76576577 30.1,5.98198198 C30.3333333,5.98198198 29.8666667,5.76576577 30.5666667,5.98198198 C31.5,6.1981982 31.2666667,7.27927928 31.2666667,7.71171171 C31.2666667,8.14414414 31.2666667,9.22522523 31.2666667,9.65765766 C31.2666667,10.0900901 31.7333333,9.87387387 31.7333333,9.87387387 C32.2,9.65765766 31.9666667,11.3873874 31.9666667,11.3873874 C31.9666667,11.8198198 32.2,11.8198198 31.7333333,12.2522523 C31.2666667,13.1171171 30.3333333,13.7657658 30.3333333,13.7657658 C30.3333333,13.7657658 30.3333333,14.6306306 30.3333333,14.6306306 C30.3333333,14.6306306 29.8666667,15.9279279 32.4333333,16.1441441 C35,16.5765766 35.2333333,17.2252252 35.7,17.6576577 C37.1,18.5225225 37.3333333,21.1171171 37.3333333,21.1171171 C37.3333333,21.1171171 32.4333333,21.3333333 29.1666667,21.3333333 Z M11.6666667,12.2522523 C11.2,13.1171171 10.5,13.7657658 10.5,13.7657658 C10.5,13.7657658 10.5,14.4144144 10.5,14.8468468 C9.56666667,15.2792793 9.33333333,15.9279279 8.86666667,16.5765766 C8.16666667,18.3063063 8.16666667,21.3333333 8.16666667,21.3333333 C4.9,21.3333333 0,21.3333333 0,21.3333333 C0,21.3333333 0,18.7387387 1.63333333,17.8738739 C2.1,17.4414414 2.56666667,16.7927928 4.9,16.3603604 C7.23333333,15.9279279 7,14.8468468 7,14.6306306 C7,14.4144144 7,13.7657658 7,13.7657658 C7,13.7657658 6.06666667,13.1171171 5.6,12.036036 C5.13333333,11.8198198 5.13333333,11.6036036 5.13333333,11.1711712 C5.13333333,11.1711712 5.13333333,9.87387387 5.6,9.87387387 C5.6,9.87387387 5.83333333,9.87387387 5.83333333,9.65765766 C5.83333333,9.22522523 5.83333333,8.14414414 5.83333333,7.71171171 C5.83333333,7.27927928 5.83333333,6.1981982 6.53333333,5.98198198 C7.23333333,5.98198198 6.53333333,5.98198198 7,5.98198198 C7.23333333,5.98198198 7.7,5.33333333 8.16666667,5.33333333 L9.33333333,5.54954955 C9.8,5.54954955 9.8,5.76576577 10.0333333,5.76576577 C10.2666667,5.76576577 10.0333333,5.76576577 10.9666667,5.98198198 C11.9,5.98198198 11.6666667,6.84684685 11.6666667,7.27927928 C11.6666667,7.71171171 11.6666667,8.57657658 11.6666667,9.22522523 C11.6666667,9.65765766 12.1333333,9.65765766 12.1333333,9.65765766 C12.6,9.65765766 12.3666667,11.1711712 12.3666667,11.1711712 C12.1333333,11.6036036 12.3666667,11.8198198 11.6666667,12.2522523 Z" id="形状" opacity="0.632370722"></path>
                    <path d="M22.9045908,9.6969697 C22.4255489,10.989899 20.7489022,11.6363636 20.7489022,11.6363636 C20.7489022,11.6363636 20.7489022,12.7138047 20.7489022,12.9292929 C20.7489022,12.9292929 20.2698603,14.6531987 23.1441118,15.0841751 C26.4974052,15.5151515 26.7369261,16.3771044 27.2159681,17.023569 C27.9345309,17.4545455 27.69501,21.3333333 27.69501,21.3333333 L8.53333333,21.3333333 C8.53333333,21.3333333 8.53333333,17.8855219 9.01237525,17.023569 C9.01237525,16.8080808 9.73093812,15.5151515 13.0842315,15.0841751 C16.437525,14.4377104 15.7189621,12.9292929 15.958483,12.9292929 C15.958483,12.2828283 15.958483,11.4208754 15.958483,11.4208754 C15.958483,11.4208754 14.0423154,10.989899 13.5632735,9.6969697 C12.3656687,9.26599327 12.6051896,9.05050505 12.3656687,8.61952862 C12.3656687,8.61952862 12.1261477,6.46464646 12.8447106,6.46464646 C12.8447106,6.46464646 13.5632735,6.46464646 13.5632735,6.03367003 C13.5632735,5.17171717 13.5632735,3.87878788 13.8027944,3.23232323 C13.8027944,2.8013468 14.2818363,1.29292929 15.4794411,1.07744108 C16.6770459,0.861952862 16.198004,1.07744108 16.6770459,0.861952862 C17.1560878,0.861952862 16.9165669,0.646464646 17.6351297,0.646464646 L19.0722555,0 C19.7908184,0 20.2698603,1.29292929 20.7489022,1.29292929 C21.2279441,1.29292929 21.2279441,1.07744108 21.946507,1.29292929 C23.1441118,1.72390572 23.1441118,3.23232323 23.1441118,3.66329966 C23.1441118,4.30976431 23.1441118,5.81818182 23.1441118,6.24915825 C23.1441118,6.68013468 23.3836327,6.68013468 23.3836327,6.68013468 C24.3417166,6.68013468 24.1021956,8.61952862 24.1021956,8.61952862 C24.1021956,9.05050505 23.6231537,9.05050505 22.9045908,9.6969697 Z" id="路径"></path>
                </g>
            </g>
        </g>
    </g>
</svg>