<?xml version="1.0" encoding="UTF-8"?>
<svg width="13px" height="13px" viewBox="0 0 13 13" version="1.1" xmlns="http://www.w3.org/2000/svg" xmlns:xlink="http://www.w3.org/1999/xlink">
    <title>编组 7</title>
    <g id="页面-1" stroke="none" stroke-width="1" fill="none" fill-rule="evenodd">
        <g id="关注群体-作息不规律行为分析" transform="translate(-364.000000, -909.000000)" fill="#B22924" fill-rule="nonzero">
            <g id="编组" transform="translate(364.000000, 909.000000)">
                <path d="M6.5,13 C2.91561918,13 0,10.0843808 0,6.5 C0,2.91561918 2.9163757,0 6.5,0 C10.0836243,0 13,2.9163757 13,6.5 C13,10.0836243 10.0843808,13 6.5,13 Z M6.5,0.907064711 C3.41643389,0.907064711 0.907821229,3.41567737 0.907821229,6.49924348 C0.907821229,9.58280959 3.41643389,12.0914223 6.5,12.0914223 C9.58356611,12.0914223 12.0921788,9.58280959 12.0921788,6.49924348 C12.0921788,3.41567737 9.58356611,0.907064711 6.5,0.907064711 Z" id="形状"></path>
                <path d="M5.00966015,9.07745577 C4.88029562,9.07745577 4.75244413,9.03736034 4.64274907,8.95716946 C4.44970126,8.8177884 4.35307931,8.58049196 4.39385475,8.34590317 L4.62307961,7.01140596 L3.65398045,6.06651536 C3.48271712,5.90094284 3.42128494,5.65198086 3.49586825,5.42574488 C3.57000698,5.19803305 3.76291899,5.03462523 4.00046555,5.00058194 L5.3410149,4.80615689 L5.94017691,3.591946 C6.04608939,3.37709497 6.26094041,3.24394786 6.50075652,3.24394786 C6.74057263,3.24394786 6.95466713,3.37709497 7.06133613,3.591946 L7.66049814,4.80615689 L9.00029097,5.00058194 C9.23783752,5.03538175 9.43074953,5.19803305 9.50488827,5.42574488 C9.579027,5.6534567 9.51850559,5.89932495 9.34677607,6.06651536 L8.37692039,7.01140596 L8.60614525,8.34590317 C8.64763632,8.58056851 8.5508643,8.81823353 8.35725093,8.95716946 C8.16505796,9.09769714 7.90951452,9.11620201 7.69908054,9.00483007 L6.50075652,8.37465084 L5.3024325,9.00483007 C5.2086243,9.05324721 5.10876397,9.07745577 5.00966015,9.07745577 L5.00966015,9.07745577 Z" id="形状"></path>
            </g>
        </g>
    </g>
</svg>