<?xml version="1.0" encoding="UTF-8"?>
<svg width="21px" height="20px" viewBox="0 0 21 20" version="1.1" xmlns="http://www.w3.org/2000/svg" xmlns:xlink="http://www.w3.org/1999/xlink">
    <title>编组</title>
    <g id="学生群像定稿" stroke="none" stroke-width="1" fill-rule="evenodd">
        <g id="45毕业就业-创新创业-考研情况-考研人数" transform="translate(-604.000000, -525.000000)" fill-rule="nonzero" stroke="#666666" stroke-width="0.1">
            <g id="编组" transform="translate(605.000000, 526.000000)">
                <path d="M9.7533845,5.25834642 C12.2129336,5.25834642 14.2060165,7.25142933 14.2060165,9.71097846 C14.2060165,12.1705276 12.2129336,14.1636105 9.7533845,14.1636105 C7.29383537,14.1636105 5.30075246,12.1705276 5.30075246,9.71097846 C5.30075246,7.25142933 7.29383537,5.25834642 9.7533845,5.25834642 M9.7533845,4.41022603 C6.82736915,4.41022603 4.45263206,6.78496313 4.45263206,9.71097846 C4.45263206,12.6369938 6.82736915,15.0117309 9.7533845,15.0117309 C12.6793999,15.0117309 15.0541369,12.6369938 15.0541369,9.71097846 C15.0541369,6.78496311 12.6793999,4.41022603 9.7533845,4.41022603 Z M2.54436118,9.41413632 L0.424060209,9.41413632 C0.169624103,9.41413632 0,9.24451224 0,8.99007613 C0,8.73564003 0.169624079,8.56601592 0.424060209,8.56601592 L2.54436118,8.56601592 C2.79879729,8.56601592 2.96842137,8.73564 2.96842137,8.99007613 C2.96842137,9.24451226 2.79879729,9.41413632 2.54436118,9.41413632 Z M19.0827088,9.41413632 L16.9624078,9.41413632 C16.7079717,9.41413632 16.5383476,9.24451224 16.5383476,8.99007613 C16.5383476,8.73564003 16.7079717,8.56601592 16.9624078,8.56601592 L19.0827088,8.56601592 C19.3371449,8.56601592 19.506769,8.73564 19.506769,8.99007613 C19.506769,9.24451226 19.2947389,9.41413632 19.0827088,9.41413632 Z M9.88060257,2.96842137 C9.62616646,2.96842137 9.45654236,2.79879729 9.45654236,2.54436116 L9.45654236,0.424060185 C9.45654236,0.169624079 9.62616643,0 9.88060257,0 C10.1350387,0 10.3046628,0.169624079 10.3046628,0.424060185 L10.3046628,2.54436116 C10.3046628,2.75639125 10.0926327,2.96842137 9.88060257,2.96842137 Z M4.36782001,4.91909826 C4.24060195,4.91909826 4.15578992,4.87669225 4.07097789,4.7918802 L2.62917321,3.22285747 C2.45954913,3.0532334 2.45954913,2.79879729 2.67157925,2.62917321 C2.84120333,2.45954913 3.09563943,2.45954913 3.26526351,2.67157922 L4.66466216,4.19819593 C4.83428624,4.36782001 4.83428624,4.62225612 4.62225614,4.7918802 C4.57985013,4.87669223 4.45263206,4.91909826 4.36782001,4.91909826 L4.36782001,4.91909826 Z M14.9693249,4.83428621 C14.8421068,4.83428621 14.7572948,4.7918802 14.6724828,4.70706817 C14.5028587,4.53744409 14.5452647,4.28300799 14.7148888,4.11338388 L16.2839115,2.67157922 C16.4535356,2.50195515 16.7079717,2.50195515 16.8775958,2.71398524 C17.0472199,2.88360932 17.0048139,3.13804542 16.8351898,3.30766953 L15.266167,4.74947418 C15.181355,4.7918802 15.0965429,4.83428621 14.9693249,4.83428621 L14.9693249,4.83428621 Z M13.9939864,16.301656 L5.51278255,16.301656 C5.25834645,16.301656 5.08872234,16.1320319 5.08872234,15.8775958 C5.08872234,15.6231597 5.25834642,15.4535356 5.51278255,15.4535356 L13.9939864,15.4535356 C14.2484226,15.4535356 14.4180467,15.6231596 14.4180467,15.8775958 C14.4180467,16.1320319 14.2484226,16.301656 13.9939864,16.301656 Z M11.8736855,18.464363 L7.63308353,18.464363 C7.37864742,18.464363 7.20902334,18.2947389 7.20902334,18.0403028 C7.20902334,17.7858666 7.37864742,17.6162426 7.63308353,17.6162426 L11.8736855,17.6162426 C12.1281216,17.6162426 12.2977457,17.7858666 12.2977457,18.0403028 C12.2977457,18.2947389 12.1281216,18.464363 11.8736855,18.464363 Z M6.57293304,10.2622567 C6.31849693,10.2622567 6.14887283,10.0926326 6.14887283,9.83819653 C6.14887283,7.71789555 7.84511362,6.02165476 9.96541459,6.02165476 C10.2198507,6.02165476 10.3894748,6.19127884 10.3894748,6.44571495 C10.3894748,6.70015106 10.2198507,6.86977514 9.96541459,6.86977516 C8.31157984,6.86977516 6.99699322,8.18436175 6.99699322,9.83819653 C6.99699322,10.0502266 6.82736915,10.2622567 6.57293304,10.2622567 L6.57293304,10.2622567 Z" id="形状"></path>
            </g>
        </g>
    </g>
</svg>