<?xml version="1.0" encoding="UTF-8"?>
<svg width="16px" height="14px" viewBox="0 0 17 15" version="1.1" xmlns="http://www.w3.org/2000/svg" xmlns:xlink="http://www.w3.org/1999/xlink">
    <title>编组</title>
    <g id="页面-1" stroke="none" stroke-width="1" fill-rule="evenodd">
        <g id="关注群体-自定义人群" transform="translate(-1659.000000, -509.000000)" fill-rule="nonzero">
            <g id="编组" transform="translate(1659.000000, 509.000000)">
                <path d="M15.719697,3.93939395 L0.568181818,3.93939395 C0.265151509,3.93939395 0,3.67424244 0,3.37121213 C0,3.06818182 0.265151509,2.80303031 0.568181818,2.80303031 L15.719697,2.80303031 C16.0227273,2.80303031 16.2878788,3.06818182 16.2878788,3.37121213 C16.2878788,3.67424244 16.0227273,3.93939395 15.719697,3.93939395 Z M6.40151516,12.3863636 C6.09848485,12.3863636 5.83333335,12.1212121 5.83333335,11.8181818 L5.83333335,5.90909091 C5.83333335,5.6060606 6.09848485,5.34090909 6.40151516,5.34090909 C6.70454547,5.34090909 6.96969698,5.6060606 6.96969698,5.90909091 L6.96969698,11.8181818 C6.96969698,12.1212121 6.74242425,12.3863636 6.40151516,12.3863636 Z M10.1136364,12.3863636 C9.81060605,12.3863636 9.54545455,12.1212121 9.54545455,11.8181818 L9.54545455,5.90909091 C9.54545455,5.6060606 9.81060605,5.34090909 10.1136364,5.34090909 C10.4166667,5.34090909 10.6818182,5.6060606 10.6818182,5.90909091 L10.6818182,11.8181818 C10.6818182,12.1212121 10.4166667,12.3863636 10.1136364,12.3863636 Z" id="形状"></path>
                <path d="M12.4242424,15 L4.09090909,15 C3.1439394,15 2.38636364,14.2424242 2.38636364,13.2954545 L2.38636364,5.22727273 C2.38636364,4.92424242 2.65151515,4.65909091 2.95454545,4.65909091 C3.25757576,4.65909091 3.52272727,4.92424242 3.52272727,5.22727273 L3.52272727,13.3333333 C3.52272727,13.6363637 3.78787878,13.9015152 4.09090909,13.9015152 L12.4242424,13.9015152 C12.7272727,13.9015152 12.9924243,13.6363637 12.9924243,13.3333333 L12.9924243,5.22727273 C12.9924243,4.92424242 13.2575758,4.65909091 13.5606061,4.65909091 C13.8636364,4.65909091 14.1287879,4.92424242 14.1287879,5.22727273 L14.1287879,13.3333333 C14.1287879,14.2424243 13.3712121,15 12.4242424,15 Z" id="路径"></path>
                <path d="M12.4242424,3.48484849 C12.1212121,3.48484849 11.8560606,3.21969698 11.8560606,2.91666667 C11.8560606,1.93181818 11.0606061,1.13636364 10.0757576,1.13636364 L6.40151516,1.13636364 C5.41666667,1.13636364 4.62121213,1.93181818 4.62121213,2.91666667 C4.62121213,3.21969698 4.35606062,3.48484849 4.05303031,3.48484849 C3.75,3.48484849 3.48484849,3.21969698 3.48484849,2.91666667 C3.48484849,1.32575758 4.77272727,6.45947942e-16 6.40151516,6.45947942e-16 L10.0757576,6.45947942e-16 C11.6666667,6.45947942e-16 12.9924243,1.28787878 12.9924243,2.91666667 C12.9924243,3.21969698 12.7272727,3.48484849 12.4242424,3.48484849 L12.4242424,3.48484849 Z" id="路径"></path>
            </g>
        </g>
    </g>
</svg>