<?xml version="1.0" encoding="UTF-8"?>
<svg width="17px" height="17px" viewBox="0 0 17 17" version="1.1" xmlns="http://www.w3.org/2000/svg" xmlns:xlink="http://www.w3.org/1999/xlink">
    <title>编组备份</title>
    <g id="页面-1" stroke="none" stroke-width="1" fill-rule="evenodd">
        <g id="关注群体-重点名单备份" transform="translate(-577.000000, -426.000000)" fill-rule="nonzero" stroke="#005DA7" stroke-width="0.3">
            <g id="编组备份" transform="translate(578.000000, 427.000000)">
                <path d="M8.62433196,0 C8.86150968,0 9.05400175,0.192492064 9.05400175,0.429669787 C9.05400175,0.666847509 8.86150968,0.859339573 8.62433196,0.859339573 L3.00768851,0.859339573 C1.82351857,0.859339573 0.859339573,1.82351857 0.859339573,3.00768851 L0.859339573,12.577294 C0.859339573,13.7614639 1.82351857,14.7256429 3.00768851,14.7256429 L12.1407495,14.7256429 C13.3249194,14.7256429 14.2890984,13.7614639 14.2890984,12.577294 L14.2890984,6.96065054 C14.2890984,6.72347282 14.4815905,6.53098076 14.7187682,6.53098076 C14.9576646,6.53098076 15.148438,6.72347282 15.148438,6.96065054 L15.148438,12.577294 C15.148438,14.2358194 13.7992749,15.5849825 12.1407495,15.5849825 L3.00768851,15.5849825 C1.34916313,15.5849825 0,14.2358194 0,12.577294 L0,3.00768851 C0,1.34916313 1.34916313,0 3.00768851,0 Z M10.38357,4.34546456 C10.4626292,4.34890192 10.5416885,4.37640079 10.608717,4.4245238 C10.613873,4.42796116 10.619029,4.43139852 10.6224664,4.43483588 L10.6379345,4.44686663 C10.6482466,4.45546003 10.6499653,4.45889739 10.6534026,4.46061606 C10.6585587,4.46749078 10.6585587,4.46920946 10.6602773,4.46920946 L10.6688707,4.47608418 C10.6705894,4.47952153 10.6740268,4.48124021 10.6757454,4.48467757 C10.6774641,4.48811493 10.6809015,4.48983361 10.6826202,4.49327097 C10.6929322,4.50358304 10.6946509,4.5070204 10.6980883,4.51045776 L10.7118377,4.52764455 L10.7255871,4.54655002 C10.7307432,4.55514342 10.7341805,4.56029945 10.7376179,4.56545549 C10.7410553,4.57233021 10.7427739,4.57920493 10.7462113,4.58436096 L10.7548047,4.60498511 C10.7565234,4.61357851 10.7599607,4.61873455 10.7616794,4.62560926 C10.7651168,4.63248398 10.7668354,4.6393587 10.7685541,4.64451473 C10.7719915,4.65482681 10.7737102,4.65998285 10.7754288,4.66513888 C10.7788662,4.67373228 10.7788662,4.67888832 10.7805849,4.68404435 C10.7840222,4.69435643 10.7857409,4.69779379 10.7857409,4.70294982 L10.7891783,4.72185529 C10.7926156,4.73388605 10.7926156,4.73904209 10.7926156,4.74247944 L10.7926156,4.76997831 L10.8459404,9.40869333 C10.849332,9.64587105 10.6585587,9.84008179 10.4213809,9.84351915 C10.1824845,9.84523783 9.98999247,9.65618313 9.98655511,9.4190054 L9.94530681,5.79774844 L4.57099712,11.151434 C4.40256656,11.3181459 4.12929658,11.3181459 3.9625847,11.1497153 C3.79587283,10.9812847 3.79587283,10.7080148 3.96430338,10.5413029 L9.29908345,5.22542828 L5.71048139,5.29417545 C5.46814764,5.29417545 5.27737425,5.10683942 5.27221821,4.87309906 C5.26706217,4.63592134 5.45611688,4.43999191 5.6932946,4.43483588 L10.3509151,4.34546456 Z" id="路径-5"></path>
            </g>
        </g>
    </g>
</svg>