<?xml version="1.0" encoding="UTF-8"?>
<svg width="14px" height="14px" viewBox="0 0 15 15" version="1.1" xmlns="http://www.w3.org/2000/svg" xmlns:xlink="http://www.w3.org/1999/xlink">
    <title>编组</title>
    <g id="页面-1" stroke="none" stroke-width="1" fill-rule="evenodd">
        <g id="关注群体-自定义人群" transform="translate(-1659.000000, -477.000000)" fill-rule="nonzero">
            <g id="编组" transform="translate(1659.000000, 477.000000)">
                <path d="M14.4132527,5.32514808 C14.0874877,5.32514808 13.8265054,5.58983218 13.8265054,5.91189536 L13.8265054,12.9436081 C13.8265054,13.4304047 13.4304047,13.8265054 12.9436081,13.8265054 L2.05639191,13.8265054 C1.56959526,13.8265054 1.17349457,13.4304047 1.17349457,12.9436081 L1.17349457,2.05639191 C1.17349457,1.56959526 1.56959526,1.17349457 2.05639191,1.17349457 L9.08810464,1.17349457 C9.41386969,1.17349457 9.67485192,0.908810464 9.67485192,0.586747285 C9.67485192,0.260982231 9.41016782,0 9.08810464,0 L2.05639191,0 C0.923617966,0 0,0.923617966 0,2.05639191 L0,12.9417572 C0,14.076382 0.923617966,15 2.05639191,15 L12.9436081,15 C14.078233,15 15,14.076382 15,12.9436081 L15,5.9137463 C15.0018509,5.58798124 14.7371668,5.32514808 14.4132527,5.32514808 Z M7.08538993,7.91646101 C7.20014808,8.03121915 7.35192498,8.08859822 7.50185094,8.08859822 C7.6517769,8.08859822 7.80170286,8.03121915 7.91831194,7.91646101 L14.8315647,1.00320829 C15.0610809,0.773692004 15.0610809,0.401653504 14.8315647,0.172137216 C14.6020484,-0.0573790721 14.2300099,-0.0573790721 14.0004936,0.172137216 L7.08538993,7.08538993 C6.8540227,7.31490622 6.8540227,7.68694472 7.08538993,7.91646101 L7.08538993,7.91646101 Z" id="形状"></path>
            </g>
        </g>
    </g>
</svg>