<?xml version="1.0" encoding="UTF-8"?>
<svg width="15px" height="15px" viewBox="0 0 15 15" version="1.1" xmlns="http://www.w3.org/2000/svg" xmlns:xlink="http://www.w3.org/1999/xlink">
    <title>编组</title>
    <g id="页面-1" stroke="none" stroke-width="1" fill="none" fill-rule="evenodd">
        <g id="新建标签步骤3" transform="translate(-996.000000, -768.000000)" fill="currentColor" fill-rule="nonzero">
            <g id="编组" transform="translate(996.000000, 768.000000)">
                <path d="M12.8823529,0 C14.0518971,0 15,1.0745166 15,2.4 L15,12.6 C15,13.9254834 14.0518971,15 12.8823529,15 L2.11764706,15 C0.948102883,15 0,13.9254834 0,12.6 L0,2.4 C0,1.0745166 0.948102883,0 2.11764706,0 L12.8823529,0 L12.8823529,0 Z M12.8823529,1.5 L2.11764706,1.5 C1.71757775,1.5 1.3799368,1.83717614 1.32970588,2.287 L1.32352941,2.4 L1.32352941,12.6 C1.32352941,13.0534119 1.62103777,13.4360716 2.01794118,13.493 L2.11764706,13.5 L12.8823529,13.5 C13.2824223,13.5 13.6200632,13.1628239 13.6702941,12.713 L13.6764706,12.6 L13.6764706,2.4 C13.6764706,1.94658811 13.3789622,1.56392838 12.9820588,1.507 L12.8823529,1.5 Z M7.5,4.35 C7.84789778,4.35012085 8.13631019,4.65551278 8.16002288,5.04888001 C8.18373557,5.44224724 7.93465077,5.7892565 7.59,5.843 L7.5,5.85 L6.13235294,5.849 L6.13235294,10.45 C6.13224631,10.8442842 5.86278284,11.1711515 5.51569411,11.1980259 C5.16860538,11.2249003 4.86242073,10.9426042 4.815,10.552 L4.80882353,10.45 L4.80882353,5.849 L3.44117647,5.85 C3.09327869,5.84987915 2.80486629,5.54448722 2.78115359,5.15111999 C2.7574409,4.75775276 3.0065257,4.4107435 3.35117647,4.357 L3.44117647,4.35 L7.5,4.35 Z M11.5438235,9.35 C11.8915533,9.35064258 12.1795302,9.6561823 12.2030001,10.0493779 C12.2264701,10.4425736 11.9774264,10.7892861 11.6329412,10.843 L11.5438235,10.85 L9.77911765,10.85 C9.43121986,10.8498792 9.14280746,10.5444872 9.11909477,10.15112 C9.09538208,9.75775276 9.34446688,9.4107435 9.68911765,9.357 L9.77911765,9.35 L11.5438235,9.35 L11.5438235,9.35 Z M11.5438235,6.959 C11.8915533,6.95964258 12.1795302,7.2651823 12.2030001,7.65837793 C12.2264701,8.05157356 11.9774264,8.39828606 11.6329412,8.452 L11.5438235,8.459 L9.77911765,8.459 C9.43121986,8.45887915 9.14280746,8.15348722 9.11909477,7.76011999 C9.09538208,7.36675276 9.34446688,7.0197435 9.68911765,6.966 L9.77911765,6.959 L11.5438235,6.959 L11.5438235,6.959 Z M11.5438235,4.567 C11.8941947,4.56353389 12.186224,4.87018599 12.2098574,5.26638409 C12.2334908,5.66258218 11.9805359,6.01098965 11.6329412,6.061 L11.5438235,6.067 L9.77911765,6.067 C9.43121986,6.06687915 9.14280746,5.76148722 9.11909477,5.36811999 C9.09538208,4.97475276 9.34446688,4.6277435 9.68911765,4.574 L9.77911765,4.567 L11.5438235,4.567 L11.5438235,4.567 Z" id="形状"></path>
            </g>
        </g>
    </g>
</svg>