<?xml version="1.0" encoding="UTF-8"?>
<svg width="16px" height="16px" viewBox="0 0 16 16" version="1.1" xmlns="http://www.w3.org/2000/svg" xmlns:xlink="http://www.w3.org/1999/xlink">
    <title>编组 7</title>
    <defs>
        <linearGradient x1="50%" y1="0%" x2="50%" y2="100%" id="linearGradient-1">
            <stop stop-color="#FFC837" offset="0%"></stop>
            <stop stop-color="#FF7808" offset="100%"></stop>
        </linearGradient>
        <linearGradient x1="50%" y1="0%" x2="50%" y2="100%" id="linearGradient-2">
            <stop stop-color="#FFE400" offset="0%"></stop>
            <stop stop-color="#FFC72F" offset="100%"></stop>
        </linearGradient>
    </defs>
    <g id="页面-1" stroke="none" stroke-width="1" fill="none" fill-rule="evenodd">
        <g id="关注群体-新建自定义人群" transform="translate(-1372.000000, -566.000000)">
            <g id="编组-7" transform="translate(1372.000000, 566.000000)">
                <path d="M12.2069691,0 C14.292038,0 15.9823204,1.69028234 15.9823204,3.77535127 L15.9823204,12.2069691 C15.9823204,14.292038 14.292038,15.9823204 12.2069691,15.9823204 L3.77535127,15.9823204 C1.69028234,15.9823204 0,14.292038 0,12.2069691 L0,3.77535127 C0,1.69028234 1.69028234,0 3.77535127,0 L12.2069691,0 Z" id="矩形" fill="url(#linearGradient-1)"></path>
                <path d="M13.5229668,1.32137295 L2.58519866,1.32137295 C2.40847422,1.32137295 2.26521076,1.46463641 2.26521076,1.64136084 L2.26521076,12.5791289 C2.26521076,12.7558534 2.40847422,12.8991168 2.58519866,12.8991168 L13.5229668,12.8991168 C13.6996912,12.8991168 13.8429547,12.7558534 13.8429547,12.5791289 L13.8429547,1.64136084 C13.8429547,1.46463641 13.6996912,1.32137295 13.5229668,1.32137295 Z" id="矩形" fill="#FFFFFF" fill-rule="nonzero" opacity="0.5"></path>
                <path d="M13.9373384,2.26521076 L2.10790446,2.26521076 C1.91677314,2.26521076 1.76183059,2.42015331 1.76183059,2.61128463 L1.76183059,14.4407186 C1.76183059,14.6318499 1.91677314,14.7867925 2.10790446,14.7867925 L13.9373384,14.7867925 C14.1284698,14.7867925 14.2834123,14.6318499 14.2834123,14.4407186 L14.2834123,2.61128463 C14.2834123,2.42015331 14.1284698,2.26521076 13.9373384,2.26521076 Z" id="矩形" fill="#FFFFFF" fill-rule="nonzero"></path>
                <path d="M5.4025645,3.2719711 C5.61066718,3.2719711 5.80530984,3.37486249 5.92251098,3.54682359 L6.01726344,3.68584729 C6.18944188,3.93847274 6.47261363,4.09210379 6.77731365,4.09944771 L14.2834123,4.09972348 C15.2216933,4.09972348 15.9823204,4.86035053 15.9823204,5.79863155 L15.9823204,12.2246487 C15.9823204,14.3097177 14.292038,16 12.2069691,16 L3.77535127,16 C1.69028234,16 0,14.3097177 0,12.2246487 L0,4.97087918 C0,4.03259816 0.760627053,3.2719711 1.69890807,3.2719711 L5.4025645,3.2719711 Z M13.1822682,10.3998956 L9.97321961,10.3998956 C9.6430837,10.3998956 9.37545566,10.6675236 9.37545566,10.9976596 C9.37545566,11.3277955 9.6430837,11.5954235 9.97321961,11.5954235 L13.1822682,11.5954235 C13.5124041,11.5954235 13.7800321,11.3277955 13.7800321,10.9976596 C13.7800321,10.6675236 13.5124041,10.3998956 13.1822682,10.3998956 Z M13.1822682,7.88299476 L6.63832599,7.88299476 C6.30819007,7.88299476 6.04056204,8.1506228 6.04056204,8.48075872 C6.04056204,8.81089463 6.30819007,9.07852267 6.63832599,9.07852267 L13.1822682,9.07852267 C13.5124041,9.07852267 13.7800321,8.81089463 13.7800321,8.48075872 C13.7800321,8.1506228 13.5124041,7.88299476 13.1822682,7.88299476 Z" id="形状结合" fill="url(#linearGradient-2)"></path>
            </g>
        </g>
    </g>
</svg>