<?xml version="1.0" encoding="UTF-8"?>
<svg width="64px" height="64px" viewBox="0 0 64 64" version="1.1" xmlns="http://www.w3.org/2000/svg" xmlns:xlink="http://www.w3.org/1999/xlink">
    <title>编组 3</title>
    <g id="页面-1" stroke="none" stroke-width="1" fill="none" fill-rule="evenodd">
        <g id="关注群体-挂科人群行为分析" transform="translate(-1445.000000, -233.000000)">
            <g id="编组-3" transform="translate(1445.000000, 233.000000)">
                <circle id="椭圆形" fill="#6477DD" opacity="0.130417597" cx="32" cy="32" r="32"></circle>
                <circle id="椭圆形" fill="#6477DD" cx="31.6" cy="31.6" r="25.6"></circle>
                <g id="编组" transform="translate(20.000000, 20.000000)" fill="#FFFFFF" fill-rule="nonzero">
                    <path d="M10.1994653,18.6708597 L8.49802501,18.6708597 L8.49802501,17.0634766 C11.8718472,16.4547815 14.4266841,13.5038341 14.4266841,9.96636776 C14.4266841,9.00973775 14.2431579,8.0966952 13.9028699,7.26088657 C12.9170757,6.88807194 11.8130013,7.00378279 10.9259229,7.57288101 C11.3732679,8.26339811 11.6332633,9.08467759 11.6332633,9.96636776 C11.6315767,12.4030468 9.65690294,14.3780627 7.22022426,14.3801715 C4.78384423,14.3776412 2.80963589,12.4027485 2.80794995,9.96636776 C2.81020408,8.16507239 3.90534494,6.545353 5.57613591,5.87220544 C6.36899328,4.6287892 7.47156265,3.61291805 8.7756083,2.9243168 C8.2658304,2.8117459 7.74534207,2.7548255 7.22328303,2.75455512 C3.247648,2.75455512 0,5.99073274 0,9.96636776 C0,13.4250708 2.45313275,16.3209604 5.68701629,17.0168303 L5.68701629,18.6716244 L4.10180925,18.6716244 C3.3251483,18.6716244 2.69554019,19.3012325 2.69554019,20.0778934 C2.69554019,20.8545544 3.3251483,21.4841625 4.10180925,21.4841625 L5.68701629,21.4841625 L5.68701629,22.6013779 C5.68701629,23.3729524 6.32018148,24 7.09252065,24 C7.86562452,24 8.49802501,23.3729524 8.49802501,22.6013779 L8.49802501,21.4841625 L10.1994653,21.4841625 C10.9737874,21.4807914 11.5993593,20.8514572 11.5980874,20.0771287 C11.5980874,19.3047896 10.9718045,18.6708597 10.1994653,18.6708597 L10.1994653,18.6708597 Z" id="路径"></path>
                    <path d="M22.0109018,0 C21.9466677,-0.00292514632 17.5405109,0.0475445424 17.5405109,0.0475445424 C16.7567014,0.0567208495 16.1265949,0.824471872 16.1380653,1.61057551 C16.1472416,2.38903222 16.7819362,3.13690125 17.5580988,3.13690125 L17.5764514,3.13690125 L18.3977309,3.00155072 L16.9019929,4.43687808 C15.6838381,3.58959906 14.2416285,3.09637256 12.7283026,3.09637256 C10.7706904,3.09637256 8.93084083,3.84347689 7.54674785,5.22680518 C5.33525785,7.43753048 4.8366785,10.7150015 6.04642165,13.4105417 C6.42440558,13.5403749 6.82132852,13.6065287 7.22098895,13.6063029 C7.89544752,13.6063029 8.55308286,13.4189533 9.12660205,13.0641361 C7.80566201,11.2780729 7.98899564,8.79461726 9.55788848,7.22188727 C10.3967135,6.37795942 11.5384157,5.90486623 12.7283026,5.90814597 C13.9258106,5.90814597 15.0522023,6.37460825 15.8987166,7.22188727 C17.0723336,8.39804936 17.5002457,10.1263032 17.0110008,11.7141865 C16.5217559,13.3020698 15.1953924,14.4898114 13.5633465,14.8015169 C12.7190701,15.9105055 11.5998615,16.7798296 10.3164632,17.3234719 C11.0922244,17.5917874 11.9074508,17.7282615 12.7283026,17.7272433 C14.6730095,17.7310206 16.5385645,16.957377 17.9098573,15.5784442 C20.3935777,13.0939591 20.8034528,9.25520397 18.968956,6.41666632 L20.6589259,4.81693013 L20.6589259,5.81026537 C20.6589259,6.59483962 21.2790913,7.23182826 22.0644303,7.23182826 C22.4398064,7.23102771 22.7993527,7.08050797 23.0633449,6.81364477 C23.3273371,6.54678156 23.473959,6.18562814 23.4707525,5.81026537 L23.4707525,1.41022614 C23.4707525,1.03017409 23.4064652,0.0865438473 22.0109018,0 Z" id="路径" fill-opacity="0.642673733"></path>
                </g>
            </g>
        </g>
    </g>
</svg>