<?xml version="1.0" encoding="UTF-8"?>
<svg width="12px" height="13px" viewBox="0 0 12 13" version="1.1" xmlns="http://www.w3.org/2000/svg" xmlns:xlink="http://www.w3.org/1999/xlink">
    <title>编组</title>
    <g id="页面-1" stroke="none" stroke-width="1" fill="none" fill-rule="evenodd">
        <g id="关注群体-作息不规律行为分析" transform="translate(-364.000000, -995.000000)" fill="#B22924" fill-rule="nonzero">
            <g id="编组" transform="translate(364.000000, 995.000000)">
                <path d="M11.8631303,0.515517042 C11.8105154,0.314093361 11.6420048,0.164023517 11.4358556,0.135000707 C9.85610734,-0.0743132204 8.25359822,-0.0400553057 6.68423845,0.23657922 C4.44951116,0.646117987 2.68559222,1.54420103 1.42311642,2.90664299 C-0.990582533,5.52511133 0.323488706,9.60437542 0.655634321,10.4992338 C0.469483221,11.140795 0.355377162,11.801096 0.31542692,12.4679221 C0.310645456,12.6046266 0.360515526,12.7376049 0.45401016,12.8374535 C0.547504793,12.9373022 0.676921825,12.9957956 0.813645341,13 L0.831381272,13 C1.10832192,12.9993293 1.33533877,12.7801406 1.34572327,12.5033939 C1.34572327,12.4534109 1.57790272,7.55829394 6.29082326,4.66733722 C6.44779411,4.57056253 6.54121247,4.39739608 6.53588856,4.213068 C6.53056465,4.02873991 6.42730728,3.86125401 6.26501252,3.77370062 C6.10271776,3.68614722 5.90604203,3.69182777 5.74907119,3.78860246 C3.77171748,4.97723779 2.20448785,6.74135557 1.25704361,8.84495511 C0.934572142,7.38415935 0.773336407,5.13653321 2.18092437,3.60640608 C4.47369652,1.12015105 8.31594409,0.963752385 10.2169134,1.06049383 C9.43169537,2.08111603 9.29625736,3.25168746 9.17210584,4.39001175 C9.00119596,5.89917823 8.84963437,7.32611449 7.31305782,8.69661823 C5.47819515,10.337998 2.86133917,10.0526108 2.83554146,10.0493861 C2.55722007,10.022707 2.30829192,10.2225705 2.2742039,10.5000819 C2.24011589,10.7775933 2.43327337,11.0317602 2.70977758,11.073233 C2.92394083,11.0966119 3.13929335,11.1073796 3.35472052,11.1054801 C4.38179216,11.1054801 6.39401413,10.9007107 8.00637148,9.46410033 C9.82188585,7.83239469 10.0218182,6.06525104 10.1975651,4.50610148 C10.3588009,3.14527188 10.4829524,1.97147573 11.6777092,1.05565675 C11.843344,0.929879664 11.9165916,0.716506227 11.8631303,0.515517042 L11.8631303,0.515517042 Z" id="路径"></path>
            </g>
        </g>
    </g>
</svg>