<?xml version="1.0" encoding="UTF-8"?>
<svg width="18px" height="16px" viewBox="0 0 18 16" version="1.1" xmlns="http://www.w3.org/2000/svg" xmlns:xlink="http://www.w3.org/1999/xlink">
    <title>编组</title>
    <g id="页面-1" stroke="none" stroke-width="1" fill="none" fill-rule="evenodd">
        <g id="新建标签步骤3" transform="translate(-215.000000, -714.000000)" fill="#1D538C" fill-rule="nonzero">
            <g id="编组" transform="translate(215.000000, 714.000000)">
                <path d="M6.64615385,0 C6.15384615,0 5.66153846,0.492307692 5.66153846,0.984615385 L5.66153846,15.0153846 C5.66153846,15.5076923 6.15384615,16 6.64615385,16 L10.5846154,16 C11.0769231,16 11.5692308,15.5076923 11.5692308,15.0153846 L11.5692308,0.984615385 C11.5692308,0.492307692 11.0769231,0 10.5846154,0 L6.64615385,0 L6.64615385,0 Z M9.6,14.0307692 L7.63076923,14.0307692 L7.63076923,13.0461538 L9.6,13.0461538 L9.6,14.0307692 Z M9.6,12.0615385 L7.63076923,12.0615385 L7.63076923,11.0769231 L9.6,11.0769231 L9.6,12.0615385 Z M9.6,9.96923077 L7.63076923,9.96923077 L7.63076923,8.98461538 L9.6,8.98461538 L9.6,9.96923077 Z M9.6,8 L7.63076923,8 L7.63076923,7.01538462 L9.6,7.01538462 L9.6,8 Z" id="形状"></path>
                <path d="M3.44615385,6.15384615 L0.984615385,6.15384615 C0.492307692,6.15384615 0,6.64615385 0,7.13846154 L0,15.0153846 C0,15.6307692 0.492307692,16 0.984615385,16 L3.44615385,16 C3.93846154,16 4.43076923,15.5076923 4.43076923,15.0153846 L4.43076923,7.13846154 C4.43076923,6.64615385 3.93846154,6.15384615 3.44615385,6.15384615 Z" id="路径" opacity="0.787597656"></path>
                <path d="M16.2461538,4.18461538 L13.7846154,4.18461538 C13.2923077,4.18461538 12.8,4.67692308 12.8,5.16923077 L12.8,15.0153846 C12.8,15.6307692 13.2923077,16 13.7846154,16 L16.2461538,16 C16.7384615,16 17.2307692,15.5076923 17.2307692,15.0153846 L17.2307692,5.16923077 C17.2307692,4.67692308 16.7384615,4.18461538 16.2461538,4.18461538 Z" id="路径" opacity="0.824079241"></path>
            </g>
        </g>
    </g>
</svg>