<?xml version="1.0" encoding="UTF-8"?>
<svg width="17px" height="20px" viewBox="0 0 17 20" version="1.1" xmlns="http://www.w3.org/2000/svg" xmlns:xlink="http://www.w3.org/1999/xlink">
    <title>编组</title>
    <g id="页面-1" stroke="none" stroke-width="1" fill="none" fill-rule="evenodd">
        <g id="13奖惩贷勤-奖学金" transform="translate(-605.000000, -526.000000)" fill="currentColor" fill-rule="nonzero" stroke="#666666" stroke-width="0.2">
            <g id="编组" transform="translate(606.000000, 527.000000)">
                <path d="M13.5495047,12.6006598 C14.6501647,11.272277 15.333333,9.56435622 15.333333,7.66666649 C15.333333,3.41584151 11.9174915,0 7.66666651,0 C3.41584153,0 0,3.4537953 0,7.7046203 C0,9.56435622 0.683168302,11.3102308 1.78382835,12.6386136 L0.303630362,15.4851482 C0,16.0165013 0.417491746,16.6996696 1.02475245,16.6996696 L2.16336629,16.6996696 L2.8085808,17.6105607 C3.18811874,18.10396 3.94719464,18.0660062 4.21287119,17.4966993 L5.50330022,15.0297026 C6.18646852,15.2194716 6.90759061,15.333333 7.66666651,15.333333 C8.42574241,15.333333 9.1468645,15.2194716 9.8300328,15.0297026 L11.1204618,17.4966993 C11.4240922,18.0660062 12.183168,18.10396 12.5247522,17.6105607 L13.1699667,16.6996696 L14.2706268,16.6996696 C14.8778875,16.6996696 15.2953792,16.0165013 14.9917488,15.4851482 L13.5495047,12.6006598 Z M3.5676567,17.1551151 C3.52970291,17.1930689 3.45379531,17.1930689 3.45379531,17.1551151 L2.69471942,16.0924089 L2.54290425,15.9405937 L1.06270626,15.9405937 C1.02475247,15.9405937 0.986798664,15.8646861 0.986798664,15.8267323 L2.35313527,13.2079205 C3.03630357,13.8910888 3.87128704,14.4224419 4.78217811,14.8019799 L3.5676567,17.1551151 L3.5676567,17.1551151 Z M0.759075897,7.7046203 C0.759075897,3.87128704 3.87128704,0.797029685 7.66666651,0.797029685 C11.462046,0.797029685 14.5742571,3.87128704 14.5742571,7.7046203 C14.5742571,11.5379536 11.4999997,14.6122109 7.66666651,14.6122109 C3.83333327,14.6122109 0.759075897,11.4999997 0.759075897,7.7046203 Z M13.0181515,13.2079205 L14.3844881,15.8267323 C14.3844881,15.8646861 14.3465344,15.9405937 14.3085805,15.9405937 L12.8283826,15.9405937 L11.9554453,17.1551151 C11.9174915,17.1930689 11.8415839,17.1930689 11.8415839,17.1551151 L10.5891087,14.8019799 C11.4999997,14.4224419 12.3349832,13.8910888 13.0181515,13.2079205 Z M6.9455444,4.93399328 C7.24917476,4.32673258 8.12211203,4.32673258 8.42574239,4.93399328 L8.42574239,4.93399328 L9.03300311,6.11056093 L10.3613859,6.30032989 C11.0445542,6.41419127 11.3481846,7.28712855 10.8168314,7.78052787 L10.8168314,7.78052787 L9.86798659,8.65346516 L10.1336631,9.86798659 C10.2475245,10.5132011 9.52640244,11.0445542 8.91914173,10.7409238 L8.91914173,10.7409238 L7.7046203,10.1336631 L6.49009887,10.7409238 C5.84488437,11.082508 5.16171607,10.5511549 5.27557745,9.86798659 L5.27557745,9.86798659 L5.50330022,8.61551137 L4.55445534,7.74257409 C4.02310222,7.24917475 4.32673258,6.41419127 5.00990088,6.30032989 L5.00990088,6.30032989 L6.33828369,6.11056093 Z M7.78052789,5.27557744 C7.74257409,5.23762365 7.66666649,5.23762365 7.6287127,5.27557744 L7.6287127,5.27557744 L6.83168302,6.83168302 L6.60396025,6.86963681 L5.08580847,7.09735957 C5.0099009,7.09735957 5.0099009,7.17326717 5.04785469,7.21122096 L5.04785469,7.21122096 L6.30032991,8.34983479 L6.2623761,8.53960377 L5.99669954,10.0198018 C5.99669954,10.0577556 6.07260714,10.1336631 6.11056093,10.0957094 L6.11056093,10.0957094 L7.66666651,9.29867967 L7.85643547,9.37458725 L9.26072588,10.0957094 C9.33663347,10.1336631 9.37458726,10.0957094 9.37458726,10.0198018 L9.37458726,10.0198018 L9.0709569,8.34983479 L9.22277207,8.23597341 L10.3234321,7.21122096 C10.3613859,7.17326717 10.3234321,7.05940578 10.2854783,7.05940578 L10.2854783,7.05940578 L8.57755758,6.83168302 Z" id="形状"></path>
            </g>
        </g>
    </g>
</svg>