<?xml version="1.0" encoding="UTF-8"?>
<svg width="340px" height="8px" viewBox="0 0 340 20" version="1.1" xmlns="http://www.w3.org/2000/svg" xmlns:xlink="http://www.w3.org/1999/xlink">
    <title>形状结合</title>
    <defs>
        <linearGradient x1="100%" y1="50%" x2="-4.18068358e-13%" y2="50%" id="linearGradient-1">
            <stop stop-color="#B22924" stop-opacity="0.1" offset="0%"></stop>
            <stop stop-color="#B22924" offset="100%"></stop>
        </linearGradient>
    </defs>
    <g id="教师端-本科生" stroke="none" stroke-width="1" fill="none" fill-rule="evenodd">
        <g id="17档案管理中心-新增自定义档案" transform="translate(-745.000000, -291.000000)" fill="url(#linearGradient-1)">
            <path d="M749,299 C751.209139,299 753,297.209139 753,295 C753,292.790861 751.209139,291 749,291 C746.790861,291 745,292.790861 745,295 C745,297.209139 746.790861,299 749,299 Z M1081,299 C1083.20914,299 1085,297.209139 1085,295 C1085,292.790861 1083.20914,291 1081,291 C1078.79086,291 1077,292.790861 1077,295 C1077,297.209139 1078.79086,299 1081,299 Z M765,298 C766.656854,298 768,296.656854 768,295 C768,293.343146 766.656854,292 765,292 C763.343146,292 762,293.343146 762,295 C762,296.656854 763.343146,298 765,298 Z M885,298 C886.656854,298 888,296.656854 888,295 C888,293.343146 886.656854,292 885,292 C883.343146,292 882,293.343146 882,295 C882,296.656854 883.343146,298 885,298 Z M795,298 C796.656854,298 798,296.656854 798,295 C798,293.343146 796.656854,292 795,292 C793.343146,292 792,293.343146 792,295 C792,296.656854 793.343146,298 795,298 Z M915,298 C916.656854,298 918,296.656854 918,295 C918,293.343146 916.656854,292 915,292 C913.343146,292 912,293.343146 912,295 C912,296.656854 913.343146,298 915,298 Z M1005,298 C1006.65685,298 1008,296.656854 1008,295 C1008,293.343146 1006.65685,292 1005,292 C1003.34315,292 1002,293.343146 1002,295 C1002,296.656854 1003.34315,298 1005,298 Z M825,298 C826.656854,298 828,296.656854 828,295 C828,293.343146 826.656854,292 825,292 C823.343146,292 822,293.343146 822,295 C822,296.656854 823.343146,298 825,298 Z M945,298 C946.656854,298 948,296.656854 948,295 C948,293.343146 946.656854,292 945,292 C943.343146,292 942,293.343146 942,295 C942,296.656854 943.343146,298 945,298 Z M1035,298 C1036.65685,298 1038,296.656854 1038,295 C1038,293.343146 1036.65685,292 1035,292 C1033.34315,292 1032,293.343146 1032,295 C1032,296.656854 1033.34315,298 1035,298 Z M780,298 C781.656854,298 783,296.656854 783,295 C783,293.343146 781.656854,292 780,292 C778.343146,292 777,293.343146 777,295 C777,296.656854 778.343146,298 780,298 Z M900,298 C901.656854,298 903,296.656854 903,295 C903,293.343146 901.656854,292 900,292 C898.343146,292 897,293.343146 897,295 C897,296.656854 898.343146,298 900,298 Z M810,298 C811.656854,298 813,296.656854 813,295 C813,293.343146 811.656854,292 810,292 C808.343146,292 807,293.343146 807,295 C807,296.656854 808.343146,298 810,298 Z M930,298 C931.656854,298 933,296.656854 933,295 C933,293.343146 931.656854,292 930,292 C928.343146,292 927,293.343146 927,295 C927,296.656854 928.343146,298 930,298 Z M1020,298 C1021.65685,298 1023,296.656854 1023,295 C1023,293.343146 1021.65685,292 1020,292 C1018.34315,292 1017,293.343146 1017,295 C1017,296.656854 1018.34315,298 1020,298 Z M855,298 C856.656854,298 858,296.656854 858,295 C858,293.343146 856.656854,292 855,292 C853.343146,292 852,293.343146 852,295 C852,296.656854 853.343146,298 855,298 Z M975,298 C976.656854,298 978,296.656854 978,295 C978,293.343146 976.656854,292 975,292 C973.343146,292 972,293.343146 972,295 C972,296.656854 973.343146,298 975,298 Z M1065,298 C1066.65685,298 1068,296.656854 1068,295 C1068,293.343146 1066.65685,292 1065,292 C1063.34315,292 1062,293.343146 1062,295 C1062,296.656854 1063.34315,298 1065,298 Z M870,298 C871.656854,298 873,296.656854 873,295 C873,293.343146 871.656854,292 870,292 C868.343146,292 867,293.343146 867,295 C867,296.656854 868.343146,298 870,298 Z M990,298 C991.656854,298 993,296.656854 993,295 C993,293.343146 991.656854,292 990,292 C988.343146,292 987,293.343146 987,295 C987,296.656854 988.343146,298 990,298 Z M840,298 C841.656854,298 843,296.656854 843,295 C843,293.343146 841.656854,292 840,292 C838.343146,292 837,293.343146 837,295 C837,296.656854 838.343146,298 840,298 Z M960,298 C961.656854,298 963,296.656854 963,295 C963,293.343146 961.656854,292 960,292 C958.343146,292 957,293.343146 957,295 C957,296.656854 958.343146,298 960,298 Z M1050,298 C1051.65685,298 1053,296.656854 1053,295 C1053,293.343146 1051.65685,292 1050,292 C1048.34315,292 1047,293.343146 1047,295 C1047,296.656854 1048.34315,298 1050,298 Z" id="形状结合"></path>
        </g>
    </g>
</svg>