<?xml version="1.0" encoding="UTF-8"?>
<svg width="17px" height="17px" viewBox="0 0 17 17" version="1.1" xmlns="http://www.w3.org/2000/svg" xmlns:xlink="http://www.w3.org/1999/xlink">
    <title>编组 4</title>
    <g id="页面-1" stroke="none" stroke-width="1" fill-rule="evenodd">
        <g id="关注群体-重点名单备份" transform="translate(-457.000000, -426.000000)" fill-rule="nonzero" stroke="#005DA7" stroke-width="0.3">
            <g id="编组" transform="translate(458.000000, 427.000000)">
                <path d="M8.62433196,0 C8.86150968,0 9.05400175,0.192492064 9.05400175,0.429669787 C9.05400175,0.666847509 8.86150968,0.859339573 8.62433196,0.859339573 L3.00768851,0.859339573 C1.82351857,0.859339573 0.859339573,1.82351857 0.859339573,3.00768851 L0.859339573,12.577294 C0.859339573,13.7614639 1.82351857,14.7256429 3.00768851,14.7256429 L12.1407495,14.7256429 C13.3249194,14.7256429 14.2890984,13.7614639 14.2890984,12.577294 L14.2890984,6.96065054 C14.2890984,6.72347282 14.4815905,6.53098076 14.7187682,6.53098076 C14.9576646,6.53098076 15.148438,6.72347282 15.148438,6.96065054 L15.148438,12.577294 C15.148438,14.2358194 13.7992749,15.5849825 12.1407495,15.5849825 L3.00768851,15.5849825 C1.34916313,15.5849825 0,14.2358194 0,12.577294 L0,3.00768851 C0,1.34916313 1.34916313,0 3.00768851,0 Z M10.1127081,4.47028446 C10.2811387,4.30357258 10.5544086,4.30357258 10.7211205,4.47200314 C10.8878324,4.6404337 10.8878324,4.91370368 10.7194018,5.08041556 L5.38462177,10.3962902 L8.97322383,10.327543 C9.21555759,10.327543 9.40633097,10.514879 9.41148701,10.7486194 C9.41664305,10.9857971 9.22758834,11.1817265 8.99041062,11.1868826 L4.33279013,11.2762539 L4.30013523,11.2762539 C4.22107598,11.2728165 4.14201674,11.2453177 4.07498826,11.1971946 C4.06983222,11.1937573 4.06467618,11.1903199 4.06123882,11.1868826 C4.05264543,11.1800079 4.04920807,11.1782892 4.04577071,11.1748518 L4.0303026,11.1611024 C4.02514656,11.1542277 4.02514656,11.152509 4.02342788,11.152509 L4.01483449,11.1456343 C4.01311581,11.1421969 4.00967845,11.1404782 4.00795977,11.1370409 C4.00624109,11.1336035 4.00280373,11.1318848 4.00108505,11.1284475 C3.99077298,11.1181354 3.9890543,11.114698 3.98561694,11.1112607 C3.97702355,11.1026673 3.97530487,11.0975113 3.97186751,11.0940739 L3.95811808,11.0751684 C3.95296204,11.066575 3.94952468,11.061419 3.94608732,11.056263 C3.94264996,11.0493882 3.94093128,11.0425135 3.93749393,11.0373575 C3.93405657,11.0287641 3.93233789,11.023608 3.92890053,11.0167333 C3.92718185,11.0081399 3.92374449,11.0029839 3.92202581,10.9961092 C3.91858845,10.9892345 3.91686978,10.9823597 3.9151511,10.9772037 C3.91171374,10.9668916 3.90999506,10.9617356 3.90827638,10.9565796 C3.90483902,10.9479862 3.90483902,10.9428301 3.90312034,10.9376741 L3.8979643,10.9187686 L3.89452695,10.8998631 C3.89108959,10.8878324 3.89108959,10.8826764 3.89108959,10.879239 L3.89108959,10.8517401 L3.8377648,6.21302512 C3.83437318,5.97584739 4.02514656,5.78163665 4.26232428,5.77819929 C4.50122069,5.77648061 4.69371275,5.96553532 4.69715011,6.20271304 L4.73839841,9.82397 Z" id="路径-5"></path>
            </g>
        </g>
    </g>
</svg>