<?xml version="1.0" encoding="UTF-8"?>
<svg width="16px" height="16px" viewBox="0 0 16 16" version="1.1" xmlns="http://www.w3.org/2000/svg" xmlns:xlink="http://www.w3.org/1999/xlink">
    <title>编组</title>
    <g id="页面-1" stroke="none" stroke-width="1" fill="none" fill-rule="evenodd">
        <g id="48学生画像-科学研究-学术论文" transform="translate(-847.000000, -407.000000)" fill="currentColor" fill-rule="nonzero">
            <g id="编组" transform="translate(847.000000, 407.000000)">
                <path d="M7.35100782,0 C6.25288603,0 5.36268243,0.890203601 5.36268243,1.98832539 C5.36268243,3.08644719 6.25288603,3.97665079 7.35100782,3.97665079 C8.44912962,3.97665079 9.33933322,3.08644719 9.33933322,1.98832539 C9.3379448,0.890779219 8.448554,0.00138842187 7.35100782,0 L7.35100782,0 Z M7.35100782,3.18283266 C6.69129967,3.18283266 6.15650055,2.64803354 6.15650055,1.98832539 C6.15650055,1.32861724 6.69129967,0.793818123 7.35100782,0.793818123 C8.01071597,0.793818123 8.54551509,1.32861724 8.54551509,1.98832539 C8.54551509,2.30512842 8.41966558,2.60895602 8.19565202,2.83296958 C7.97163845,3.05698315 7.66781085,3.18283266 7.35100782,3.18283266 L7.35100782,3.18283266 Z M12.043355,15.2690296 C10.2558924,15.270411 8.80535701,13.8232465 8.80257657,12.0357856 C8.79980411,10.2483247 10.2458368,8.79666105 12.033295,8.79248151 C13.8207532,8.78831998 15.2735442,10.23322 15.2791177,12.0206744 C15.281116,12.8806229 14.9412542,13.7061109 14.3343599,14.3153685 C13.7274656,14.924626 12.9033048,15.2676935 12.043355,15.2690296 L12.043355,15.2690296 Z M12.043355,9.70222017 C11.0991595,9.70121454 10.2476122,10.2698831 9.88676507,11.1424055 C9.52591794,12.0149279 9.72705073,13.018951 10.3961448,13.6851485 C11.0652388,14.3513461 12.0701251,14.5481211 12.9410738,14.1834921 C13.8120225,13.818863 14.3769913,12.9648566 14.3719224,12.0206744 C14.3649617,10.7391751 13.3248722,9.70358821 12.043355,9.70222017 L12.043355,9.70222017 Z" id="形状"></path>
                <path d="M2.29829247,6.36566533 C2.13415149,6.36163037 1.98931864,6.25725422 1.93356592,6.10281919 C1.87781321,5.94838417 1.92257461,5.77556243 2.04628672,5.66760939 L5.70541025,2.46965638 C5.87103319,2.32491029 6.12263699,2.34183431 6.26738308,2.50745725 C6.41212918,2.67308018 6.39520515,2.92468398 6.22958222,3.06943008 L2.5578584,6.26738308 C2.48789899,6.32854728 2.39874967,6.36331552 2.30585264,6.36566533 L2.29829247,6.36566533 Z M12.4062432,6.36566533 C12.3133462,6.36331552 12.2241969,6.32854728 12.1542375,6.26738308 L8.47495348,3.06943008 C8.36781423,2.97534561 8.31900695,2.83124986 8.34691686,2.69142232 C8.37482678,2.55159477 8.47521371,2.43727855 8.61026287,2.39153547 C8.74531204,2.34579239 8.89450626,2.37557191 9.00164551,2.46965638 L12.6658092,5.66760939 C12.7923664,5.77436835 12.8390627,5.94864076 12.7828408,6.10437546 C12.7266189,6.26011016 12.5793707,6.36436646 12.4138034,6.36566533 L12.4062432,6.36566533 Z" id="形状"></path>
                <path d="M6.35810516,9.94162697 L3.17527249,9.94162697 C2.96830106,9.92512201 2.80875496,9.75234639 2.80875496,9.54471791 C2.80875496,9.33708942 2.96830106,9.16431381 3.17527249,9.14780885 L6.35810516,9.14780885 C6.50745714,9.13589875 6.65085167,9.2088371 6.72917975,9.3365578 C6.80750783,9.4642785 6.80750783,9.62515732 6.72917975,9.75287801 C6.65085167,9.88059871 6.50745714,9.95353706 6.35810516,9.94162697 L6.35810516,9.94162697 Z M6.35810516,11.9299524 L3.17527249,11.9299524 C2.96830106,11.9134474 2.80875496,11.7406718 2.80875496,11.5330433 C2.80875496,11.3254148 2.96830106,11.1526392 3.17527249,11.1361342 L6.35810516,11.1361342 C6.50745714,11.1242241 6.65085167,11.1971625 6.72917975,11.3248832 C6.80750783,11.4526039 6.80750783,11.6134827 6.72917975,11.7412034 C6.65085167,11.8689241 6.50745714,11.9418625 6.35810516,11.9299524 L6.35810516,11.9299524 Z" id="形状"></path>
                <path d="M15.5537951,15.9771648 C15.4376285,15.9765697 15.3263322,15.9304225 15.243828,15.8486418 L13.7897548,14.3895285 C13.6478799,14.2890046 13.5793027,14.1137888 13.6152507,13.9436674 C13.6511986,13.773546 13.7847972,13.6410514 13.9552111,13.6065165 C14.125625,13.5719816 14.3002657,13.6420104 14.3996087,13.7847147 L15.8587221,15.243828 C15.9920883,15.3670617 16.035106,15.5600545 15.9667014,15.7282625 C15.8982968,15.8964704 15.732796,16.0046657 15.551275,15.9998453 L15.5537951,15.9771648 Z M11.7737088,15.2614684 L2.07652741,15.2614684 C0.930268643,15.2600799 0.00138856454,14.3311998 0,13.184941 L0,7.79705801 C0.00138856454,6.65079924 0.930268643,5.72191916 2.07652741,5.7205306 L12.6254882,5.7205306 C13.7713392,5.7205306 14.7006251,6.6486878 14.7020156,7.79453795 L14.7020156,10.3549164 L13.7897548,10.3549164 L13.7897548,7.79705801 C13.7883687,7.15184275 13.2656634,6.62913739 12.6204481,6.62775131 L2.07652741,6.62775131 C1.43131215,6.62913739 0.908606786,7.15184275 0.907220712,7.79705801 L0.907220712,13.184941 C0.907220712,13.8307313 1.43073715,14.3542477 2.07652741,14.3542477 L11.7737088,14.3542477 L11.7737088,15.2614684 Z" id="形状"></path>
            </g>
        </g>
    </g>
</svg>