<?xml version="1.0" encoding="UTF-8"?>
<svg width="14px" height="16px" viewBox="0 0 14 16" version="1.1" xmlns="http://www.w3.org/2000/svg" xmlns:xlink="http://www.w3.org/1999/xlink">
    <title>编组</title>
    <g id="页面-1" stroke="none" stroke-width="1" fill="none" fill-rule="evenodd">
        <g id="新建标签步骤3" transform="translate(-255.000000, -919.000000)" fill="#005DA7" fill-rule="nonzero">
            <g id="编组" transform="translate(255.000000, 919.000000)">
                <polygon id="路径" opacity="0.7" points="6.39797655 10.1063281 6.39797655 14.6707525 0.773578484 10.8394377 0.773578484 6.2477747"></polygon>
                <path d="M6.78865703,0 L0,4.65625759 L0,11.3437424 L6.78865703,16 L13.5773141,11.3437424 L13.5773141,4.65625759 L6.78865703,0 Z M12.8029573,10.8129773 L6.78865703,14.942361 L0.774356719,10.8176468 L0.774356719,5.18702272 L6.78865703,1.06230848 L12.8029573,5.18702272 L12.8029573,10.8129773 Z M12.9508245,4.6173452 L13.2699061,5.43372733 M0.111289453,5.40493214 L0.454496813,4.6173452" id="形状"></path>
                <polygon id="路径" points="13.5773141 5.71778783 6.78865703 10.3740454 0 5.71778783 0.773578484 5.18702272 6.78865703 9.3125152 12.8029573 5.18702272"></polygon>
                <polygon id="路径" points="0 10.3086726 6.78865703 5.652415 13.5773141 10.3086726 12.8029573 10.8394377 6.78865703 6.71394523 0.773578484 10.8394377"></polygon>
                <path d="M6.39797655,9.44248261 L6.39797655,15.3859624 L7.39797655,15.3859624 L7.35215981,9.64638358 L6.39797655,9.44248261 L6.39797655,9.44248261 Z M6.39797655,0.518313141 L6.39797655,6.46179289 L7.39797655,6.46179289 L7.35215981,0.722214109 L6.39797655,0.518313141 L6.39797655,0.518313141 Z" id="形状"></path>
            </g>
        </g>
    </g>
</svg>