<?xml version="1.0" encoding="UTF-8"?>
<svg width="16px" height="18px" viewBox="0 0 16 18" version="1.1" xmlns="http://www.w3.org/2000/svg" xmlns:xlink="http://www.w3.org/1999/xlink">
    <title>编组</title>
    <g id="页面-1" stroke="none" stroke-width="1" fill="none" fill-rule="evenodd">
        <g id="13奖惩贷勤-奖学金" transform="translate(-367.000000, -526.000000)" fill="currentColor" fill-rule="nonzero">
            <g id="编组" transform="translate(367.000000, 526.000000)">
                <path d="M9.04581744,13.0319688 L7.90968281,13.0319688 L7.90968281,12.2760636 L9.04581744,12.2760636 C9.25528515,12.2760636 9.42377005,12.1075787 9.42377005,11.898111 C9.42377005,11.6886433 9.25528515,11.5201584 9.04581744,11.5201584 L8.26942083,11.5201584 L9.00483463,10.1654488 C9.10046119,9.99468706 9.0412638,9.77383524 8.87960937,9.67365503 C8.71795494,9.57575164 8.51076406,9.63267222 8.41741432,9.80571076 L7.57498984,11.3630576 C7.54766796,11.4131477 7.53400703,11.4677915 7.5317302,11.5224352 L7.52717656,11.5224352 C7.52262291,11.4677915 7.5112388,11.4131477 7.48391692,11.3630576 L6.65059973,9.80798758 C6.55725,9.63722586 6.35233593,9.57802847 6.19295833,9.67593185 C6.03358072,9.77383524 5.97666015,9.99696388 6.07228671,10.1677256 L6.7963164,11.5224352 L6.01991979,11.5224352 C5.81045208,11.5224352 5.64196718,11.6909201 5.64196718,11.9003878 C5.64196718,12.1098555 5.81045208,12.2783404 6.01991979,12.2783404 L7.15605442,12.2783404 L7.15605442,13.0342457 L6.01991979,13.0342457 C5.81045208,13.0342457 5.64196718,13.2027305 5.64196718,13.4121983 C5.64196718,13.621666 5.81045208,13.7901509 6.01991979,13.7901509 L7.15605442,13.7901509 L7.15605442,14.5824852 C7.15605442,14.7714615 7.32453932,14.9240087 7.53400703,14.9240087 C7.74347473,14.9240087 7.91195963,14.7714615 7.91195963,14.5824852 L7.91195963,13.7901509 L9.04809426,13.7901509 C9.25756197,13.7901509 9.42606908,13.621666 9.42606908,13.4121983 C9.42832369,13.2004537 9.25528515,13.0319688 9.04581744,13.0319688 L9.04581744,13.0319688 Z" id="路径"></path>
                <path d="M13.8681284,5.26344904 C13.8499138,5.26344904 13.833976,5.2588954 13.8180383,5.2588954 C13.7429031,5.2588954 13.6700448,5.27255633 13.5994633,5.30215503 L12.2743523,5.83493159 L12.2743523,4.02258055 C12.2743523,3.7288704 12.0352859,3.48980399 11.7415758,3.48980399 L11.0152693,3.48980399 L9.02304921,0.254438629 C8.86822525,0.00398810828 8.53808593,-0.0757006938 8.28763541,0.0791232645 L1.46399713,4.27075425 C1.21354661,4.42557821 1.13385781,4.75571753 1.28868177,5.00616805 L1.48221172,5.32036962 L1.44122891,5.30443185 C1.35243281,5.27027951 1.26135989,5.25661857 1.17484062,5.26344904 C0.516838802,5.32492326 0,5.86908394 0,6.50887118 L0,16.0146068 C0,16.7022074 0.582866666,17.2645826 1.29778906,17.2645826 L13.7451799,17.2645826 C14.4601023,17.2645826 15.042969,16.7044842 15.042969,16.0146068 L15.042969,6.50887118 C15.042969,5.86908394 14.5261302,5.32492326 13.8681284,5.26344904 L13.8681284,5.26344904 Z M8.51076406,0.857796701 L10.1364156,3.48752717 L4.17113958,3.48752717 L8.51076406,0.857796701 Z M4.26676614,4.23660191 L11.5252776,4.23660191 L11.5252776,6.1331954 L8.05539947,7.52205737 C7.71159921,7.66094357 7.33136979,7.66094357 6.9852927,7.52205737 L3.95028776,6.30851076 L3.95028776,4.23887873 L4.26676614,4.23887873 L4.26676614,4.23660191 Z M3.1989362,4.09088524 L3.19665937,6.00569331 L3.14656927,5.98520191 L2.65932916,5.79394878 L2.04003333,4.80125399 L3.1989362,4.09088524 L3.1989362,4.09088524 Z M13.7451799,16.5132311 L1.29778906,16.5132311 C0.860639062,16.5132311 0.751351562,16.2582269 0.753593762,16.01233 L0.753593762,6.50887118 C0.753593762,6.2128842 1.01090937,5.9351118 1.42984479,6.10815034 L6.72573489,8.22787248 C6.72573489,8.22787248 7.28127968,8.38041961 7.57043619,8.37131232 C7.94155833,8.35992821 8.28763541,8.22331883 8.45156666,8.15956779 L13.5858023,6.11042717 C13.9569245,5.94877274 14.2916174,6.11953446 14.2916174,6.511148 L14.2916174,16.0168837 C14.2938943,16.1762613 14.2938943,16.5246152 13.7451799,16.5132311 L13.7451799,16.5132311 Z" id="形状"></path>
                <path d="M9.33725077,6.0443993 L5.71254869,6.0443993 C5.50535781,6.0443993 5.33687291,5.87591441 5.33687291,5.66872352 C5.33687291,5.46153264 5.50535781,5.29304774 5.71254869,5.29304774 L9.33725077,5.29304774 C9.54444166,5.29304774 9.71292656,5.46153264 9.71292656,5.66872352 C9.71292656,5.87591441 9.54444166,6.0443993 9.33725077,6.0443993 Z" id="路径"></path>
            </g>
        </g>
    </g>
</svg>