<?xml version="1.0" encoding="UTF-8"?>
<svg width="17px" height="18px" viewBox="0 0 17 18" version="1.1" xmlns="http://www.w3.org/2000/svg" xmlns:xlink="http://www.w3.org/1999/xlink">
    <title>编组</title>
    <g id="页面-1" stroke="none" stroke-width="1"  fill-rule="evenodd">
        <g id="12体质健康-校医院" transform="translate(-366.000000, -527.000000)"  fill-rule="nonzero" stroke="#666666" stroke-width="0.2">
            <g id="编组" transform="translate(367.000000, 528.000000)">
                <path d="M11.34726,7.1418069 C11.8037011,6.53265941 12.5638769,6.36820636 13.2166548,6.88505878 C13.6277874,7.21060869 14.0557009,7.51937767 14.4701897,7.83989329 C14.8830004,8.20236122 15.020604,8.4238694 15.0373849,8.76620023 C15.039063,8.79640589 15.039063,8.82828964 15.0373849,8.8601734 L15.0373849,8.8601734 L15.0279866,8.97053609 C14.9874189,9.1942165 14.8242672,9.43216314 14.6833074,9.62202729 C13.402923,11.3336814 12.1091139,13.0386232 10.8069143,14.7334964 C10.6860916,14.891237 10.4863986,15.0154159 10.3001304,15.0976424 C9.33522735,15.5104531 8.3669681,15.908161 7.39535267,16.3041907 C6.83990413,16.5290551 6.68384155,16.4031982 6.7811709,15.8057973 C6.94730203,14.782161 7.11343317,13.7585248 7.29634523,12.7382447 C7.32990707,12.5486202 7.4104555,12.3522834 7.52456578,12.199577 C8.79320354,10.5097381 10.0769441,8.83164583 11.34726,7.1418069 Z M12.5504522,0.0018102536 C12.9800438,0.0018102536 13.3978888,0.0504749297 13.7469319,0.345819171 C14.1093999,0.65458815 14.2419692,1.06236457 14.2470034,1.5137714 L14.2475383,2.01014309 C14.2454008,3.0047021 14.2310122,4.87746815 14.2268663,5.39155666 C14.2251882,5.58621536 14.1798798,5.74899031 13.9449468,5.7506684 C13.711692,5.7523465 13.6529588,5.59796201 13.6512807,5.39826903 C13.6462464,4.81093673 13.6445683,2.22024825 13.6344998,1.63291595 C13.6227531,0.894555346 13.3374774,0.599211105 12.6091854,0.599211105 C9.01471172,0.592498736 5.42023806,0.589142551 1.82744249,0.597533012 C1.54048871,0.597533012 1.20319216,0.634451043 0.98671826,0.788835532 C0.787025279,0.931473376 0.615859866,1.25702328 0.615859866,1.50538094 C0.604310643,3.51316899 0.600286705,6.08245134 0.599804079,8.61895361 L0.599963246,10.2985773 C0.600559613,11.9603016 0.602336417,13.5487632 0.60411322,14.8878809 C0.60411322,15.4634665 0.929663122,15.745386 1.59418766,15.7520984 C2.74535897,15.7621669 3.89820836,15.7537765 5.04937967,15.7537765 C5.17355849,15.7537765 5.31619634,15.7319613 5.41855997,15.782304 C5.52260169,15.8326468 5.65181479,15.9618599 5.65349289,16.0575112 C5.65349289,16.1498063 5.50582077,16.3226498 5.42023806,16.3243279 C3.96868824,16.3310402 2.51546033,16.3612459 1.0655886,16.2857317 C0.426235439,16.2521699 0.00167809228,15.5893234 0,14.889559 C0.00335618456,12.9966709 0.00671236911,11.0937142 0.00671236911,9.18907948 L0.00671236911,1.62955976 C0.00671236911,0.55893689 0.538667621,0.0152349918 1.62103714,0.00516643815 L3.72368677,0.000115716484 L3.72368677,0.000115716484 L5.82633639,6.02648925e-07 C8.06826768,6.02648925e-07 10.3085209,6.02648925e-07 12.5504522,0.0018102536 Z M11.1391765,8.39198565 C11.0149977,8.54469205 10.9243807,8.64705568 10.8421542,8.75613167 C10.1172183,9.71264427 9.41241959,10.6859378 8.65727806,11.6189571 C8.13874755,12.2566322 7.75614251,12.9178005 7.692375,13.7602028 C7.64874461,14.3659942 7.51785341,14.963395 7.42052406,15.5842892 C7.53799052,15.5725425 7.60511421,15.5775768 7.65881316,15.5557616 C8.48107838,15.2251774 9.30502168,14.8979494 10.1205745,14.5505843 C10.2497876,14.4968854 10.3638979,14.3760627 10.4511587,14.2619524 C11.0905119,13.4296187 11.7214746,12.5888944 12.3557934,11.7515264 C12.7434328,11.2380302 13.1344283,10.726212 13.5338142,10.2043253 C12.7249737,9.59182163 11.9496951,9.00448933 11.1391765,8.39198565 Z M3.00378518,10.7681643 C3.44008917,10.7731986 3.87807126,10.7698424 4.31437525,10.7698424 C4.76410398,10.7698424 5.21215462,10.7715205 5.66020526,10.7698424 C5.89513817,10.7698424 6.09483116,10.8235414 6.08811879,11.1104951 C6.08140642,11.3773118 5.88842581,11.4242984 5.67027381,11.4242984 L2.97861379,11.4242984 C2.7604618,11.4242984 2.56748119,11.3655652 2.56748119,11.1004266 C2.56748119,10.816829 2.76717417,10.7648081 3.00378518,10.7681643 Z M12.7988098,7.30122567 C12.4413762,7.04615564 12.1208605,7.09482032 11.8422972,7.43043877 C11.7164403,7.57978899 11.6056862,7.74256394 11.4714388,7.92044172 C12.2836355,8.53630159 13.0673046,9.13202434 13.8711108,9.74117184 C13.9952896,9.58343117 14.1060437,9.44918379 14.2084073,9.30822403 C14.5222106,8.87024195 14.4819364,8.57154152 14.0624133,8.24599162 C13.6462464,7.92211981 13.2284014,7.60663846 12.7988098,7.30122567 Z M2.99539472,7.80968763 C3.81262566,7.8164 4.62482232,7.81472191 5.43869707,7.81472191 C6.24082518,7.81472191 7.03959711,7.8164 7.84004713,7.81472191 C8.06994577,7.81472191 8.28138539,7.84324948 8.27299493,8.14530609 C8.26628256,8.42219131 8.06491149,8.44400651 7.84843759,8.44400651 C6.22907854,8.44400651 4.6080414,8.44400651 2.98868235,8.44904079 C2.75374943,8.44904079 2.58258402,8.37352664 2.58089506,8.12349089 C2.57922783,7.85835231 2.77220844,7.80968763 2.99539472,7.80968763 Z M9.92423774,4.82771765 C10.1642049,4.82436147 10.3706103,4.88980706 10.3722884,5.15494564 C10.3722884,5.42008422 10.1608487,5.49559838 9.92255964,5.4905641 L9.92255964,5.4905641 L3.02895656,5.4905641 C2.79066746,5.49559838 2.57922783,5.42008422 2.57922783,5.15494564 C2.57922783,4.89148516 2.78563318,4.82603956 3.02560038,4.82771765 C3.60622031,4.83107384 4.18851833,4.83275193 4.77081635,4.83275193 L4.77081635,4.83275193 L8.17902177,4.83275193 C8.76131979,4.83275193 9.34361781,4.83107384 9.92423774,4.82771765 Z" id="形状结合"></path>
            </g>
        </g>
    </g>
</svg>