<?xml version="1.0" encoding="UTF-8"?>
<svg width="14px" height="15px" viewBox="0 0 14 15" version="1.1" xmlns="http://www.w3.org/2000/svg" xmlns:xlink="http://www.w3.org/1999/xlink">
    <title>编组</title>
    <g id="学生群像定稿" stroke="none" stroke-width="1" fill-rule="evenodd">
        <g id="45毕业就业-创新创业-考研情况-考研人数" transform="translate(-726.000000, -528.000000)" fill-rule="nonzero">
            <g id="编组" transform="translate(726.000000, 528.000000)">
                <path d="M13.0067719,5.62352576 L10.1941851,5.62352576 C9.99975911,5.62352576 9.84322968,5.78170287 9.84322968,5.97448122 L9.84322968,12.8485948 C9.84322968,12.9408647 9.8794786,13.0298394 9.94538573,13.0957465 L11.6013023,14.7631968 L13.257219,13.0973942 C13.3231261,13.031487 13.359375,12.9425124 13.359375,12.8502424 L13.359375,5.9761289 C13.3577273,5.78170287 13.2011979,5.62352576 13.0067719,5.62352576 L13.0067719,5.62352576 Z M12.6558164,12.6393396 L11.6013023,13.7086828 L10.5467883,12.6393396 L10.5467883,8.78706794 L12.6558164,8.78706794 L12.6558164,12.6393396 L12.6558164,12.6393396 Z M12.6558164,8.08515702 L10.5467883,8.08515702 L10.5467883,6.32708436 L12.6558164,6.32708436 L12.6558164,8.08515702 Z M12.6558164,-2.99710922e-16 L0.7035586,-2.99710922e-16 C0.31470654,-2.99710922e-16 2.99710922e-16,0.31470654 2.99710922e-16,0.7035586 L2.99710922e-16,14.0612859 C2.99710922e-16,14.450138 0.31470654,14.7648445 0.7035586,14.7648445 L8.78871562,14.7648445 C8.98314165,14.7648445 9.13967108,14.6066674 9.13967108,14.4138891 C9.13967108,14.219463 8.98149397,14.0629336 8.78871562,14.0629336 L1.05616174,14.0629336 C0.861735709,14.0629336 0.705206278,13.9047565 0.705206278,13.7119781 L0.705206278,1.05451406 C0.705206278,0.86008803 0.863383387,0.7035586 1.05616174,0.7035586 L12.3048609,0.7035586 C12.499287,0.7035586 12.6558164,0.861735709 12.6558164,1.05451406 L12.6558164,3.86710078 C12.6558164,4.06152681 12.8139935,4.21805624 13.0067719,4.21805624 C13.1995502,4.21805624 13.3577273,4.05987913 13.3577273,3.86710078 L13.3577273,0.7035586 C13.3577273,0.31470654 13.0430208,-2.99710922e-16 12.6558164,-2.99710922e-16 L12.6558164,-2.99710922e-16 Z M7.03064296,7.38159842 C7.03064296,7.18717239 6.87246585,7.03064296 6.6796875,7.03064296 L3.16518986,7.03064296 C2.97076383,7.03064296 2.8142344,7.18882007 2.8142344,7.38159842 C2.8142344,7.57602445 2.97241151,7.73255388 3.16518986,7.73255388 L6.6796875,7.73255388 C6.87411353,7.73255388 7.03064296,7.57602445 7.03064296,7.38159842 L7.03064296,7.38159842 Z M8.43776016,4.5690117 C8.43776016,4.37623335 8.27958305,4.21805624 8.0868047,4.21805624 L3.16518986,4.21805624 C2.97241151,4.21805624 2.8142344,4.37623335 2.8142344,4.5690117 C2.8142344,4.76179005 2.97241151,4.91996716 3.16518986,4.91996716 L8.0868047,4.91996716 C8.27958305,4.92161484 8.43776016,4.76343773 8.43776016,4.5690117 Z M3.16518986,9.841582 C2.97241151,9.841582 2.8142344,9.99975911 2.8142344,10.1925375 C2.8142344,10.3853158 2.97241151,10.5434929 3.16518986,10.5434929 L5.27421798,10.5434929 C5.46699633,10.5434929 5.62517344,10.3853158 5.62517344,10.1925375 C5.62517344,9.99975911 5.46699633,9.841582 5.27421798,9.841582 L3.16518986,9.841582 Z" id="形状"></path>
            </g>
        </g>
    </g>
</svg>