<?xml version="1.0" encoding="UTF-8"?>
<svg width="16px" height="18px" viewBox="0 0 16 18" version="1.1" xmlns="http://www.w3.org/2000/svg" xmlns:xlink="http://www.w3.org/1999/xlink">
    <title>编组 2</title>
    <g id="页面-1" stroke="none" stroke-width="1" fill-rule="evenodd">
        <g id="关注群体-作息不规律行为分析" transform="translate(-125.000000, -532.000000)" fill-rule="nonzero">
            <g id="编组" transform="translate(125.000000, 532.000000)">
                <path d="M12.0076539,2.13410973 C11.857344,1.75450352 11.4277621,1.56862214 11.0481559,1.71893206 C10.6685497,1.86924197 10.4826683,2.29882387 10.6329782,2.67843008 L13.546693,10.0320912 C14.5110342,12.4653434 13.3202466,15.2196371 10.8869944,16.1839783 C8.45374214,17.1483195 5.69944844,15.9575319 4.73510721,13.5242797 L1.7082592,5.88458361 C1.23930322,4.80769804 1.39456368,3.56082332 2.11329135,2.63182774 C2.83201903,1.70283217 3.99994374,1.23941633 5.1600882,1.42290228 C6.32023265,1.60638823 7.28814601,2.40760363 7.68510999,3.5130546 L10.7140926,11.1548853 C10.9653313,11.7914707 10.8090681,12.5166895 10.3179639,12.993322 C9.82685974,13.4699545 9.09729267,13.6044626 8.46850437,13.3343012 C8.05510153,13.1574176 7.72986573,12.8221863 7.56557297,12.4036202 L5.55052041,7.31048945 C5.44104256,7.0317257 5.17405931,6.84667177 4.87460525,6.8419928 C4.57515119,6.83731383 4.30251674,7.01393624 4.1843831,7.28914356 C4.10860341,7.47008508 4.10860341,7.67386827 4.1843831,7.8548098 L6.1908973,12.9479405 C6.84443633,14.5653216 8.6806948,15.3522119 10.3025725,14.7099131 C11.9244502,14.0676144 12.724065,12.2368611 12.0930375,10.6105649 L9.06618945,2.96873427 C8.11068993,0.556702338 5.38076633,-0.624050505 2.96873438,0.331448954 C0.556702426,1.28694841 -0.624050487,4.01687198 0.33144891,6.42890396 L3.36043151,14.0707346 C4.62598208,17.2637886 8.24039519,18.8263389 11.4334492,17.5607884 C14.6265032,16.2952379 16.1890536,12.6808249 14.9235032,9.48777082 L12.0076539,2.13410973 Z" id="路径"></path>
            </g>
        </g>
    </g>
</svg>