<?xml version="1.0" encoding="UTF-8"?>
<svg width="13px" height="13px" viewBox="0 0 13 13" version="1.1" xmlns="http://www.w3.org/2000/svg" xmlns:xlink="http://www.w3.org/1999/xlink">
    <title>编组 4</title>
    <g id="页面-1" stroke="none" stroke-width="1" fill="none" fill-rule="evenodd">
        <g id="关注群体-作息不规律行为分析" transform="translate(-364.000000, -375.000000)" fill-rule="nonzero">
            <g id="编组" transform="translate(364.000000, 375.000000)">
                <path d="M8.61956522,0 C9.76342753,0 10.7009389,0.907629542 10.738,2.0508913 L10.7391304,2.11956522 L10.739413,6.75830435 C11.9020652,7.25343478 12.7173913,8.40647826 12.7173913,9.75 C12.7173913,11.5448478 11.2622391,13 9.4673913,13 C8.78828261,13 8.1575,12.7917174 7.63608696,12.4353478 L2.11956522,12.4347826 C0.975702907,12.4347731 0.0381915736,11.5271531 0.00113043478,10.3838913 L0,10.3152174 L0,2.11956522 C0,0.975702907 0.907629542,0.0381915736 2.0508913,0.00113043478 L2.11956522,0 L8.61956522,0 Z M2.11956522,0.847826087 C1.44049703,0.847826087 0.881230787,1.38133798 0.84923913,2.05965217 L0.847826087,2.11956522 L0.847826087,10.3152174 C0.847826087,10.9942856 1.38133798,11.5535518 2.05965217,11.5855435 L2.11956522,11.5869565 L6.786,11.5869565 L6.7243913,11.4936957 L6.68341304,11.4278478 L6.63565217,11.3461739 L6.57969565,11.2427391 L6.52826087,11.1390217 L6.48417391,11.0412391 L6.44121739,10.9366739 C6.37712679,10.7737786 6.32646518,10.6059148 6.28973913,10.4347609 L6.26147826,10.2863913 C6.23199605,10.1091184 6.21724997,9.92970775 6.2173913,9.75 C6.2173913,7.95515217 7.67254348,6.5 9.4673913,6.5 L9.52504348,6.50056522 L9.60276087,6.50282609 L9.71297826,6.50904348 L9.84015217,6.52119565 L9.89158696,6.52741304 L9.89130435,2.11956522 C9.89134873,1.46391599 9.39292999,0.915692087 8.74023913,0.853478261 L8.67947826,0.84923913 L8.61956522,0.847826087 L2.11956522,0.847826087 Z M4.23913043,8.61956522 C4.47325113,8.61956522 4.66304345,8.80935756 4.66304345,9.04347826 C4.66304345,9.27759896 4.47325113,9.4673913 4.23913043,9.4673913 L2.26086957,9.4673913 C2.02674886,9.4673913 1.83695652,9.27759897 1.83695652,9.04347826 C1.83695652,8.80935755 2.02674886,8.61956522 2.26086957,8.61956522 L4.23913043,8.61956522 L4.23913043,8.61956522 Z M5.93478261,5.79347826 C6.16890332,5.79347826 6.35869565,5.9832706 6.35869565,6.2173913 C6.35869565,6.45151201 6.16890332,6.64130435 5.93478261,6.64130435 L2.26086957,6.64130435 C2.02674886,6.64130435 1.83695652,6.45151201 1.83695652,6.2173913 C1.83695652,5.9832706 2.02674886,5.79347826 2.26086957,5.79347826 L5.93478261,5.79347826 L5.93478261,5.79347826 Z M8.19565217,2.9673913 C8.42977288,2.9673913 8.61956522,3.15718364 8.61956522,3.39130435 C8.61956522,3.62542506 8.42977288,3.81521739 8.19565217,3.81521739 L2.26086957,3.81521739 C2.02674886,3.81521739 1.83695652,3.62542506 1.83695652,3.39130435 C1.83695652,3.15718364 2.02674886,2.9673913 2.26086957,2.9673913 L8.19565217,2.9673913 Z" id="形状" fill="#B22924"></path>
                <path d="M9.56348995,10.248186 C9.28692745,10.248186 9.06348995,10.0545402 9.06348995,9.81485267 L9.06348995,8.73151933 C9.06348995,8.49183183 9.28692745,8.298186 9.56348995,8.298186 C9.84005245,8.298186 10.0634899,8.49183183 10.0634899,8.73151933 L10.0634899,9.81485267 C10.0634899,10.0545402 9.84005245,10.248186 9.56348995,10.248186 Z M9.56348995,11.3315193 C9.28692745,11.3315193 9.06348995,11.1378735 9.06348995,10.898186 C9.06348995,10.6584985 9.28692745,10.4648527 9.56348995,10.4648527 C9.84005245,10.4648527 10.0634899,10.6584985 10.0634899,10.898186 C10.0634899,11.1378735 9.84005245,11.3315193 9.56348995,11.3315193 Z" id="形状" fill="#FFFFFF"></path>
            </g>
        </g>
    </g>
</svg>