<?xml version="1.0" encoding="UTF-8"?>
<svg width="49px" height="73px" viewBox="0 0 49 73" version="1.1" xmlns="http://www.w3.org/2000/svg" xmlns:xlink="http://www.w3.org/1999/xlink">
    <title>编组</title>
    <g id="定稿" stroke="none" stroke-width="1" fill="none" fill-rule="evenodd">
        <g id="22上网行为-上网地点" transform="translate(-691.000000, -773.000000)" fill="#B22924" fill-rule="nonzero">
            <g id="编组" transform="translate(691.502246, 773.000000)">
                <path d="M24.5157238,58.5126923 C11.1634099,58.5126923 0,61.139377 0,65.2982945 C0,69.4572119 11.1634099,72.7405678 24.5157238,72.7405678 C37.8680376,72.7405678 48.155886,69.4572119 48.155886,65.2982945 C48.155886,61.3582674 37.8680376,58.5126923 24.5157238,58.5126923 Z" id="路径" fill-opacity="0.3"></path>
                <path d="M24.3451825,0 C11.1814018,0 0.497753746,10.6836481 0.497753746,24.0382082 C0.497753746,30.9062676 2.7871069,36.4388711 6.22113664,41.2083569 C12.5168578,49.2210929 18.4310202,57.4246084 24.1544031,65.8189033 C30.6409037,57.6153878 36.7458454,49.4118723 42.2784489,41.3991363 C47.0479346,34.149518 48.0018318,30.5247088 48.0018318,24.0382082 C48.1926112,10.6836481 37.5089631,0 24.3451825,0 Z" id="路径"></path>
            </g>
        </g>
    </g>
</svg>