<?xml version="1.0" encoding="UTF-8"?>
<svg width="20px" height="18px" viewBox="0 0 20 18" version="1.1" xmlns="http://www.w3.org/2000/svg" xmlns:xlink="http://www.w3.org/1999/xlink">
    <title>编组 4</title>
    <g id="页面-1" stroke="none" stroke-width="1" fill-rule="evenodd">
        <g id="关注群体-作息不规律行为分析" transform="translate(-123.000000, -428.000000)" fill-rule="nonzero">
            <g id="编组" transform="translate(123.000000, 428.000000)">
                <path d="M12.0300512,5.49369231 C12.0300512,6.06092309 11.746205,6.64569231 11.4937435,6.98446154 L9.69235888,9.02307692 L7.90758965,7.00984616 C7.65005119,6.60738462 7.35466656,6.07153846 7.35466656,5.49369231 C7.35593865,4.20314778 8.40181435,3.15727209 9.69235888,3.156 C10.9829783,3.15727165 12.0289863,4.20307314 12.0305127,5.49369231 M6.08589733,5.49369231 C6.08589733,6.40061539 6.48789733,7.14600001 6.85482042,7.71830769 L8.97097425,10.2004615 C9.13595481,10.4349615 9.40457909,10.5746903 9.69129948,10.5751503 C9.97801988,10.5756081 10.2470901,10.4367398 10.4128204,10.2027692 L12.5220512,7.72984615 C12.8977435,7.22353845 13.2997435,6.37015383 13.2997435,5.49369231 C13.2997435,3.50446154 11.6815896,1.88676923 9.69235888,1.88676923 C7.70358964,1.88676923 6.08543579,3.50492308 6.08543579,5.49369231 M8.76974348,5.70784615 C8.76969514,6.037662 8.94562204,6.34244509 9.23124289,6.50736697 C9.51686373,6.67228885 9.86877709,6.67228885 10.1543979,6.50736697 C10.4400188,6.34244509 10.6159457,6.037662 10.6158973,5.70784615 C10.6158226,5.19809768 10.2025689,4.78490452 9.69282041,4.78490452 C9.18307193,4.78490452 8.7698182,5.19809768 8.76974348,5.70784615 M3.00005119,1.38461539 L13.5148204,1.38461539 C14.6211281,1.38461539 15.6069743,2.20569232 15.6868204,3.30876923 C15.7431677,4.07824448 15.3667063,4.81515522 14.710205,5.22046154 C14.5011281,5.35061538 14.3654358,5.57076923 14.3654358,5.81723076 C14.3654358,6.35861537 14.9608204,6.69415384 15.4223589,6.41123076 C16.5721746,5.70827282 17.2090631,4.40153455 17.0543589,3.06276923 C16.8558973,1.29461538 15.280205,0 13.5005127,0 L3.00051272,0 C2.753175,0 2.52462552,0.131953097 2.40095666,0.346153844 C2.2772878,0.560354592 2.2772878,0.824260797 2.40095666,1.03846154 C2.52462552,1.25266229 2.753175,1.38461539 3.00051272,1.38461539 M15.9235896,11.0769231 L3.55389733,11.0769231 C2.46928195,11.0769231 1.50005118,10.2863077 1.39435887,9.20723076 C1.3362492,8.62328764 1.52765822,8.04198618 1.92134086,7.60680773 C2.31502351,7.17162928 2.87430099,6.92311873 3.4611281,6.92261538 L4.32651273,6.92261538 C4.70886371,6.92261538 5.01882042,6.61265867 5.01882042,6.23030768 C5.01882042,5.8479567 4.70886371,5.53799999 4.32651273,5.53799999 L3.60974348,5.53799999 C1.83466656,5.53799999 0.238205017,6.80953846 0.0258973354,8.57169231 C-0.227487275,10.6707692 1.41235888,12.4615385 3.46158965,12.4615385 L15.8308204,12.4615385 C16.9145127,12.4615385 17.8846666,13.2521538 17.9898973,14.3307692 C18.0478593,14.9146797 17.8563991,15.4958973 17.462748,15.9310409 C17.0690969,16.3661844 16.509908,16.6147376 15.9231281,16.6153846 L1.15389733,16.6153846 C0.906531705,16.6153428 0.677938531,16.7472867 0.554243632,16.9615046 C0.430548734,17.1757226 0.430548734,17.439662 0.554243632,17.65388 C0.677938531,17.8680979 0.906531705,18 1.15389733,18 L15.8031281,18 C17.5615896,18 19.1312819,16.7386154 19.3551281,14.994 C19.484998,14.0053693 19.1827575,13.0087011 18.5256525,12.2587212 C17.8685474,11.5087413 16.9202517,11.0781232 15.9231281,11.0769231" id="形状"></path>
            </g>
        </g>
    </g>
</svg>