<?xml version="1.0" encoding="UTF-8"?>
<svg width="16px" height="15px" viewBox="0 0 16 15" version="1.1" xmlns="http://www.w3.org/2000/svg" xmlns:xlink="http://www.w3.org/1999/xlink">
    <title>编组</title>
    <g id="页面-1" stroke="none" stroke-width="1" fill-rule="evenodd">
        <g id="关注群体-新建自定义人群" transform="translate(-613.000000, -805.000000)" fill-rule="nonzero">
            <g id="编组" transform="translate(613.000000, 805.000000)">
                <path d="M9.62521072,15 C8.03678972,15 6.64731607,14.3463158 5.30284243,13.7135527 L4.94955297,13.5509211 C3.70888417,12.9731487 2.48121252,12.3678676 1.26744782,11.7355264 L1.2050794,11.7027633 C0.159026802,11.2144738 -0.292552145,9.95605278 0.198500479,8.89657912 C0.545665286,8.15296386 1.29113062,7.67680114 2.1117899,7.6744739 C2.42047411,7.6744739 2.72205304,7.74157916 3.0078425,7.87421074 L4.13244773,8.42842125 C3.67731617,7.2296055 3.10613197,5.83500027 2.62455305,4.99618451 C2.12915833,4.13052664 1.6574478,3.81907928 1.24178992,3.5439477 L1.20547413,3.51947403 C0.914158346,3.32210561 0.612974151,3.11802667 0.378105743,2.77342142 C0.0544215478,2.2886846 -0.0296573971,1.70842146 0.146789948,1.17868462 C0.314186665,0.673341062 0.704086863,0.272674969 1.20468467,0.0915793867 C1.37469043,0.0308438644 1.55389241,0 1.73442149,0 C2.71810567,0 3.7708688,0.846316219 4.48060562,1.55644777 C4.74507929,1.82013197 5.03797403,2.18526354 5.37034243,2.66565827 C5.61942136,2.2748688 6.00981609,1.96302671 6.47639503,1.79328986 C7.1308687,1.56157934 7.80468447,1.70092145 8.28981604,2.10276353 C8.49667913,1.86531632 8.76103871,1.68495377 9.05757917,1.57894776 C9.85077757,1.29135708 10.7381389,1.57519594 11.2171844,2.26973721 C11.3044212,2.21842143 11.3960002,2.17500037 11.490737,2.13907933 C11.6746844,2.07197406 11.8688949,2.03723722 12.0642896,2.03684249 C12.7685001,2.03684249 13.3945527,2.45960564 13.6227106,3.08881614 C13.641658,3.14013192 15.5707369,8.40986861 15.3820527,10.0752633 C15.1917895,11.7134212 14.7520527,13.5457895 11.9233686,14.5709211 C11.130737,14.8598684 10.3787633,15 9.62521072,15 L9.62521072,15 Z M2.10942148,8.8768423 C1.75178991,8.8768423 1.43836886,9.07815808 1.29113203,9.40184227 C1.18544727,9.62476988 1.17392368,9.88084959 1.25915835,10.1123686 C1.34125085,10.3381477 1.51045863,10.5215747 1.72889516,10.6215791 L1.74192148,10.6275001 C2.01823726,10.774737 3.47007932,11.5389475 5.45323716,12.4618422 L5.80771085,12.6252632 C7.15257924,13.2548685 8.31271077,13.7980264 9.62086863,13.7980264 C10.2354739,13.7980264 10.8544212,13.681579 11.5120528,13.441579 C13.7083685,12.6442106 14.0138948,11.4347369 14.1852106,9.93631594 C14.3020527,8.93763176 13.2070527,5.45605292 12.4894212,3.49578982 C12.4349475,3.34697403 12.2549475,3.23921087 12.0615265,3.23921087 C12.0089332,3.2375775 11.9564864,3.24560507 11.9067896,3.26289508 C11.8467896,3.28578981 11.760737,3.3434214 11.6873159,3.4034214 L11.9269212,4.06144769 C11.9810001,4.21065821 11.9742896,4.37526347 11.9079738,4.51934242 C11.8046926,4.73956684 11.5792372,4.87620175 11.3362174,4.86584947 C11.0931976,4.85549719 10.8801787,4.70018393 10.7960002,4.471974 L10.292316,3.09434246 C10.1754739,2.771053 9.80836862,2.58355301 9.467316,2.70986878 C9.30586864,2.76750037 9.17402653,2.88750036 9.10139496,3.04263193 C9.02845831,3.19727517 9.02133693,3.37488239 9.08165811,3.53486877 L9.27507917,4.06776349 C9.32966216,4.21772297 9.32234022,4.38323719 9.25472869,4.52779108 C9.18711715,4.67234498 9.06477197,4.7840599 8.91468443,4.83828977 C8.60242992,4.9508547 8.25790602,4.78997103 8.1437634,4.47828978 L7.71626341,3.31065823 C7.59744763,2.98973719 7.2295529,2.80144772 6.88968449,2.92815825 C6.60468449,3.03197404 6.12231609,3.37618454 6.32757925,3.93868454 L6.63823713,4.79052662 C6.74684495,5.08811851 6.60571996,5.41890721 6.31573715,5.54644764 C6.02573125,5.67794546 5.68359681,5.55792881 5.5392898,5.27407923 L5.53139505,5.25907924 C4.99257928,4.26513191 4.21021088,2.99684247 3.62994775,2.41776352 C2.66205305,1.45223724 1.90889518,1.12578988 1.61836886,1.23078988 C1.45889517,1.2900004 1.3412636,1.40842145 1.28915834,1.56473724 C1.23271097,1.73842145 1.26547413,1.93815827 1.38034255,2.11184249 C1.48573728,2.26618458 1.66455307,2.39013195 1.90534253,2.54802668 L1.91323727,2.55315827 C2.38771095,2.87210562 3.03784251,3.30907929 3.66784249,4.404474 C4.21455301,5.35736871 4.95231614,7.10960549 5.74573715,9.33947385 L5.77889505,9.43302648 C5.86317061,9.66685473 5.79329079,9.92843189 5.60363189,10.0890791 C5.42915822,10.2430265 5.16192138,10.2785528 4.9444214,10.1715791 L2.48757936,8.96289491 C2.36996475,8.90510598 2.2404608,8.8756364 2.10942148,8.8768423 L2.10942148,8.8768423 Z" id="形状"></path>
            </g>
        </g>
    </g>
</svg>