<?xml version="1.0" encoding="UTF-8"?>
<svg width="238px" height="118px" viewBox="0 0 238 118" version="1.1" xmlns="http://www.w3.org/2000/svg" xmlns:xlink="http://www.w3.org/1999/xlink">
    <title>形状结合</title>
    <g id="定稿" stroke="none" stroke-width="1" fill="none" fill-rule="evenodd">
        <g id="28消费情况-消费地点" transform="translate(-455.000000, -810.000000)" fill="#FFFFFF">
            <g id="编组-6" transform="translate(455.828427, 810.000000)">
                <path d="M229.171573,0 C233.589851,-8.11624501e-16 237.171573,3.581722 237.171573,8 L237.171573,110 C237.171573,114.418278 233.589851,118 229.171573,118 L26.1715729,118 C21.7532949,118 18.1715729,114.418278 18.1715729,110 L18.171,43 L2,43 C0.8954305,43 -2.39808173e-14,42.1045695 -2.39808173e-14,41 C-2.39808173e-14,40.469567 0.210713681,39.9608592 0.585786438,39.5857864 L18.171,22 L18.1715729,8 C18.1715729,3.581722 21.7532949,-1.85291076e-15 26.1715729,0 L229.171573,0 Z" id="形状结合"></path>
            </g>
        </g>
    </g>
</svg>