<?xml version="1.0" encoding="UTF-8"?>
<svg width="30px" height="35px" viewBox="0 0 30 35" version="1.1" xmlns="http://www.w3.org/2000/svg" xmlns:xlink="http://www.w3.org/1999/xlink">
    <title>编组 9</title>
    <g id="定稿" stroke="none" stroke-width="1" fill="none" fill-rule="evenodd">
        <g id="28消费情况-消费地点" transform="translate(-424.000000, -832.000000)" fill="#B22924">
            <g id="编组-9" transform="translate(424.000000, 832.000000)">
                <ellipse id="椭圆形" opacity="0.298200335" cx="15" cy="31" rx="15" ry="4"></ellipse>
                <ellipse id="椭圆形" opacity="0.298200335" cx="15" cy="31" rx="10" ry="2.66666667"></ellipse>
                <g id="编组" transform="translate(3.000000, 0.000000)" fill-rule="nonzero">
                    <path d="M11.8750522,0 C5.32621906,0 0,5.31795815 0,11.8543999 C0,14.281041 0.731090169,16.6168121 2.09827009,18.5818751 C2.16642256,18.699593 2.23560765,18.8131805 2.3171841,18.9236701 L10.9849396,30.3299159 C11.2203754,30.591167 11.536355,30.7357329 11.8750522,30.7357329 C12.2096189,30.7357329 12.5276637,30.5901344 12.8033715,30.2813831 L21.430855,18.9226375 C21.5155293,18.80905 21.5888449,18.6851365 21.6280842,18.6128535 C23.0124275,16.6312803 23.753309,14.2716357 23.7501147,11.8543999 C23.7501147,5.31795815 18.4228527,0 11.8750522,0 Z M11.8750522,16.0932772 C9.53556415,16.0921444 7.63819971,14.1980131 7.63307702,11.8585304 C7.69518322,9.56067095 9.57583731,7.7301601 11.8745359,7.7301601 C14.1732344,7.7301601 16.0538885,9.56067095 16.1159947,11.8585304 C16.1103051,14.1972069 14.213735,16.0905445 11.8750522,16.0922446 L11.8750522,16.0932772 Z" id="形状"></path>
                </g>
            </g>
        </g>
    </g>
</svg>