<?xml version="1.0" encoding="UTF-8"?>
<svg width="14px" height="14px" viewBox="0 0 14 14" version="1.1" xmlns="http://www.w3.org/2000/svg" xmlns:xlink="http://www.w3.org/1999/xlink">
    <title>编组</title>
    <g id="页面-1" stroke="none" stroke-width="1" fill="none" fill-rule="evenodd">
        <g id="关注群体-作息不规律行为分析" transform="translate(-364.000000, -464.000000)">
            <g id="编组" transform="translate(364.000000, 464.000000)">
                <path d="M6.5,0 C2.92113095,0 0,2.92113095 0,6.5 C0,10.030506 2.83407738,12.922619 6.35491071,13 L6.35491071,11.9166667 C5.890625,11.6458333 5.16517857,10.1755952 5.01041667,7.61235119 L5.00074405,7.45758929 L5.15550595,7.45758929 C5.33928571,7.45758929 5.52306548,7.4672619 5.72619048,7.47693452 C5.9389881,7.48660714 6.15178571,7.48660714 6.37425595,7.49627976 L6.50967262,7.49627976 C9.72098214,7.5639881 12.4583333,7.00297619 12.9806548,6.89657738 C13,6.78050595 13.0096726,6.67410714 13.0096726,6.50967262 C12.9903274,2.92113095 10.078869,0.00967261905 6.5,0 Z M1.05431548,5.90997024 C1.27678571,3.80133929 2.65997024,2.05059524 4.64285714,1.34449405 L4.94270833,1.23809524 L4.8266369,1.53794643 C4.23660714,3.01785714 3.93675595,4.64285714 3.95610119,6.22916667 L3.95610119,6.38392857 L3.80133929,6.37425595 C2.94047619,6.30654762 2.03125,6.20014881 1.1703869,6.07440476 L1.03497024,6.05505952 L1.05431548,5.90997024 Z M4.64285714,11.655506 C2.72767857,10.9590774 1.36383929,9.27604167 1.07366071,7.2641369 L1.04464286,7.07068452 L1.23809524,7.09970238 C1.80877976,7.18675595 2.72767857,7.30282738 3.859375,7.38988095 L3.99479167,7.39955357 L3.99479167,7.53497024 C4.03348214,8.8891369 4.3139881,10.2142857 4.8266369,11.4717262 L4.95238095,11.7715774 L4.64285714,11.655506 L4.64285714,11.655506 Z M7.88318452,6.47098214 C7.43824405,6.5 6.98363095,6.5 6.5,6.5 C6.01636905,6.5 5.56175595,6.5 5.11681548,6.47098214 L4.98139881,6.46130952 L4.98139881,6.32589286 C5.01041667,2.91145833 5.99702381,1.04464286 6.5,1.04464286 C6.99330357,1.04464286 7.97991071,2.91145833 8.01860119,6.32589286 L8.01860119,6.46130952 L7.88318452,6.47098214 Z M11.9650298,6.09375 L11.8296131,6.11309524 C11.4813988,6.17113095 10.5334821,6.30654762 9.19866071,6.40327381 L9.04389881,6.41294643 L9.04389881,6.25818452 C9.06324405,4.671875 8.76339286,3.046875 8.1733631,1.56696429 L8.05729167,1.2671131 L8.35714286,1.3735119 C10.3497024,2.08928571 11.7328869,3.84970238 11.9553571,5.95833333 L11.9650298,6.09375 L11.9650298,6.09375 Z" id="形状" fill="#B22924" fill-rule="nonzero"></path>
                <path d="M12.6790262,8.92237443 L12.6318823,9.03196347 L12.6790262,8.92237443 L10.7461287,8.0456621 C10.6046972,7.9847793 10.4279078,7.9847793 10.2746903,8.0456621 L8.34179284,8.92237443 C8.12964556,9.01978691 8,9.22678843 8,9.47031963 L8,10.8462709 C8,11.7351598 8.37715072,12.5266362 9.07252237,13.086758 L10.1686167,13.890411 C10.2746903,13.9634703 10.3807639,14 10.4986235,14 C10.6164831,14 10.7343427,13.9634703 10.8286304,13.890411 L11.9365107,13.086758 C12.6200964,12.5266362 12.9972471,11.7351598 12.9972471,10.8584475 L12.9972471,9.47031963 C13.020819,9.23896499 12.8911734,9.01978691 12.6790262,8.92237443 L12.6790262,8.92237443 Z" id="形状" fill="#B22924" fill-rule="nonzero"></path>
                <path d="M10.4998542,13.2129376 C10.2306154,13.2129376 10.0123542,12.9946764 10.0123542,12.7254376 C10.0123542,12.4561988 10.2306154,12.2379376 10.4998542,12.2379376 C10.7690931,12.2379376 10.9873542,12.4561988 10.9873542,12.7254376 C10.9873542,12.9946764 10.7690931,13.2129376 10.4998542,13.2129376 Z M10.9989614,11.5066876 C10.9989614,11.7829376 10.7761043,12.0057947 10.4998543,12.0057947 C10.2236042,12.0057947 10.0007471,11.7829376 10.0007471,11.5066876 L10.0007471,9.56829474 C10.0007471,9.29204474 10.2236043,9.0691876 10.4998543,9.0691876 C10.7761042,9.0691876 10.9989614,9.29204474 10.9989614,9.56829474 L10.9989614,11.5066876 Z" id="形状结合" fill="#FFFFFF"></path>
            </g>
        </g>
    </g>
</svg>