<?xml version="1.0" encoding="UTF-8"?>
<svg width="320px" height="288px" viewBox="0 0 320 288" version="1.1" xmlns="http://www.w3.org/2000/svg" xmlns:xlink="http://www.w3.org/1999/xlink">
    <title>编组 8</title>
    <defs>
        <rect id="path-1" x="0" y="0" width="320" height="288"></rect>
        <linearGradient x1="49.9684134%" y1="-2.3164557%" x2="49.9684134%" y2="100.703737%" id="linearGradient-3">
            <stop stop-color="#FDFEFF" offset="0%"></stop>
            <stop stop-color="#FFF9F9" offset="100%"></stop>
        </linearGradient>
        <path d="M171.049682,25.5014931 C166.909023,25.7626537 163.027417,27.4496672 160.310504,30.305585 C160.05145,30.5646395 159.792395,30.823694 159.535447,31.2133288 C157.075482,34.0692467 155.264207,37.8329083 155.264207,41.8556245 L155.264207,163.078386 C155.264207,174.367265 146.20783,183.465764 134.950543,183.465764 L36.0991387,183.465764 L36.0991387,40.9478807 C36.3581932,36.7945842 37.9104141,33.0309226 40.6273271,30.305585 C43.6032946,27.3190868 47.6154801,25.5014931 52.1436684,25.5014931 L151.641656,25.5014931 L170.531573,25.5014931 C170.662154,25.5014931 170.790628,25.5014931 171.049682,25.5014931 Z" id="path-4"></path>
        <filter x="-28.5%" y="-17.4%" width="157.1%" height="148.7%" filterUnits="objectBoundingBox" id="filter-5">
            <feOffset dx="0" dy="11" in="SourceAlpha" result="shadowOffsetOuter1"></feOffset>
            <feGaussianBlur stdDeviation="11" in="shadowOffsetOuter1" result="shadowBlurOuter1"></feGaussianBlur>
            <feColorMatrix values="0 0 0 0 0.870588235   0 0 0 0 0.788235294   0 0 0 0 0.784313725  0 0 0 1 0" type="matrix" in="shadowBlurOuter1"></feColorMatrix>
        </filter>
        <linearGradient x1="-0.0427553444%" y1="49.9643621%" x2="99.7722746%" y2="49.9643621%" id="linearGradient-6">
            <stop stop-color="#DEC9C8" offset="0%"></stop>
            <stop stop-color="#B09898" offset="100%"></stop>
        </linearGradient>
        <linearGradient x1="-0.0442342373%" y1="50.0170126%" x2="100.020416%" y2="50.0170126%" id="linearGradient-7">
            <stop stop-color="#DEC9C8" offset="0%"></stop>
            <stop stop-color="#D0BCBD" offset="100%"></stop>
        </linearGradient>
    </defs>
    <g id="页面-1" stroke="none" stroke-width="1" fill="none" fill-rule="evenodd">
        <g id="群体对比" transform="translate(-914.000000, -515.000000)">
            <g id="编组-8" transform="translate(914.000000, 515.000000)">
                <g id="编组-5" transform="translate(0.000000, 0.000000)">
                    <mask id="mask-2" fill="white">
                        <use xlink:href="#path-1"></use>
                    </mask>
                    <g id="蒙版"></g>
                    <g id="编组-6" mask="url(#mask-2)">
                        <g transform="translate(40.000000, 43.200000)">
                            <g id="编组-3" stroke-width="1" fill="none" fill-rule="evenodd">
                                <circle id="Oval" fill-opacity="0.0500437063" fill="#B22924" fill-rule="nonzero" cx="113.43849" cy="100.8" r="100.8"></circle>
                                <path d="M152.41882,45.8804468 L98.7229305,45.8804468 L98.7229305,25.5014931 L169.109933,25.5014931 C169.238407,25.5014931 169.368987,25.5014931 169.497461,25.5014931 C180.495694,25.7626537 189.423596,34.8485163 189.423596,45.8804468 L166.133965,45.8804468" id="Path" fill="#B09898" fill-rule="nonzero"></path>
                                <g id="Path" fill-rule="nonzero">
                                    <use fill="black" fill-opacity="1" filter="url(#filter-5)" xlink:href="#path-4"></use>
                                    <use fill="url(#linearGradient-3)" xlink:href="#path-4"></use>
                                </g>
                                <path d="M135.597127,53.2792959 L106.227086,53.2792959 C105.192975,53.2792959 104.287337,52.369446 104.287337,51.3311219 C104.287337,50.2927978 105.192975,49.385054 106.227086,49.385054 L135.597127,49.385054 C136.633345,49.385054 137.538982,50.2927978 137.538982,51.3311219 C137.538982,52.369446 136.761819,53.2792959 135.597127,53.2792959 Z" id="Path" fill="#DEC9C8" fill-rule="nonzero"></path>
                                <path d="M92.3834668,53.2792959 L54.083418,53.2792959 C53.0493061,53.2792959 52.1436684,52.369446 52.1436684,51.3311219 C52.1436684,50.2927978 53.0493061,49.385054 54.083418,49.385054 L92.511941,49.385054 C93.5460529,49.385054 94.4516905,50.2927978 94.4516905,51.3311219 C94.4516905,52.369446 93.5460529,53.2792959 92.3834668,53.2792959 Z" id="Path" fill="#DEC9C8" fill-rule="nonzero"></path>
                                <path d="M116.966264,72.4893452 L78.7967957,72.4893452 C77.7626838,72.4893452 76.8570461,71.5794953 76.8570461,70.5411712 C76.8570461,69.502847 77.7626838,68.5951032 78.7967957,68.5951032 L116.966264,68.5951032 C118.000376,68.5951032 118.90812,69.502847 118.90812,70.5411712 C119.036594,71.5794953 118.130956,72.4893452 116.966264,72.4893452 Z" id="Path" fill="#DEC9C8" fill-rule="nonzero"></path>
                                <path d="M66.505397,72.4893452 L54.083418,72.4893452 C53.0493061,72.4893452 52.1436684,71.5794953 52.1436684,70.5411712 C52.1436684,69.502847 53.0493061,68.5951032 54.083418,68.5951032 L66.505397,68.5951032 C67.5395088,68.5951032 68.4451465,69.502847 68.4451465,70.5411712 C68.4451465,71.5794953 67.5395088,72.4893452 66.505397,72.4893452 Z" id="Path" fill-opacity="0.238745629" fill="#DEC9C8" fill-rule="nonzero"></path>
                                <path d="M135.597127,91.7015006 L112.179021,91.7015006 C111.14491,91.7015006 110.237166,90.795863 110.237166,89.7427959 C110.237166,88.7107902 111.14491,87.8051525 112.179021,87.8051525 L135.597127,87.8051525 C136.633345,87.8051525 137.538982,88.7107902 137.538982,89.7427959 C137.538982,90.795863 136.761819,91.7015006 135.597127,91.7015006 Z" id="Path" fill-opacity="0.238745629" fill="#DEC9C8" fill-rule="nonzero"></path>
                                <path d="M100.921735,91.7015006 L54.083418,91.7015006 C53.0493061,91.7015006 52.1436684,90.795863 52.1436684,89.7427959 C52.1436684,88.7107902 53.0493061,87.8051525 54.083418,87.8051525 L100.921735,87.8051525 C101.957953,87.8051525 102.86359,88.7107902 102.86359,89.7427959 C102.86359,90.795863 102.086427,91.7015006 100.921735,91.7015006 Z" id="Path" fill="#DEC9C8" fill-rule="nonzero"></path>
                                <path d="M116.966264,110.909444 L91.2187747,110.909444 C90.1825567,110.909444 89.276919,110.003806 89.276919,108.950739 C89.276919,107.918733 90.1825567,107.013096 91.2187747,107.013096 L116.966264,107.013096 C118.002482,107.013096 118.90812,107.918733 118.90812,108.950739 C119.036594,110.003806 118.130956,110.909444 116.966264,110.909444 Z" id="Path" fill="#DEC9C8" fill-rule="nonzero"></path>
                                <path d="M79.9614878,110.909444 L54.083418,110.909444 C53.0493061,110.909444 52.1436684,110.003806 52.1436684,108.950739 C52.1436684,107.918733 53.0493061,107.013096 54.083418,107.013096 L80.089962,107.013096 C81.12618,107.013096 82.0318177,107.918733 82.0318177,108.950739 C82.0318177,110.003806 81.12618,110.909444 79.9614878,110.909444 Z" id="Path" fill-opacity="0.238745629" fill="#DEC9C8" fill-rule="nonzero"></path>
                                <path d="M135.597127,130.117387 L117.612847,130.117387 C116.578736,130.117387 115.673098,129.211749 115.673098,128.179744 C115.673098,127.126676 116.578736,126.221039 117.612847,126.221039 L135.597127,126.221039 C136.633345,126.221039 137.538982,127.126676 137.538982,128.179744 C137.538982,129.211749 136.761819,130.117387 135.597127,130.117387 Z" id="Path" fill="#DEC9C8" fill-rule="nonzero"></path>
                                <path d="M105.968032,130.117387 L75.8208282,130.117387 C74.7867163,130.117387 73.8810786,129.211749 73.8810786,128.179744 C73.8810786,127.126676 74.7867163,126.221039 75.8208282,126.221039 L105.968032,126.221039 C107.00425,126.221039 107.909888,127.126676 107.909888,128.179744 C107.909888,129.211749 107.00425,130.117387 105.968032,130.117387 Z" id="Path" fill-opacity="0.238745629" fill="#DEC9C8" fill-rule="nonzero"></path>
                                <path d="M64.5635413,130.117387 L54.083418,130.117387 C53.0493061,130.117387 52.1436684,129.211749 52.1436684,128.179744 C52.1436684,127.126676 53.0493061,126.221039 54.083418,126.221039 L64.5635413,126.221039 C65.5997593,126.221039 66.505397,127.126676 66.505397,128.179744 C66.505397,129.211749 65.5997593,130.117387 64.5635413,130.117387 Z" id="Path" fill="#DEC9C8" fill-rule="nonzero"></path>
                                <path d="M116.966264,149.32533 L99.1104592,149.32533 C98.0763474,149.32533 97.1707097,148.419692 97.1707097,147.387687 C97.1707097,146.33462 98.0763474,145.428982 99.1104592,145.428982 L116.966264,145.428982 C118.000376,145.428982 118.906014,146.33462 118.906014,147.387687 C119.036594,148.419692 118.130956,149.32533 116.966264,149.32533 Z" id="Path" fill="#DEC9C8" fill-rule="nonzero"></path>
                                <path d="M87.3371695,149.32533 L54.083418,149.32533 C53.0493061,149.32533 52.1436684,148.419692 52.1436684,147.387687 C52.1436684,146.33462 53.0493061,145.428982 54.083418,145.428982 L87.3371695,145.428982 C88.3712814,145.428982 89.276919,146.33462 89.276919,147.387687 C89.276919,148.419692 88.3712814,149.32533 87.3371695,149.32533 Z" id="Path" fill-opacity="0.238745629" fill="#DEC9C8" fill-rule="nonzero"></path>
                                <path d="M91.4778292,167.374899 L117.612847,167.374899 C117.612847,171.77672 119.424123,175.799436 122.271616,178.663778 C125.117003,181.654489 129.129189,183.339396 133.526797,183.339396 L15.9139494,183.339396 C11.5163413,183.339396 7.50415585,181.507059 4.65876866,178.663778 C1.81127534,175.799436 0,171.77672 0,167.374899 L77.373049,167.374899 C77.373049,167.374899 91.7347775,167.501267 91.4778292,167.374899 Z" id="Path" fill="#DEC9C8" fill-rule="nonzero"></path>
                            </g>
                            <path d="M226.6736,49.77312 C230.296,49.77312 233.2336,46.83712 233.2336,43.21312 C233.2336,39.59072 230.296,36.65312 226.6736,36.65312 C223.0496,36.65312 220.1136,39.59072 220.1136,43.21312 C220.1136,46.83712 223.0496,49.77312 226.6736,49.77312 Z" id="Path" fill="#D07D7A" fill-rule="nonzero"></path>
                            <path d="M236.2736,24.17312 C238.7472,24.17312 240.7536,22.16832 240.7536,19.69312 C240.7536,17.21952 238.7472,15.21312 236.2736,15.21312 C233.7984,15.21312 231.7936,17.21952 231.7936,19.69312 C231.7936,22.16832 233.7984,24.17312 236.2736,24.17312 Z" id="Path" fill="#F6E7E7" fill-rule="nonzero"></path>
                            <path d="M29.9536,16.89472 C34.5488,16.89472 38.2736,13.16832 38.2736,8.57472 C38.2736,3.97952 34.5488,0.25472 29.9536,0.25472 C25.3584,0.25472 21.6336,3.97952 21.6336,8.57472 C21.6336,13.16832 25.3584,16.89472 29.9536,16.89472 Z" id="Path" fill="#E3B4B2" fill-rule="nonzero"></path>
                        </g>
                    </g>
                </g>
                <g id="编组-7" transform="translate(177.894919, 129.214939)" fill-rule="nonzero">
                    <polygon id="Path" fill="#AF9798" points="65.7850991 68.9127083 49.4478168 52.5901689 53.1946294 48.8623115 69.5171688 65.1848509"></polygon>
                    <path d="M71.4632367,74.6624544 L58.9380571,62.1309564 C57.8913084,61.0989507 57.8913084,59.3929821 58.9380571,58.339915 C59.9826996,57.2868479 61.6886682,57.2868479 62.7333108,58.339915 L75.2605965,70.871413 C76.3073451,71.92448 76.3073451,73.6093873 75.2605965,74.6624544 C74.215954,75.7155215 72.5099853,75.7155215 71.4632367,74.6624544 Z" id="Path" fill="#AE9798"></path>
                    <path d="M70.5723419,75.4627854 L54.4562037,59.3508594 C54.0813118,58.9717552 54.0813118,58.3609763 54.4562037,57.9818722 L58.575802,53.8538493 C58.9506939,53.4958065 59.5572605,53.4958065 59.9447892,53.8538493 L76.0609275,69.9868367 C76.4358193,70.3448795 76.4358193,70.9556584 76.0609275,71.3558238 L71.9413291,75.4627854 C71.5538004,75.8418895 70.9472338,75.8418895 70.5723419,75.4627854 Z" id="Path" fill="url(#linearGradient-6)"></path>
                    <path d="M30.9559592,0 C13.8562563,0 0,13.8583625 0,30.9601715 C0,48.0409192 13.8562563,61.8992817 30.9433224,61.8992817 C48.0409192,61.8992817 61.8971755,48.0619805 61.8971755,30.9601715 C61.8971755,13.8583625 48.0409192,0 30.9559592,0 Z M30.9559592,56.1705969 C17.2281771,56.1705969 6.10778894,44.881718 6.10778894,30.9391102 C6.10778894,16.9965023 17.2281771,5.72868479 30.9559592,5.72868479 C44.6837414,5.72868479 55.8020234,17.0175637 55.8020234,30.9601715 C55.8020234,44.881718 44.6711046,56.1705969 30.9559592,56.1705969 Z" id="Shape" fill="url(#linearGradient-7)"></path>
                </g>
            </g>
        </g>
    </g>
</svg>