<?xml version="1.0" encoding="UTF-8"?>
<svg width="64px" height="64px" viewBox="0 0 64 64" version="1.1" xmlns="http://www.w3.org/2000/svg" xmlns:xlink="http://www.w3.org/1999/xlink">
    <title>编组 3</title>
    <g id="页面-1" stroke="none" stroke-width="1" fill="none" fill-rule="evenodd">
        <g id="行为轨迹-不在校人员" transform="translate(-684.000000, -233.000000)">
            <g id="编组-3" transform="translate(684.000000, 233.000000)">
                <circle id="椭圆形" fill="#B22924" opacity="0.130417597" cx="32" cy="32" r="32"></circle>
                <circle id="椭圆形" fill="#B22924" cx="31.6" cy="31.6" r="25.6"></circle>
                <g id="编组" transform="translate(18.000000, 18.000000)" fill-rule="nonzero">
                    <polygon id="路径" fill="#202425" opacity="0.01" points="0 0 27 0 27 27 0 27"></polygon>
                    <path d="M8.1,4.50000001 C8.1,4.26130517 8.19482115,4.03238664 8.36360389,3.86360389 C8.53238662,3.69482115 8.76130515,3.59999999 8.99999999,3.59999999 L24.3,3.59999999 C24.5386948,3.59999999 24.7676134,3.69482115 24.9363961,3.86360389 C25.1051788,4.03238664 25.2,4.26130517 25.2,4.50000001 L25.2,22.5 C25.2,22.7386948 25.1051788,22.9676134 24.9363961,23.1363961 C24.7676134,23.3051788 24.5386948,23.4 24.3,23.4 L8.99999999,23.4 C8.76130515,23.4 8.53238662,23.3051788 8.36360389,23.1363961 C8.19482115,22.9676134 8.1,22.7386948 8.1,22.5 L8.1,4.50000001 Z" id="路径" fill-opacity="0.317007212" fill="#FFFFFF"></path>
                    <path d="M11.3467688,1.36304222 C11.5697113,1.53355882 11.700338,1.79832374 11.7000006,2.079 L11.7000006,24.9228 C11.7000006,25.2033181 11.5693127,25.4678217 11.3464108,25.6381308 C11.1235089,25.8084398 10.8339427,25.8650763 10.5633,25.7913 L2.46329999,23.5818 C2.07130391,23.4749435 1.79951083,23.1186991 1.79999935,22.7124 L1.79999935,4.2876 C1.79999935,3.88163511 2.07162675,3.52586876 2.46329999,3.41909999 L10.5633,1.2096 C10.8340954,1.13578188 11.1238263,1.19252562 11.3467688,1.36304222 Z M17.892,8.12340001 L22.2489,13.2075 C22.3929395,13.3759008 22.3929395,13.6240992 22.2489,13.7925 L17.892,18.8766 C17.7694379,19.0199213 17.5705122,19.0716208 17.3936763,19.0061111 C17.2168404,18.9406015 17.0996079,18.7717797 17.1,18.5832 L17.1,15.3 L14.85,15.3 C14.6014719,15.3 14.4,15.0985281 14.4,14.85 L14.4,12.15 C14.4,11.9014719 14.6014719,11.7 14.85,11.7 L17.1,11.7 L17.1,8.41679999 C17.0996079,8.2282203 17.2168404,8.05939853 17.3936763,7.99388887 C17.5705122,7.92837921 17.7694379,7.98007873 17.892,8.12340001 Z M8.99999999,11.7 C8.76130515,11.7 8.53238662,11.7948212 8.36360389,11.9636039 C8.19482115,12.1323866 8.1,12.3613052 8.1,12.6 L8.1,14.4 C8.1,14.8970563 8.50294373,15.3 9,15.3 C9.49705628,15.3 9.90000001,14.8970563 9.90000001,14.4 L9.90000001,12.6 C9.90000001,12.3613052 9.80517886,12.1323866 9.63639611,11.9636039 C9.46761337,11.7948211 9.23869484,11.7 8.99999999,11.7 Z" id="形状结合" fill="#FFFFFF"></path>
                </g>
            </g>
        </g>
    </g>
</svg>