<?xml version="1.0" encoding="UTF-8"?>
<svg width="20px" height="18px" viewBox="0 0 20 18" version="1.1" xmlns="http://www.w3.org/2000/svg" xmlns:xlink="http://www.w3.org/1999/xlink">
    <title>编组 6</title>
    <g id="页面-1" stroke="none" stroke-width="1" fill-rule="evenodd">
        <g id="关注群体-作息不规律行为分析" transform="translate(-122.000000, -239.000000)" fill-rule="nonzero">
            <g id="编组" transform="translate(122.000000, 239.000000)">
                <path d="M18.4442357,16.445309 C18.4345739,16.4550566 18.4217837,16.4610844 18.4081159,16.4623315 L4.61113142,16.4292459 L4.61113142,13.5949456 C4.61113142,13.4550622 4.75558833,13.2361124 4.90158463,13.1760763 C4.93922151,13.1607047 8.66957853,11.5276835 11.5276835,11.5276835 C14.3795864,11.5276835 18.1161456,13.1607047 18.1768733,13.186852 C18.3021213,13.236804 18.4442357,13.4550399 18.4442357,13.5957487 L18.4442357,16.445309 Z M9.23375192,6.74369465 L9.23375192,4.22833735 C9.23364092,2.74468125 10.4344292,1.54085881 11.9180853,1.53697688 C13.401853,1.54036799 14.6026636,2.74459201 14.6017048,4.22833735 L14.6017048,6.74367234 C14.6026636,8.22744 13.401853,9.4316417 11.9180853,9.43505512 C10.4340499,9.43202097 9.23281545,8.22770771 9.23375192,6.74369465 Z M18.773999,11.7697019 C18.65415,11.7175189 16.5491172,10.7999331 14.1866723,10.3034252 C15.402029,9.52746293 16.1378556,8.18547498 16.138815,6.74369465 L16.138815,4.22833735 C16.138815,1.89663554 14.2451913,0 11.918063,0 C9.59022081,0 7.69661942,1.89663554 7.69661942,4.22833735 L7.69661942,6.74367234 C7.69661942,8.16387896 8.40136834,9.42037518 9.4764847,10.1866103 C6.87893755,10.6362004 4.4150493,11.7112944 4.2997738,11.7620495 C3.60124936,12.0501825 3.07399838,12.8379691 3.07399838,13.5964626 L3.07399838,16.6321102 L3.08713894,16.6321102 C3.19043399,17.4148547 3.8577022,18 4.64725123,18 L18.4081159,18 C19.0967124,18 19.7123554,17.549696 19.9405415,16.8780104 L19.9813687,16.7588976 L19.9813687,13.5949456 C19.9813687,12.8310753 19.4526007,12.0417717 18.773999,11.7697019 Z" id="形状"></path>
                <path d="M6.23643338,9.9521997 C4.65336415,9.9521997 2.41005435,11.056609 1.67926972,11.4822828 C1.65164486,11.4989205 1.62287463,11.5135777 1.59317564,11.5261442 C1.56603335,11.5587091 1.5468051,11.5971198 1.53699919,11.6383632 L1.53699919,13.8416713 C1.53699919,14.2660734 1.19293518,14.6100928 0.768577679,14.6100928 C0.344064005,14.6100928 -8.11631149e-16,14.2660734 -8.11631149e-16,13.8416713 L-8.11631149e-16,11.6344813 C-8.11631149e-16,11.0158041 0.392721999,10.3940482 0.941390529,10.1343158 C1.18271723,9.99603874 2.49916028,9.26596803 4.00543867,8.80250119 C3.53202159,8.24609111 3.23545546,7.5344038 3.23545546,6.74826819 L3.23545546,4.72482291 C3.23661558,2.96561665 4.661775,1.53954252 6.42086972,1.53697688 C6.84536108,1.53697688 7.18940278,1.88104088 7.18940278,2.30555456 C7.18940278,2.72991206 6.84533877,3.07397607 6.42086972,3.07397607 C5.51171706,3.07397607 4.77247696,3.8148671 4.77247696,4.72401976 L4.77247696,6.74755427 C4.77198614,7.65860327 5.50982071,8.39773182 6.42086972,8.3990258 C6.84536108,8.3990258 7.18940278,8.7430898 7.18940278,9.16760348 C7.18940278,9.59196098 6.84533877,9.93602499 6.42086972,9.93602499" id="路径"></path>
            </g>
        </g>
    </g>
</svg>