<?xml version="1.0" encoding="UTF-8"?>
<svg width="13px" height="13px" viewBox="0 0 13 13" version="1.1" xmlns="http://www.w3.org/2000/svg" xmlns:xlink="http://www.w3.org/1999/xlink">
    <title>编组 6</title>
    <g id="页面-1" stroke="none" stroke-width="1" fill="none" fill-rule="evenodd">
        <g id="关注群体-作息不规律行为分析" transform="translate(-364.000000, -819.000000)" fill="#B22924" fill-rule="nonzero">
            <g id="编组" transform="translate(364.000000, 819.000000)">
                <path d="M6.49934233,0 C2.90980821,0.000158641012 0,2.91009546 0,6.49962958 C0,10.0891637 2.90980821,12.9991005 6.49934233,12.9992592 C6.51579324,13.0002469 6.5322886,13.0002469 6.54873951,12.9992592 C6.56519042,13.0002469 6.58168578,13.0002469 6.59813669,12.9992592 L12.2437149,12.9992592 C12.4437687,12.9987569 12.6236567,12.8773314 12.6989373,12.6919815 C12.7742179,12.5066316 12.7299428,12.2941615 12.5868954,12.1543073 L10.2236301,9.8560383 C10.0287123,9.66650497 9.71705307,9.67086995 9.52751975,9.86578774 C9.33798642,10.0607055 9.3423514,10.3723647 9.53726919,10.5618981 L11.032184,12.0145653 L6.59943662,12.0145653 C6.58298571,12.0135775 6.56649035,12.0135775 6.55003944,12.0145653 C6.53358852,12.0135775 6.51709317,12.0135775 6.50064225,12.0145653 C4.17499969,12.0126525 2.10093073,10.5508599 1.31715182,8.36126916 C0.533372905,6.17167843 1.20864331,3.72574106 3.00478022,2.24840928 C4.80091713,0.771077506 7.33118553,0.580442848 9.32839929,1.77197723 C11.325613,2.96351162 12.3597423,5.28065995 11.9128838,7.56296897 C11.8787661,7.73591921 11.9396545,7.91391886 12.0725518,8.02973818 C12.2054491,8.14555749 12.3901007,8.1815447 12.5567643,8.12410756 C12.723428,8.06667043 12.8467029,7.92456283 12.8800287,7.75145824 C13.2519029,5.84455438 12.7521228,3.87123938 11.5173849,2.37124102 C10.282647,0.871242651 8.44216769,0.00153697401 6.49934233,0 Z" id="路径"></path>
                <path d="M6.73072914,10.8745302 C7.01486298,10.8724071 7.2446766,10.6425935 7.24679973,10.3584597 L7.24679973,9.01628615 L8.65721934,9.01628615 C8.94223725,9.01628614 9.17328991,8.78523347 9.17328991,8.50021556 C9.17328991,8.21519765 8.94223725,7.98414498 8.65721934,7.98414497 L7.24679973,7.98414497 L7.24679973,7.08979595 L8.62277131,7.08979595 C8.90084201,7.07992915 9.12116857,6.85164607 9.12116857,6.57340038 C9.12116857,6.29515468 8.90084201,6.0668716 8.62277131,6.05700481 L7.24224999,6.05700481 C7.26562424,6.04021496 7.28738367,6.02128426 7.30724628,6.00045803 L9.01014924,4.29755508 C9.21170787,4.09599644 9.21170786,3.76920533 9.01014922,3.56764669 C8.80859059,3.36608806 8.48179948,3.36608805 8.28024083,3.56764668 L6.72747932,5.12105814 L5.10257193,3.49615075 C4.89711319,3.31788176 4.58855794,3.32969587 4.39733204,3.52315331 C4.20610614,3.71661075 4.19787255,4.0252823 4.3785132,4.228659 L6.08141614,5.93156195 C6.13929838,5.9892917 6.21017414,6.03230749 6.28810436,6.05700481 L4.83803701,6.05700481 C4.55996631,6.0668716 4.33963975,6.29515468 4.33963975,6.57340038 C4.33963975,6.85164607 4.55996631,7.07992915 4.83803701,7.08979595 L6.21465855,7.08979595 L6.21465855,7.98414497 L4.87443493,7.98414497 C4.58941702,7.98414498 4.35836436,8.21519765 4.35836436,8.50021556 C4.35836436,8.78523347 4.58941702,9.01628614 4.87443493,9.01628615 L6.21465855,9.01628615 L6.21465855,10.3584597 C6.21678168,10.6425935 6.4465953,10.8724071 6.73072914,10.8745302 L6.73072914,10.8745302 Z M6.67245049,6.05478472 L6.70528629,6.13158042 L6.60528629,6.13158042 C6.62767434,6.13158042 6.6500624,6.10086222 6.67245049,6.05478472 Z" id="形状"></path>
            </g>
        </g>
    </g>
</svg>