<?xml version="1.0" encoding="UTF-8"?>
<svg width="15px" height="15px" viewBox="0 0 15 15" version="1.1" xmlns="http://www.w3.org/2000/svg" xmlns:xlink="http://www.w3.org/1999/xlink">
    <title>编组 6</title>
    <g id="页面-1" stroke="none" stroke-width="1" fill="none" fill-rule="evenodd">
        <g id="行为轨迹-智慧推荐" transform="translate(-456.000000, -389.000000)">
            <g id="编组-6" transform="translate(456.000000, 389.000000)">
                <rect id="矩形" x="0" y="0" width="15" height="15"></rect>
                <g id="编组" transform="translate(0.000000, 3.000000)" fill="#FFFFFF" fill-rule="nonzero">
                    <path d="M0.926470588,9.23082353 L13.8970588,9.23082353 C14.1285882,9.23082353 14.3601176,9.13835294 14.5454118,8.95376471 C14.7307059,8.76917647 14.8235294,8.53835294 14.8235294,8.30788235 C14.8235294,8.03082353 14.7307059,7.84623529 14.5454118,7.66164706 C14.3601176,7.47705882 14.1748235,7.38458824 13.8970588,7.38458824 L13.8042353,7.38458824 C13.6189412,6.13870588 13.1096471,5.03047059 12.276,4.06164706 C11.442,3.09247059 10.4230588,2.44623529 9.21847059,2.07705882 C9.26470588,1.98458824 9.26470588,1.89247059 9.26470588,1.84623529 C9.26470588,1.33835294 9.07941176,0.877058824 8.70882353,0.553764706 C8.38447059,0.184588235 7.92141176,0 7.41176471,0 C6.90211765,0 6.43905882,0.184588235 6.11470588,0.554117647 C5.79035294,0.922941176 5.55882353,1.33835294 5.55882353,1.84588235 L5.55882353,2.12294118 C4.36974437,2.45100019 3.30539654,3.12595547 2.50164706,4.06164706 C1.66764706,5.03082353 1.20458824,6.13835294 1.01929412,7.38458824 L0.926470588,7.38458824 C0.787411765,7.38458824 0.694941176,7.43047059 0.555882353,7.47705882 C0.416823529,7.52294118 0.324352941,7.61541176 0.278117647,7.66164706 C0.185294118,7.75376471 0.139058824,7.84623529 0.0928235294,7.93835294 C0.034910028,8.05301375 0.00320441711,8.17911287 0,8.30752941 C0,8.53835294 0.0928235294,8.76917647 0.278117647,8.95376471 C0.463411765,9.13835294 0.694588235,9.23082353 0.926470588,9.23082353 M7.41176471,0.922941176 C7.64329412,0.922941176 7.87517647,1.01541176 8.06047059,1.2 C8.24576471,1.38458824 8.33823529,1.56917647 8.33823529,1.84588235 L8.33823529,1.89247059 C8.15294118,1.89247059 8.01388235,1.84623529 7.87517647,1.84623529 L6.94870588,1.84623529 C6.80964706,1.84623529 6.624,1.89211765 6.48529412,1.89211765 L6.48529412,1.84623529 C6.48529412,1.61541176 6.57811765,1.38458824 6.76341176,1.2 C6.94870588,1.01541176 7.17988235,0.922941176 7.41176471,0.922941176 M3.52058824,5.86164706 C3.79870588,5.4 4.21552941,4.98458824 4.63235294,4.61541176 C5.04917647,4.24623529 5.60505882,4.01541176 6.16094118,3.87705882 L6.3,3.87705882 C6.43905882,3.87705882 6.53152941,3.92294118 6.62435294,4.01541176 C6.71682353,4.10752941 6.76341176,4.2 6.76341176,4.33835294 C6.76341176,4.43082353 6.76341176,4.47705882 6.71682353,4.56917647 C6.67058824,4.61505882 6.62435294,4.70752941 6.57811765,4.75376471 C6.53152941,4.8 6.43905882,4.84623529 6.39282353,4.84623529 C6.11470588,4.93835294 5.83694118,5.03082353 5.55882353,5.21541176 C5.30151692,5.34632174 5.06688658,5.51767697 4.86388235,5.72294118 C4.64197898,5.90393788 4.45379341,6.12271107 4.308,6.36917647 C4.26176471,6.41505882 4.26176471,6.46164706 4.21552941,6.50752941 C4.16929412,6.55376471 4.12270588,6.6 4.07647059,6.6 C4.03023529,6.64588235 3.93741176,6.64588235 3.89117647,6.64588235 C3.75211765,6.64588235 3.65964706,6.6 3.56682353,6.50752941 C3.47435294,6.41541176 3.42811765,6.32294118 3.42811765,6.18458824 C3.42811765,6.04623529 3.474,5.95376471 3.52058824,5.86164706 M13.8970588,10.1537647 L0.926470588,10.1537647 C0.694941176,10.1537647 0.463411765,10.2462353 0.278117647,10.4308235 C0.0928235294,10.6154118 0,10.8 0,11.0767059 C0,11.3537647 0.0924705882,11.5383529 0.278117647,11.7229412 C0.463058824,11.9075294 0.694588235,12 0.926470588,12 L13.8970588,12 C14.1285882,12 14.3601176,11.9075294 14.5454118,11.7229412 C14.7307059,11.5383529 14.8235294,11.3075294 14.8235294,11.0770588 C14.8235294,10.8 14.7310588,10.6154118 14.5454118,10.4308235 C14.3604706,10.2462353 14.1289412,10.1537647 13.8970588,10.1537647" id="形状"></path>
                </g>
            </g>
        </g>
    </g>
</svg>