<?xml version="1.0" encoding="UTF-8"?>
<svg width="14px" height="13px" viewBox="0 0 14 13" version="1.1" xmlns="http://www.w3.org/2000/svg" xmlns:xlink="http://www.w3.org/1999/xlink">
    <title>编组</title>
    <g id="页面-1" stroke="none" stroke-width="1" fill="none" fill-rule="evenodd">
        <g id="关注群体-孤僻人群行为分析" transform="translate(-548.000000, -89.000000)" fill="#B22924" fill-rule="nonzero">
            <g id="编组" transform="translate(548.000000, 89.000000)">
                <path d="M7.50528207,0.221147394 L7.62186897,0.288714806 L12.3780848,3.29215248 C12.8817143,3.61041253 13.2033341,4.14980852 13.243875,4.7441894 L13.248512,4.87203754 L13.248512,11.1319595 C13.248512,12.1197073 12.4796768,12.9367922 11.4937466,12.9966875 L11.3798094,13 L1.86870262,13 C0.880699295,13.0004163 0.063222896,12.2314195 0.00331213835,11.2452342 L0,11.1319595 L0,4.87203754 C0,4.27621988 0.284221829,3.71614282 0.765101569,3.36435686 L0.87108967,3.29215248 L5.62664306,0.288714806 C6.19524047,-0.0704634489 6.9130211,-0.0962701546 7.50594448,0.221147394 L7.50528207,0.221147394 Z M8.61153281,8.61143005 L4.63697921,8.61143005 C4.27117126,8.61148605 3.97465502,8.90804769 3.97465502,9.27385565 C3.97465502,9.63966361 4.27117126,9.93622525 4.63697921,9.93628125 L8.61153281,9.93628125 C8.97734077,9.93622525 9.27385701,9.63966361 9.27385701,9.27385565 C9.27385701,8.90804769 8.97734077,8.61148605 8.61153281,8.61143005 Z" id="形状"></path>
            </g>
        </g>
    </g>
</svg>