<?xml version="1.0" encoding="UTF-8"?>
<svg width="18px" height="18px" viewBox="0 0 18 18" version="1.1" xmlns="http://www.w3.org/2000/svg" xmlns:xlink="http://www.w3.org/1999/xlink">
    <title>切片</title>
    <g id="页面-1" stroke="none" stroke-width="1" fill="none" fill-rule="evenodd">
        <g id="行为轨迹-智慧推荐" transform="translate(-676.000000, -389.000000)">
            <g id="编组-3" transform="translate(676.000000, 389.000000)">
                <rect id="矩形" x="0" y="0" width="18" height="18"></rect>
                <g id="编组" transform="translate(3.000000, 2.000000)" fill="#FFFFFF" fill-rule="nonzero">
                    <path d="M7.18663258,0.146121103 L12.7372881,3.35079505 C13.0747423,3.54562433 13.2826194,3.90568454 13.2826194,4.29534309 L13.2826194,10.704674 C13.2826194,11.0943264 13.074737,11.4543787 12.7372881,11.6492049 L7.18661554,14.8538789 C6.8491633,15.048707 6.43340501,15.048707 6.09595277,14.8538789 L0.545331382,11.6492049 C0.207882448,11.4543787 0,11.0943264 0,10.704674 L0,4.29532605 C0,3.90567358 0.207882448,3.54562129 0.545331382,3.35079505 L6.09596981,0.146121103 C6.43342205,-0.0487070345 6.84918034,-0.0487070345 7.18663258,0.146121103 Z M6.6413012,1.16936728 L1.15882919,4.33467512 L1.15882919,10.6653249 L6.64131824,13.8306327 L12.1237902,10.6653249 L12.1237902,4.3347092 L6.64133528,1.16936728 L6.6413012,1.16936728 Z M6.6413012,4.77334309 C8.14719972,4.77334309 9.36795811,5.99411851 9.36795811,7.5 C9.36795811,9.00589853 8.14719972,10.2266569 6.6413012,10.2266569 C5.13541971,10.2266569 3.91464429,9.00589853 3.91464429,7.5 C3.91464429,5.99411851 5.13541971,4.77334309 6.6413012,4.77334309 Z M6.6413012,5.86400585 C5.7377723,5.86400585 5.00530705,6.59645407 5.00530705,7.5 C5.00530705,8.40354593 5.7377723,9.13599415 6.6413012,9.13599415 C7.54484713,9.13599415 8.27729534,8.40354593 8.27729534,7.5 C8.27729534,6.59645407 7.54484713,5.86400585 6.6413012,5.86400585 L6.6413012,5.86400585 Z" id="形状"></path>
                </g>
            </g>
        </g>
    </g>
</svg>