<?xml version="1.0" encoding="UTF-8"?>
<svg width="64px" height="64px" viewBox="0 0 64 64" version="1.1" xmlns="http://www.w3.org/2000/svg" xmlns:xlink="http://www.w3.org/1999/xlink">
    <title>编组 3</title>
    <g id="页面-1" stroke="none" stroke-width="1" fill="none" fill-rule="evenodd">
        <g id="高级设置-黑白名单查询" transform="translate(-1325.000000, -233.000000)">
            <g id="编组-3" transform="translate(1325.000000, 233.000000)">
                <circle id="椭圆形" fill="#F39704" opacity="0.130417597" cx="32" cy="32" r="32"></circle>
                <circle id="椭圆形" fill="#F39704" cx="31.6" cy="31.6" r="25.6"></circle>
                <g id="编组" transform="translate(20.000000, 20.000000)" fill="#FFFFFF" fill-rule="nonzero">
                    <path d="M14.6183953,6.09158511 C14.6183953,2.72876711 11.8919765,0 8.52681018,0 C5.16164385,0 2.43522505,2.72876711 2.43522505,6.09158511 C2.43522505,8.33424656 3.64696672,10.2927593 5.45048923,11.3495107 C2.28727984,12.3804305 0,15.3510763 0,18.8594912 L0,19.5405088 L12.0234834,19.5405088 L12.0234834,11.7863014 C12.0234834,11.6923679 12.02818,11.5984344 12.0375734,11.5068493 C11.8943248,11.4504892 11.748728,11.3988258 11.6007828,11.3518591 C13.4066536,10.2927593 14.6183953,8.33424656 14.6183953,6.09158511 Z" id="路径"></path>
                    <path d="M23.7181996,13.946771 L20.6324853,10.8540117 C20.421135,10.6403131 20.1322896,10.5205479 19.8293542,10.5205479 L14.7945205,10.5205479 C14.0947162,10.5205479 13.5264188,11.0864971 13.5264188,11.783953 L13.5264188,22.7365949 C13.5264188,23.4340509 14.0947162,24 14.7945205,24 L22.778865,24 C23.4786693,24 24.0469667,23.4340509 24.0469667,22.7365949 L24.0469667,14.7405088 C24.0469667,14.4446184 23.9295499,14.1581213 23.7181996,13.946771 Z M16.2434442,13.5287671 L18.4015655,13.5287671 C18.8172211,13.5287671 19.1530332,13.8645793 19.1530332,14.2802348 C19.1530332,14.6958904 18.8172211,15.0317025 18.4015655,15.0317025 L16.2434442,15.0317025 C15.8277886,15.0317025 15.4919765,14.6958904 15.4919765,14.2802348 C15.4919765,13.8645793 15.8277886,13.5287671 16.2434442,13.5287671 Z M21.1021526,21.0434442 L16.2434442,21.0434442 C15.8277886,21.0434442 15.4919765,20.7076321 15.4919765,20.2919765 C15.4919765,19.8763209 15.8277887,19.5405088 16.2434442,19.5405088 L21.1021526,19.5405088 C21.5178082,19.5405088 21.8536203,19.8763209 21.8536203,20.2919765 C21.8536203,20.7076321 21.5154599,21.0434442 21.1021526,21.0434442 Z M21.1021526,18.0375734 L16.2434442,18.0375734 C15.8277886,18.0375734 15.4919765,17.7017612 15.4919765,17.2861057 C15.4919765,16.8704501 15.8277887,16.534638 16.2434442,16.534638 L21.1021526,16.534638 C21.5178082,16.534638 21.8536203,16.8704501 21.8536203,17.2861057 C21.8536203,17.7017612 21.5154599,18.0375734 21.1021526,18.0375734 Z" id="形状" fill-opacity="0.6"></path>
                </g>
            </g>
        </g>
    </g>
</svg>