<?xml version="1.0" encoding="UTF-8"?>
<svg width="17px" height="18px" viewBox="0 0 17 18" version="1.1" xmlns="http://www.w3.org/2000/svg" xmlns:xlink="http://www.w3.org/1999/xlink">
    <title>编组</title>
    <g id="页面-1" stroke="none" stroke-width="1" fill-rule="evenodd">
        <g id="关注群体-作息不规律行为分析" transform="translate(-125.000000, -584.000000)" fill-rule="nonzero">
            <g id="编组" transform="translate(125.000000, 584.000000)">
                <path d="M14.9580785,3.50345921 L9.52109774,0.363794275 C8.67832641,-0.121264758 7.64112441,-0.121264758 6.79835308,0.363794275 L1.36137233,3.50345921 C0.519930031,3.99027636 0.00126424339,4.88821651 0,5.86033506 L0,12.1481735 C0.00730030058,13.1142055 0.525159795,14.0042765 1.36137233,14.4880322 L6.79835308,17.6362057 C7.64112441,18.1212648 8.67832641,18.1212648 9.52109774,17.6362057 L14.9580785,14.4880322 C15.794291,14.0042765 16.3121505,13.1142055 16.3194508,12.1481735 L16.3194508,5.86033506 C16.3181866,4.88821651 15.7995208,3.99027636 14.9580785,3.50345921 L14.9580785,3.50345921 Z M14.9580785,12.1396649 C14.9587785,12.6238646 14.7030309,13.0722323 14.2859009,13.3181029 L8.84041157,16.4577678 C8.41896771,16.7000794 7.90048311,16.7000794 7.47903924,16.4577678 L2.0420585,13.3181029 C1.6242665,13.0759101 1.36545157,12.6310719 1.36137233,12.1481735 L1.36137233,5.86033506 C1.36244009,5.37439297 1.62165652,4.92562452 2.0420585,4.68189714 L7.47903924,1.5422322 C7.90082888,1.30121916 8.41862194,1.30121916 8.84041157,1.5422322 L14.2859009,4.68189714 C14.7063029,4.92562452 14.9655193,5.37439297 14.9665871,5.86033506 L14.9580785,12.1396649 Z" id="形状"></path>
                <path d="M8.13845397,5.06478311 C5.97801637,5.06478311 4.22663566,6.81616382 4.22663566,8.97660141 C4.22663566,11.137039 5.97801637,12.8884197 8.13845397,12.8884197 C10.2988916,12.8884197 12.0502723,11.137039 12.0502723,8.97660141 C12.0479276,6.81713577 10.2979196,5.0671278 8.13845397,5.06478311 Z M8.13845397,11.5249202 C6.72870676,11.5249202 5.58588085,10.3820943 5.58588085,8.97234712 C5.58588085,7.56259992 6.72870676,6.419774 8.13845397,6.419774 C9.54820117,6.419774 10.6910271,7.56259992 10.6910271,8.97234712 C10.6910271,10.3820943 9.54820117,11.5249202 8.13845397,11.5249202 L8.13845397,11.5249202 Z" id="形状"></path>
            </g>
        </g>
    </g>
</svg>