<?xml version="1.0" encoding="UTF-8"?>
<svg width="18px" height="18px" viewBox="0 0 18 18" version="1.1" xmlns="http://www.w3.org/2000/svg" xmlns:xlink="http://www.w3.org/1999/xlink">
    <title>编组</title>
    <g id="定稿" stroke="none" stroke-width="1"  fill-rule="evenodd">
        <g id="21上网行为-上网内容" transform="translate(-607.000000, -527.000000)"  fill-rule="nonzero">
            <g id="编组" transform="translate(607.000000, 527.000000)">
                <path d="M17.2475102,16.8587844 L14.3013171,11.7847724 C14.219472,11.6620143 14.096714,11.5801884 13.933043,11.5801884 L12.2553433,11.5801884 C12.0098272,11.5801884 11.8461562,11.7847724 11.8461562,11.9893755 C11.8461562,12.2348916 12.0507401,12.3985626 12.2553433,12.3985626 L13.7284398,12.3985626 L16.1836007,16.6132683 L1.16620623,16.6132683 L3.62136714,12.3985626 L5.09446369,12.3985626 C5.33997978,12.3985626 5.50365078,12.1939786 5.50365078,11.9893755 C5.50365078,11.7438594 5.29904764,11.5801884 5.09446369,11.5801884 L3.416764,11.5801884 C3.253093,11.5801884 3.13033496,11.6620143 3.04848987,11.7847724 L0.061383818,16.8587844 C-0.0204612727,16.9815424 -0.0204612727,17.1452134 0.061383818,17.2679715 C0.143209728,17.3907295 0.265967773,17.4725746 0.429657955,17.4725746 L16.920149,17.4725746 C17.08382,17.4725746 17.2065781,17.3907295 17.2884232,17.2679715 C17.3293361,17.1452134 17.3293361,16.9815424 17.2475102,16.8587844 Z M8.44984387,7.81560196 C9.80018237,7.81560196 10.9050048,6.71077955 10.9050048,5.36044105 C10.9050048,4.01010255 9.80018237,2.90528014 8.44984387,2.90528014 C7.09950537,2.90528014 5.99468296,4.01010255 5.99468296,5.36044105 C5.99468296,6.71077955 7.09950537,7.81560196 8.44984387,7.81560196 Z M8.44984387,3.7236735 C9.35006315,3.7236735 10.0866114,4.46022178 10.0866114,5.36044105 C10.0866114,6.26066032 9.35006315,6.9972086 8.44984387,6.9972086 C7.5496246,6.9972086 6.81307632,6.26066032 6.81307632,5.36044105 C6.81307632,4.46022178 7.5496246,3.7236735 8.44984387,3.7236735 L8.44984387,3.7236735 Z" id="形状"></path>
                <path d="M4.07146719,8.38847923 L8.08156973,14.1990203 C8.16341483,14.3217784 8.28617287,14.3626913 8.40893092,14.3626913 C8.53168896,14.3626913 8.65444701,14.2808654 8.73627292,14.1990203 L12.7872884,8.38847923 L12.7872884,8.3475471 C13.4010786,7.44732782 13.7284398,6.42435051 13.7284398,5.3195281 C13.7284398,2.373335 11.355124,0 8.40893092,0 C5.46273782,0 3.13033496,2.41424796 3.13033496,5.36044105 C3.13033496,6.46526346 3.45767696,7.48824078 4.07146719,8.38847923 Z M8.44984387,0.859306319 C10.9459177,0.859306319 12.9509786,2.86436718 12.9509786,5.36044105 C12.9509786,6.46526346 12.5417723,7.52917292 11.8052241,8.3475471 L11.8461562,8.3475471 L8.40893092,13.2578689 L5.05353155,8.3475471 L5.09446369,8.30663414 C4.35791541,7.52917292 3.94870914,6.46526346 3.94870914,5.36044105 C3.94870914,2.86436718 5.95377001,0.859306319 8.44984387,0.859306319 Z" id="形状"></path>
            </g>
        </g>
    </g>
</svg>