<?xml version="1.0" encoding="UTF-8"?>
<svg width="17px" height="16px" viewBox="0 0 17 16" version="1.1" xmlns="http://www.w3.org/2000/svg" xmlns:xlink="http://www.w3.org/1999/xlink">
    <title>编组</title>
    <g id="定稿" stroke="none" stroke-width="1" fill-rule="evenodd">
        <g id="20上网行为-时长流量-上网流量" transform="translate(-485.000000, -529.000000)" fill-rule="nonzero">
            <g id="编组" transform="translate(485.000000, 529.000000)">
                <path d="M14.6520243,0 L1.42947071,0 C0.641221341,0 0,0.648894922 0,1.44669037 L0,10.7037831 C0,11.5015786 0.641202988,12.1504735 1.42947071,12.1504735 L6.26880192,12.1504735 L6.26880192,14.2846654 L4.03527573,14.2846654 C3.77189566,14.2846654 3.55877937,14.4980203 3.55877937,14.7611617 C3.55877937,15.0243031 3.77189566,15.2376581 4.03527573,15.2376581 L12.0462376,15.2376581 C12.3095993,15.2376581 12.522734,15.0243031 12.522734,14.7611617 C12.522734,14.4980203 12.3096177,14.2846654 12.0462376,14.2846654 L9.81269308,14.2846654 L9.81269308,12.1504551 L14.6520243,12.1504551 C15.4402737,12.1504551 16.081495,11.5015602 16.081495,10.7037648 L16.081495,1.44669037 C16.081495,0.64889494 15.4402737,0 14.6520243,0 Z M1.42947071,0.952992723 L14.6520243,0.952992723 C14.9149271,0.952992723 15.1285207,1.17448018 15.1285207,1.44669039 L15.1285207,8.3783392 L0.952992705,8.3783392 L0.952992705,1.44669037 C0.952992705,1.17448018 1.16656793,0.952992723 1.42947071,0.952992723 Z M8.85971873,14.284647 L7.22179462,14.284647 L7.22179462,12.1504551 L8.85971873,12.1504551 L8.85971873,14.284647 Z M14.6520243,11.1974808 L1.42947071,11.1974808 C1.16656794,11.1974808 0.952974353,10.9759933 0.952974353,10.7037831 L0.952974353,9.33131354 L15.1285023,9.33131354 L15.1285023,10.7037831 C15.1285023,10.9759933 14.9149271,11.1974808 14.6520243,11.1974808 Z" id="形状"></path>
            </g>
        </g>
    </g>
</svg>