<?xml version="1.0" encoding="UTF-8"?>
<svg width="16px" height="16px" viewBox="0 0 16 16" version="1.1" xmlns="http://www.w3.org/2000/svg" xmlns:xlink="http://www.w3.org/1999/xlink">
    <title>编组备份 20</title>
    <g id="定稿" stroke="none" stroke-width="1" fill-rule="evenodd">
        <g id="36生活习惯-洗澡习惯-洗澡频次" transform="translate(-845.000000, -528.000000)" fill-rule="nonzero">
            <g id="编组备份-20" transform="translate(845.000000, 528.000000)">
                <path d="M10.6666667,0 C11.1381626,0 11.5903474,0.187301049 11.9237454,0.520699054 C12.2571434,0.854097058 12.4444444,1.30628179 12.4444444,1.77777777 L12.4444444,10.6666667 C12.4444444,11.1381626 12.2571434,11.5903474 11.9237454,11.9237454 C11.5903474,12.2571434 11.1381626,12.4444444 10.6666667,12.4444444 L1.77777777,12.4444444 C0.795938219,12.4444444 0,11.6485062 0,10.6666667 L0,1.77777777 C0,0.795938219 0.795938219,0 1.77777777,0 L10.6666667,0 Z M10.6666667,0.888888896 L1.77777777,0.888888896 C1.32713348,0.888888896 0.947836492,1.22622854 0.895111104,1.67377777 L0.888888896,1.77777777 L0.888888896,10.6666667 C0.888888896,11.117311 1.22622854,11.4966079 1.67377777,11.5493333 L1.77777777,11.5555556 L10.6666667,11.5555556 C11.117311,11.5555556 11.496608,11.2182159 11.5493333,10.7706667 L11.5555556,10.6666667 L11.5555556,1.77777777 C11.5555556,1.32713348 11.2182159,0.947836483 10.7706667,0.895111104 L10.6666667,0.888888896 Z" id="形状"></path>
                <path d="M14.2222222,3.55555556 C15.2040618,3.55555556 16,4.35149378 16,5.33333333 L16,14.2222222 C16,15.2040618 15.2040618,16 14.2222222,16 L5.33333333,16 C4.35149378,16 3.55555556,15.2040618 3.55555556,14.2222222 L3.55555556,5.33333333 C3.55555556,4.35149378 4.35149378,3.55555556 5.33333333,3.55555556 L14.2222222,3.55555556 L14.2222222,3.55555556 Z M14.2222222,4.44444444 L5.33333333,4.44444444 C4.88268904,4.44444444 4.50339205,4.7817841 4.45066667,5.22933333 L4.44444444,5.33333333 L4.44444444,14.2222222 C4.44444444,14.6728665 4.7817841,15.0521635 5.22933333,15.1048889 L5.33333333,15.1111111 L14.2222222,15.1111111 C14.6728665,15.1111111 15.0521635,14.7737715 15.1048889,14.3262222 L15.1111111,14.2222222 L15.1111111,5.33333333 C15.1111111,4.88268905 14.7737715,4.50339205 14.3262222,4.45066667 L14.2222222,4.44444444 Z" id="形状"></path>
            </g>
        </g>
    </g>
</svg>