<?xml version="1.0" encoding="UTF-8"?>
<svg width="16px" height="16px" viewBox="0 0 16 16" version="1.1" xmlns="http://www.w3.org/2000/svg" xmlns:xlink="http://www.w3.org/1999/xlink">
    <title>编组</title>
    <g id="定稿" stroke="none" stroke-width="1" fill="none" fill-rule="evenodd">
        <g id="26消费情况-消费金额" transform="translate(-485.000000, -529.000000)" fill="#666666" fill-rule="nonzero">
            <g id="编组" transform="translate(485.000000, 529.000000)">
                <path d="M12.0105892,7.42024894 C9.8135546,7.42024894 8.02508434,9.2087192 8.02508434,11.4057538 C8.02508434,13.6027883 9.8135546,15.3912586 12.0105892,15.3912586 C14.2076237,15.3912586 15.996094,13.6027883 15.996094,11.4057538 C15.996094,9.2087192 14.2076237,7.42024894 12.0105892,7.42024894 Z M12.0105892,14.5641161 C10.2681825,14.5641161 8.85022404,13.1461576 8.85022404,11.403751 C8.85022404,9.66134437 10.2681825,8.24338587 12.0105892,8.24338587 C13.7529958,8.24338587 15.1709543,9.66134437 15.1709543,11.403751 C15.1709543,13.1461576 13.7529958,14.5641161 12.0105892,14.5641161 L12.0105892,14.5641161 Z" id="形状"></path>
                <path d="M14.1895988,11.3937372 L12.3110041,11.3937372 L12.3230207,9.53116456 C12.3250235,9.30284921 12.140769,9.11859471 11.9124536,9.11659195 L11.9104509,9.11659195 C11.6841383,9.11659195 11.4998838,9.29884368 11.497881,9.52715903 L11.4858644,11.4778534 C11.4858644,11.900437 11.7442213,12.2188769 12.0846915,12.2188769 L14.1895988,12.2188769 C14.4179142,12.2188769 14.6021687,12.0346224 14.6021687,11.806307 C14.6021687,11.5779917 14.4179142,11.3937372 14.1895988,11.3937372 L14.1895988,11.3937372 Z" id="路径"></path>
                <path d="M8.30146609,14.5861466 L1.56215767,14.5861466 C1.15559612,14.5861466 0.825139693,14.2556901 0.825139693,13.8491286 L0.825139693,6.74932225 C1.67030705,6.56106222 2.30318118,5.80601934 2.30318118,4.90477453 C2.30318118,4.00352972 1.67030705,3.24848685 0.825139693,3.06022682 L0.825139693,1.56215767 C0.825139693,1.15559612 1.15559612,0.825139693 1.56215767,0.825139693 L11.8223291,0.825139693 C12.2288907,0.825139693 12.5593471,1.15559612 12.5593471,1.56215767 L12.5593471,3.06022682 C11.7141798,3.24848685 11.0813056,4.00352972 11.0813056,4.90477453 C11.0813056,5.94621298 11.9284758,6.79538587 12.971917,6.79538587 C13.2002323,6.79538587 13.3844868,6.61113138 13.3844868,6.38281602 C13.3844868,6.15450067 13.2002323,5.97024618 12.971917,5.97024618 C12.3851065,5.97024618 11.9064453,5.49158504 11.9064453,4.90477453 C11.9064453,4.31796402 12.3851065,3.83930289 12.971917,3.83930289 L13.3844868,3.83930289 L13.3844868,1.56215767 C13.3844868,0.700968186 12.6835186,0 11.8223291,0 L1.56215767,0 C0.700968186,0 0,0.700968186 0,1.56215767 L0,3.84130566 L0.412569847,3.84130566 C0.999380356,3.84130566 1.47804149,4.31996679 1.47804149,4.9067773 C1.47804149,5.49358781 0.999380356,5.97224894 0.412569847,5.97224894 L0,5.97224894 L0,13.8511314 C0,14.7123208 0.700968186,15.413289 1.56215767,15.413289 L8.30146609,15.413289 C8.52978144,15.413289 8.71403593,15.2290345 8.71403593,15.0007192 C8.71403593,14.7704011 8.52978144,14.5861466 8.30146609,14.5861466 L8.30146609,14.5861466 Z" id="路径"></path>
                <path d="M9.55519776,2.74178699 L3.85332226,2.74178699 C3.6250069,2.74178699 3.44075241,2.92604148 3.44075241,3.15435684 C3.44075241,3.38267219 3.6250069,3.56692668 3.85332226,3.56692668 L9.55519776,3.56692668 C9.78351311,3.56692668 9.9677676,3.38267219 9.9677676,3.15435684 C9.9677676,2.92604148 9.78351311,2.74178699 9.55519776,2.74178699 Z M9.9677676,5.99427937 C9.9677676,5.76596402 9.78351311,5.58170953 9.55519776,5.58170953 L3.85332226,5.58170953 C3.6250069,5.58170953 3.44075241,5.76596402 3.44075241,5.99427937 C3.44075241,6.22259472 3.6250069,6.40684922 3.85332226,6.40684922 L9.55519776,6.40684922 C9.78351311,6.40484645 9.9677676,6.22059196 9.9677676,5.99427937 Z M3.85332226,8.42163206 C3.6250069,8.42163206 3.44075241,8.60588656 3.44075241,8.83420191 C3.44075241,9.06251726 3.6250069,9.24677175 3.85332226,9.24677175 L6.92756844,9.24677175 C7.15588379,9.24677175 7.34013829,9.06251726 7.34013829,8.83420191 C7.34013829,8.60588656 7.15588379,8.42163206 6.92756844,8.42163206 L3.85332226,8.42163206 Z" id="形状"></path>
            </g>
        </g>
    </g>
</svg>