<?xml version="1.0" encoding="UTF-8"?>
<svg width="17px" height="18px" viewBox="0 0 17 18" version="1.1" xmlns="http://www.w3.org/2000/svg" xmlns:xlink="http://www.w3.org/1999/xlink">
    <title>编组</title>
    <g id="定稿" stroke="none" stroke-width="1"  fill-rule="evenodd">
        <g id="21上网行为-上网内容" transform="translate(-363.000000, -527.000000)"  fill-rule="nonzero" stroke="#666666" stroke-width="0.4">
            <g id="编组" transform="translate(364.000000, 528.000000)">
                <path d="M12.2147791,0 C13.2591573,0 14.1086537,0.849809517 14.1086537,1.89418769 L14.1086537,1.89418769 L14.1086537,4.13524918 C14.1086537,4.33639216 13.9457045,4.49949798 13.7444049,4.49949798 C13.5431054,4.49949798 13.3801561,4.33639216 13.3801561,4.13524918 L13.3801561,4.13524918 L13.3801561,1.89418769 C13.3801561,1.25146935 12.8571844,0.728497604 12.2147791,0.728497604 L12.2147791,0.728497604 L1.89418769,0.728497604 C1.25146935,0.728497604 0.728497604,1.25146935 0.728497604,1.89418769 L0.728497604,1.89418769 L0.728497604,14.1329161 C0.728497604,14.7754779 1.25146935,15.2984497 1.89418769,15.2984497 L1.89418769,15.2984497 L4.584025,15.2984497 C4.78548104,15.2984497 4.9482738,15.4615555 4.9482738,15.6626985 C4.9482738,15.8638415 4.78532451,16.0269473 4.584025,16.0269473 L4.584025,16.0269473 L1.89418769,16.0269473 C0.849809517,16.0269473 0,15.1772943 0,14.1329161 L0,14.1329161 L0,1.89418769 C0,0.849809517 0.849809517,0 1.89418769,0 L1.89418769,0 Z M11.1394077,6.90538715 C13.5967957,6.90538715 15.595703,8.90445094 15.595703,11.3615259 C15.595703,13.8186009 13.5966392,15.8176647 11.1394077,15.8176647 C8.68248928,15.8176647 6.68342548,13.8186009 6.68342548,11.3615259 C6.68342548,8.90445094 8.68248928,6.90538715 11.1394077,6.90538715 Z M11.1394077,7.63404128 C9.08414911,7.63404128 7.41192309,9.30626731 7.41192309,11.3616824 C7.41192309,13.4170976 9.08414911,15.0893236 11.1394077,15.0893236 C13.1951359,15.0893236 14.8672054,13.4170976 14.8672054,11.3616824 C14.8672054,9.30626731 13.1951359,7.63404128 11.1394077,7.63404128 Z M11.1394077,8.67685414 C11.3407072,8.67685414 11.5036565,8.83995997 11.5036565,9.04110294 L11.5036565,9.04110294 L11.5036565,11.1890282 L12.7227238,12.1878557 C12.8781596,12.3152723 12.9013263,12.5449041 12.7735966,12.7004964 C12.7017486,12.7883105 12.5971856,12.8338612 12.4915268,12.8338612 C12.410287,12.8338612 12.3285775,12.8069378 12.2609559,12.7513691 L12.2609559,12.7513691 L10.9085237,11.6434391 C10.8243098,11.5742522 10.7751589,11.4709414 10.7751589,11.3616824 L10.7751589,11.3616824 L10.7751589,9.04110294 C10.7751589,8.83995997 10.9381082,8.67685414 11.1394077,8.67685414 Z M5.92221279,8.1966155 C6.12366884,8.1966155 6.2864616,8.35972132 6.2864616,8.5608643 C6.2864616,8.76200728 6.1235123,8.9251131 5.92221279,8.9251131 L5.92221279,8.9251131 L2.31995337,8.9251131 C2.11865386,8.9251131 1.95570457,8.76200728 1.95570457,8.5608643 C1.95570457,8.35972132 2.11865386,8.1966155 2.31995337,8.1966155 L2.31995337,8.1966155 Z M7.05440514,4.52376037 C7.25570465,4.52376037 7.41865394,4.68686619 7.41865394,4.88800917 C7.41865394,5.08915215 7.25570465,5.25225797 7.05440514,5.25225797 L7.05440514,5.25225797 L2.31995337,5.25225797 C2.11865386,5.25225797 1.95570457,5.08915215 1.95570457,4.88800917 C1.95570457,4.68686619 2.11865386,4.52376037 2.31995337,4.52376037 L2.31995337,4.52376037 Z" id="形状结合"></path>
            </g>
        </g>
    </g>
</svg>