<?xml version="1.0" encoding="UTF-8"?>
<svg width="16px" height="16px" viewBox="0 0 16 16" version="1.1" xmlns="http://www.w3.org/2000/svg" xmlns:xlink="http://www.w3.org/1999/xlink">
    <title>形状</title>
    <g id="定稿" stroke="none" stroke-width="1" fill="none" fill-rule="evenodd">
        <g id="17学业水平-自修自习" transform="translate(-364.000000, -528.000000)" fill="currentColor" fill-rule="nonzero">
            <path d="M378.736367,543.609375 L364.873008,543.609375 C364.390859,543.609375 364,543.218516 364,542.736367 L364,529.990457 C364,529.508308 364.390859,529.11745 364.873008,529.11745 L366.950766,529.11745 C367.240055,529.11745 367.47457,529.351965 367.47457,529.641254 C367.47457,529.930543 367.240055,530.165059 366.950766,530.165059 C366.949596,530.165059 366.948478,530.164884 366.947273,530.164884 L365.396812,530.164884 C365.203953,530.164884 365.047609,530.321228 365.047609,530.514087 L365.047609,531.828278 L378.561766,531.828278 L378.561766,530.514087 C378.561766,530.321228 378.405422,530.164884 378.212563,530.164884 L376.662102,530.164884 C376.660932,530.164884 376.659814,530.165059 376.658609,530.165059 C376.36932,530.165059 376.134805,529.930543 376.134805,529.641254 C376.134805,529.351965 376.36932,529.11745 376.658609,529.11745 L378.736367,529.11745 C379.218516,529.11745 379.609375,529.508308 379.609375,529.990457 L379.609375,542.736367 C379.609375,543.218516 379.218516,543.609375 378.736367,543.609375 Z M378.561766,532.875887 L365.047609,532.875887 L365.047609,542.212388 C365.047609,542.405248 365.203953,542.561591 365.396812,542.561591 L378.212563,542.561591 C378.405422,542.561591 378.561766,542.405248 378.561766,542.212388 L378.561766,532.875887 Z M373.525071,539.439297 C373.426852,539.537706 373.293525,539.593008 373.154488,539.593008 C373.015451,539.593008 372.882124,539.537706 372.783905,539.439297 L370.436877,537.089161 L368.089726,539.43942 C367.957152,539.571816 367.764015,539.623428 367.583069,539.574814 C367.402123,539.526199 367.260858,539.384744 367.212486,539.203733 C367.164115,539.022722 367.215986,538.829655 367.34856,538.697258 L370.066163,535.975972 C370.164382,535.877563 370.297709,535.822261 370.436746,535.822261 C370.575783,535.822261 370.70911,535.877563 370.807329,535.975972 L373.154357,538.326108 L375.501525,535.975797 C375.706467,535.77113 376.038522,535.771352 376.243189,535.976295 C376.447856,536.181237 376.447633,536.513291 376.242691,536.717958 L373.525071,539.439297 Z M375.157036,531.282508 C374.867747,531.282508 374.633232,531.047993 374.633232,530.758704 L374.633232,528.523805 C374.633232,528.234515 374.867747,528 375.157036,528 C375.446326,528 375.680841,528.234515 375.680841,528.523805 L375.680841,530.758704 C375.680841,531.047993 375.446326,531.282508 375.157036,531.282508 Z M373.655464,530.165059 C373.654294,530.165059 373.653176,530.164884 373.651971,530.164884 L369.957404,530.164884 C369.956234,530.164884 369.955116,530.165059 369.953911,530.165059 C369.664622,530.165059 369.430107,529.930543 369.430107,529.641254 C369.430107,529.351965 369.664622,529.11745 369.953911,529.11745 L373.655464,529.11745 C373.944753,529.11745 374.179268,529.351965 374.179268,529.641254 C374.179268,529.930543 373.944753,530.165059 373.655464,530.165059 Z M368.452339,531.282508 C368.163049,531.282508 367.928534,531.047993 367.928534,530.758704 L367.928534,528.523805 C367.928534,528.234515 368.163049,528 368.452339,528 C368.741628,528 368.976143,528.234515 368.976143,528.523805 L368.976143,530.758704 C368.976143,531.047993 368.741628,531.282508 368.452339,531.282508 Z" id="形状"></path>
        </g>
    </g>
</svg>