<?xml version="1.0" encoding="UTF-8"?>
<svg width="16px" height="15px" viewBox="0 0 16 15" version="1.1" xmlns="http://www.w3.org/2000/svg" xmlns:xlink="http://www.w3.org/1999/xlink">
    <title>编组</title>
    <g id="页面-1" stroke="none" stroke-width="1" fill="none" fill-rule="evenodd">
        <g id="行为轨迹弹窗-智慧推荐" transform="translate(-704.000000, -506.000000)" fill="#005DA7" fill-rule="nonzero">
            <g id="编组" transform="translate(704.000000, 506.000000)">
                <path d="M2.09470036,1.1924195 C1.59660107,1.1924195 1.1924195,1.59660107 1.1924195,2.09302326 L1.1924195,12.9052996 C1.1924195,13.4033989 1.59660107,13.8059034 2.09470036,13.8059034 L12.9187165,13.8059034 C13.4168157,13.8059034 13.8209973,13.4017218 13.8209973,12.9052996 L13.8209973,2.09302326 C13.8209973,1.59492397 13.4168157,1.1924195 12.9187165,1.1924195 L2.09470036,1.1924195 Z M1.8766771,0 L13.1384168,0 C14.1748658,0 15.0150939,0.840228086 15.0150939,1.875 L15.0150939,13.125 C15.0150939,14.1597719 14.1748658,15 13.1384168,15 L1.8766771,15 C0.840228086,15 0,14.161449 0,13.125 L0,1.875 C0,0.838550984 0.840228086,0 1.8766771,0 L1.8766771,0 Z" id="形状"></path>
                <path d="M10.2152281,8.10711091 L4.81495975,8.10711091 C4.48289356,8.10711091 4.21120304,7.83542039 4.21120304,7.5033542 C4.21120304,7.17128801 4.48289356,6.8995975 4.81495975,6.8995975 L10.2152281,6.8995975 C10.5472943,6.8995975 10.8189848,7.17128801 10.8189848,7.5033542 C10.8189848,7.83542039 10.5472943,8.10711091 10.2152281,8.10711091 Z" id="路径"></path>
                <path d="M6.91133721,10.2034884 L6.91133721,4.80322004 C6.91133721,4.47115385 7.18302773,4.19946333 7.51509392,4.19946333 C7.84716011,4.19946333 8.11885063,4.47115385 8.11885063,4.80322004 L8.11885063,10.2034884 C8.11885063,10.5355546 7.84716011,10.8072451 7.51509392,10.8072451 C7.18302773,10.8072451 6.91133721,10.5355546 6.91133721,10.2034884 Z" id="路径"></path>
            </g>
        </g>
    </g>
</svg>