<?xml version="1.0" encoding="UTF-8"?>
<svg width="15px" height="17px" viewBox="0 0 15 17" version="1.1" xmlns="http://www.w3.org/2000/svg" xmlns:xlink="http://www.w3.org/1999/xlink">
    <title>形状</title>
    <g id="定稿" stroke="none" stroke-width="1" fill-rule="evenodd">
        <g id="36生活习惯-洗澡习惯-洗澡频次" transform="translate(-724.000000, -528.000000)" fill-rule="nonzero" stroke="#666666" stroke-width="0.1">
            <path d="M737.785074,535.678656 L737.785074,530.070997 C737.784405,529.479779 737.305295,529.000669 736.714077,529 L727.209755,529 C726.618537,529.000669 726.139427,529.479779 726.138758,530.070997 L726.138758,535.678656 C725.408882,536.418554 724.999775,537.416139 725,538.455451 L725,544.04318 C725,544.240345 725.159834,544.400179 725.356999,544.400179 C725.554164,544.400179 725.713998,544.240345 725.713998,544.04318 L725.713998,541.070729 L728.133447,541.070729 L728.133447,543.019667 C728.133447,543.216832 728.293281,543.376666 728.490446,543.376666 C728.687611,543.376666 728.847445,543.216832 728.847445,543.019667 L728.847445,541.070729 L735.089384,541.070729 L735.089384,543.019667 C735.089384,543.216832 735.249218,543.376666 735.446383,543.376666 C735.643548,543.376666 735.803382,543.216832 735.803382,543.019667 L735.803382,541.070729 L738.209834,541.070729 L738.209834,544.04318 C738.209834,544.240345 738.369668,544.400179 738.566833,544.400179 C738.763998,544.400179 738.923832,544.240345 738.923832,544.04318 L738.923832,538.455451 C738.924057,537.416139 738.51495,536.418554 737.785074,535.678656 L737.785074,535.678656 Z M727.209755,529.713998 L736.714077,529.713998 C736.911163,529.714189 737.070885,529.873911 737.071076,530.070997 L737.071076,535.104685 C736.615911,534.816364 736.106405,534.624548 735.574106,534.541111 C735.520902,533.017453 734.268113,531.793431 732.731977,531.793431 L731.192375,531.793431 C729.656066,531.793431 728.403276,533.017453 728.350246,534.541111 C727.817846,534.624574 727.308232,534.816387 726.85293,535.104685 L726.85293,530.070997 C726.85312,529.873979 727.012737,529.714285 727.209755,529.713998 Z M734.857335,534.488081 L729.066844,534.488081 C729.145522,533.383117 730.067654,532.50743 731.192375,532.50743 L732.731804,532.50743 C733.856524,532.50743 734.778656,533.383117 734.857335,534.488081 Z M725.713998,540.356557 L725.713998,538.455451 C725.713998,536.661617 727.173536,535.20208 728.967716,535.20208 L734.956463,535.20208 C736.750296,535.20208 738.209834,536.661617 738.209834,538.455451 L738.209834,540.356557 L725.713998,540.356557 Z" id="形状"></path>
        </g>
    </g>
</svg>