<?xml version="1.0" encoding="UTF-8"?>
<svg width="11px" height="10px" viewBox="0 0 11 10" version="1.1" xmlns="http://www.w3.org/2000/svg" xmlns:xlink="http://www.w3.org/1999/xlink">
    <title>编组</title>
    <g id="页面-1" stroke="none" stroke-width="1" fill="none" fill-rule="evenodd">
        <g id="标签管理" transform="translate(-393.000000, -403.000000)" fill="currentColor" fill-rule="nonzero">
            <g id="编组-32" transform="translate(350.000000, 280.000000)">
                <g id="编组" transform="translate(48.510965, 128.000000) scale(-1, 1) translate(-48.510965, -128.000000) translate(43.500000, 123.000000)">
                    <path d="M6.04140913,0.00153691239 L8.48926111,0.14877613 C9.2254572,0.185585934 9.83281897,0.792947704 9.86962877,1.52914379 L10.016868,3.97699577 C10.0536778,4.40030852 9.88803367,4.80521637 9.57515034,5.09969481 L5.10275912,9.57208603 C4.53220715,10.142638 3.59355714,10.142638 3.02300518,9.57208603 L0.427913975,6.97699482 C-0.142637992,6.40644286 -0.142637992,5.48619775 0.427913975,4.89724088 L4.9187101,0.424849662 C5.21318853,0.130371227 5.61809638,-0.0168679897 6.04140913,0.00153691239 Z M5.45245226,2.4861987 C4.88190029,3.05675067 4.88190029,3.99540068 5.45245226,4.56595264 C6.02300423,5.13650461 6.96165423,5.13650461 7.5322062,4.56595264 C8.10275817,3.99540068 8.10275817,3.05675067 7.5322062,2.4861987 C6.96165423,1.91564673 6.02300423,1.91564673 5.45245226,2.4861987 Z" id="形状结合"></path>
                </g>
            </g>
        </g>
    </g>
</svg>