<?xml version="1.0" encoding="UTF-8"?>
<svg width="14px" height="14px" viewBox="0 0 15 15" version="1.1" xmlns="http://www.w3.org/2000/svg" xmlns:xlink="http://www.w3.org/1999/xlink">
    <title>编组</title>
    <g id="页面-1" stroke="none" stroke-width="1" fill-rule="evenodd">
        <g id="关注群体-自定义人群" transform="translate(-1718.000000, -445.000000)" fill-rule="nonzero">
            <g id="编组" transform="translate(1718.000000, 445.000000)">
                <path d="M1.04,8.196 C1.04,8.192 1.04,8.188 1.038,8.185 C1.01290032,7.95719182 1.0002149,7.72818664 1,7.499 C1.00440902,3.91113893 3.91213829,1.003857 7.5,1 C9.58140953,1.00177175 11.5352751,2.00325806 12.752,3.692 L10.556,3.692 L10.496,3.689 C10.2179246,3.689 9.99249999,3.91442463 9.99249999,4.1925 C9.99249999,4.47057537 10.2179246,4.696 10.496,4.696 C10.516,4.696 10.536,4.69400001 10.556,4.692 L13.354,4.692 L13.356,4.697 C13.356,4.697 14.45,4.694 14.45,4.692 L14.452,4.692 C14.111,3.732 13.451,2.955 13.451,2.955 C12.0384795,1.09370629 9.83658476,0.000344018793 7.5,0 C3.365,0 0,3.364 0,7.499 C0,7.722 0.012,7.944 0.033,8.16 L0.033,8.196 C0.056250479,8.45646799 0.274496352,8.65610009 0.536000002,8.65610009 C0.797503653,8.65610009 1.01574953,8.45646799 1.039,8.196 L1.04,8.196 Z M14.987,7.218 L14.977,7.218 C14.9513381,6.95469743 14.7268242,6.7558262 14.4623492,6.76212948 C14.1978741,6.76843276 13.9830893,6.97777386 13.97,7.242 C13.97,7.296 13.978,7.35 13.996,7.399 C13.999,7.43300001 14,7.46600001 14,7.5 C13.996141,11.087537 11.0885376,13.994693 7.501,13.998 C5.55268567,13.9961928 3.70838753,13.118655 2.478,11.608 L4.596,11.608 C4.616,11.613 4.637,11.613 4.657,11.613 C4.677,11.613 4.698,11.613 4.717,11.609 L4.74,11.609 L4.74,11.604 C4.98590248,11.5672972 5.16789363,11.3561265 5.16789363,11.1075 C5.16789363,10.8588735 4.98590248,10.6477028 4.74,10.611 L4.74,10.609 L4.715,10.609 C4.67478295,10.6046687 4.63421705,10.6046687 4.594,10.609 L0.736999995,10.609 C0.736999995,10.609 0.87099999,11.244 1.737,12.274 C3.125,13.924 5.179,15 7.5,15 C11.636,15 15,11.636 15,7.5 C15,7.404 14.99,7.312 14.987,7.218 Z" id="形状"></path>
            </g>
        </g>
    </g>
</svg>