<?xml version="1.0" encoding="UTF-8"?>
<svg width="41px" height="40px" viewBox="0 0 41 40" version="1.1" xmlns="http://www.w3.org/2000/svg" xmlns:xlink="http://www.w3.org/1999/xlink">
    <title>编组</title>
    <g id="页面-1" stroke="none" stroke-width="1" fill="none" fill-rule="evenodd">
        <g id="弹窗1-关注‘" transform="translate(-1141.000000, -366.000000)" fill="#B22924" fill-rule="nonzero">
            <g id="编组" transform="translate(1141.000000, 366.000000)">
                <path d="M20.2391714,0 C26.408055,0 31.4091664,5.00111139 31.4091664,11.169995 C31.4091664,15.1805309 29.2960064,18.6970484 26.1222047,20.6670293 C28.795547,21.4752707 31.2727236,22.8279509 33.3979332,24.6399934 C33.8123264,24.9928036 34.0070196,25.5398898 33.9086736,26.0751699 C33.8103277,26.6104501 33.4338837,27.0526024 32.9211445,27.2350724 C32.4084053,27.4175424 31.8372682,27.3126085 31.422875,26.9597983 C28.3046641,24.2992268 24.3381752,22.8408078 20.2391714,22.8477169 C11.2584955,22.8477169 3.79693887,29.7340188 3.0394101,38.6227962 C2.95937448,39.4535845 2.22564933,40.0652326 1.39402382,39.9944234 C0.562398316,39.9236142 -0.0573562048,39.1967233 0.00421785676,38.3643631 C0.723667092,29.9239087 6.57522124,23.0208518 14.3576613,20.667537 C11.1838596,18.6985715 9.06917645,15.1810386 9.06917645,11.169995 C9.06917645,5.00111139 14.0702878,0 20.2391714,0 L20.2391714,0 Z M40.0379875,29.8629815 L40.0887601,29.9112156 C40.3734549,30.1794571 40.5348533,30.553282 40.5348533,30.9444401 C40.5348533,31.3355981 40.3734549,31.7094231 40.0887601,31.9776646 L32.3652164,39.2584704 C32.0730447,39.5344081 31.683465,39.6833758 31.2817268,39.6727757 C30.8798144,39.6835111 30.4900271,39.5345338 30.1977296,39.2584704 L25.7622262,35.0773382 C25.4775314,34.8090967 25.316133,34.4352717 25.316133,34.0441137 C25.316133,33.6529556 25.4775314,33.2791306 25.7622262,33.0108892 L25.8135066,32.9626551 C26.4002719,32.4094388 27.3165458,32.4094388 27.9033111,32.9626551 L31.2817268,36.1471191 L37.9481829,29.8629815 C38.5349483,29.3097652 39.4512221,29.3097652 40.0379875,29.8629815 Z M20.2391714,3.04636226 C15.7523875,3.04636226 12.1155387,6.68321105 12.1155387,11.169995 C12.1155387,15.6567789 15.7523875,19.2936277 20.2391714,19.2936277 C24.7259553,19.2936277 28.3628041,15.6567789 28.3628041,11.169995 C28.3628041,6.68321105 24.7259553,3.04636226 20.2391714,3.04636226 Z" id="形状"></path>
            </g>
        </g>
    </g>
</svg>