<?xml version="1.0" encoding="UTF-8"?>
<svg width="20px" height="20px" viewBox="0 0 20 20" version="1.1" xmlns="http://www.w3.org/2000/svg" xmlns:xlink="http://www.w3.org/1999/xlink">
    <title>编组</title>
    <g id="页面-1" stroke="none" stroke-width="1" fill="none" fill-rule="evenodd">
        <g id="关注群体-新建自定义人群" transform="translate(-494.000000, -502.000000)" fill="#005DA7" fill-rule="nonzero">
            <g id="编组" transform="translate(494.000000, 502.000000)">
                <path d="M17.5515935,15.0388199 C16.3508557,13.1874572 14.2912482,12.073549 12.0846123,12.0820354 L7.91770586,12.0820354 C5.71087467,12.0737706 3.65122543,13.188082 2.45072466,15.03983 C2.26282004,15.3303869 2.09961254,15.6361897 1.9628178,15.954024 C2.25729695,16.3495809 2.58040529,16.7229956 2.92954008,17.07126 C6.83492515,20.9762467 13.1663828,20.9762467 17.0717679,17.07126 C17.4202992,16.7227223 17.7430525,16.3493278 18.03748,15.954024 C17.9007452,15.6362169 17.7382411,15.3301281 17.5515935,15.0388199 L17.5515935,15.0388199 Z" id="路径"></path>
                <path d="M17.0717679,2.9290322 C14.211636,0.0691920799 9.91046524,-0.786273556 6.17369707,0.76150024 C2.43692891,2.30927404 0.000370392983,5.95551511 3.90422304e-05,10.0001461 C-0.00597353647,12.1446808 0.682624069,14.2335096 1.9628178,15.954024 C2.25729695,16.3495809 2.58040529,16.7229956 2.92954008,17.07126 C6.83492515,20.9762467 13.1663828,20.9762467 17.0717679,17.07126 C17.4202992,16.7227223 17.7430525,16.3493278 18.03748,15.954024 C20.9843656,11.9719562 20.5736882,6.43296618 17.0717679,2.9290322 Z M17.5505833,15.0388199 C17.2178501,15.5336767 16.8379378,15.9951196 16.4161746,16.4166769 C12.8729047,19.9577832 7.1304236,19.9577832 3.58715367,16.4166769 C3.16567564,15.9954987 2.78609467,15.5343856 2.45375512,15.03983 C-0.127780683,11.1586443 0.650380599,5.95294101 4.25404635,2.99633439 C7.85771211,0.0397277679 13.11513,0.293575184 16.4171848,3.58361531 C19.4753818,6.64447044 19.9500447,11.437593 17.5515935,15.0388199 L17.5505833,15.0388199 Z" id="形状"></path>
                <path d="M6.5055034,7.47575845 C6.5055034,8.7244555 7.17167532,9.87829916 8.25307868,10.5026477 C9.33448204,11.1269962 10.6668259,11.1269962 11.7482293,10.5026477 C12.8296327,9.87829916 13.4958046,8.7244555 13.4958046,7.47575845 C13.4958046,6.2270614 12.8296327,5.07321774 11.7482293,4.44886921 C10.6668259,3.82452068 9.33448204,3.82452068 8.25307868,4.44886921 C7.17167532,5.07321774 6.5055034,6.2270614 6.5055034,7.47575845 L6.5055034,7.47575845 Z" id="路径"></path>
            </g>
        </g>
    </g>
</svg>