<?xml version="1.0" encoding="UTF-8"?>
<svg width="14px" height="13px" viewBox="0 0 14 13" version="1.1" xmlns="http://www.w3.org/2000/svg" xmlns:xlink="http://www.w3.org/1999/xlink">
    <title>编组 2</title>
    <g id="页面-1" stroke="none" stroke-width="1" fill="none" fill-rule="evenodd">
        <g id="关注群体-作息不规律行为分析" transform="translate(-364.000000, -285.000000)" fill="#B22924" fill-rule="nonzero">
            <g id="编组" transform="translate(364.000000, 285.000000)">
                <path d="M12.1333333,7.40322917 L12.1333333,2.84375 C12.1333333,2.76114583 12.1265625,2.67989583 12.1116667,2.6 C11.8476042,1.14427083 9.2421875,0 6.06666667,0 C2.89114583,0 0.285729167,1.14291667 0.0216666667,2.6 C0.008125,2.67854167 0,2.7584375 0,2.8396875 L0,9.31666667 C0.0311458333,10.8753125 2.73541667,12.1333333 6.06666667,12.1333333 C6.9834375,12.1333333 7.85145833,12.0385417 8.63010417,11.8679167 C9.165,12.5571875 10.001875,13 10.9416667,13 C12.5571875,13 13.8666667,11.6905208 13.8666667,10.075 C13.8666667,8.88333333 13.154375,7.85958333 12.1333333,7.40322917 Z M0.866666667,4.30895833 C1.92833333,5.135 3.859375,5.6875 6.06666667,5.6875 C8.27395833,5.6875 10.205,5.135 11.2666667,4.30895833 L11.2666667,5.35302083 C11.0973958,5.45322917 10.9159375,5.54802083 10.725,5.63875 C9.465625,6.22916667 7.8121875,6.55416667 6.06666667,6.55416667 C4.32114583,6.55416667 2.66770833,6.22916667 1.40833333,5.63875 C1.21604167,5.54802083 1.0359375,5.45322917 0.866666667,5.35302083 L0.866666667,4.30895833 L0.866666667,4.30895833 Z M0.866666667,6.42145833 C1.92833333,7.2475 3.859375,7.8 6.06666667,7.8 C8.27395833,7.8 10.205,7.2475 11.2666667,6.42145833 L11.2666667,7.16760417 C11.1596875,7.15541667 11.0513542,7.15 10.9416667,7.15 C9.93010417,7.15 9.0390625,7.66322917 8.51364583,8.44322917 C7.743125,8.58947917 6.91572917,8.66666667 6.06666667,8.66666667 C4.32114583,8.66666667 2.66770833,8.34166667 1.40833333,7.75125 C1.21604167,7.66052083 1.0359375,7.56572917 0.866666667,7.46552083 L0.866666667,6.42145833 L0.866666667,6.42145833 Z M6.06666667,10.8333333 C4.32114583,10.8333333 2.66770833,10.5083333 1.40833333,9.91791667 C1.21604167,9.8271875 1.0359375,9.73239583 0.866666667,9.6321875 L0.866666667,8.588125 C1.92833333,9.41416667 3.859375,9.96666667 6.06666667,9.96666667 C6.75322917,9.96666667 7.41270833,9.9125 8.0275,9.815 C8.019375,9.9003125 8.01666667,9.98833333 8.01666667,10.075 C8.01666667,10.2835417 8.03833333,10.4880208 8.0803125,10.684375 C7.43572917,10.781875 6.75864583,10.8333333 6.06666667,10.8333333 L6.06666667,10.8333333 Z M12.3973958,11.5307292 C12.00875,11.919375 11.4914583,12.1333333 10.9416667,12.1333333 C10.4311458,12.1333333 9.9490625,11.9491667 9.57125,11.610625 C9.54145833,11.5848958 9.51302083,11.5578125 9.4859375,11.529375 C9.20427083,11.2477083 9.0146875,10.8996875 8.93072917,10.5205208 C8.89822917,10.375625 8.88197917,10.2253125 8.88197917,10.0736458 C8.88197917,9.92197917 8.89822917,9.77302083 8.929375,9.628125 C9.01333333,9.24760417 9.20291667,8.89958333 9.48458333,8.61791667 C9.87458333,8.230625 10.391875,8.01666667 10.9416667,8.01666667 C11.375,8.01666667 11.7880208,8.149375 12.1333333,8.39583333 C12.2267708,8.4621875 12.3147917,8.53666667 12.3973958,8.61927083 C12.7860417,9.00791667 13,9.52520833 13,10.075 C13,10.6247917 12.7860417,11.1420833 12.3973958,11.5307292 Z" id="形状"></path>
                <path d="M11.1166667,10.4 C10.8401042,10.4 10.6166667,10.2063542 10.6166667,9.96666667 L10.6166667,8.88333333 C10.6166667,8.64364583 10.8401042,8.45 11.1166667,8.45 C11.3932292,8.45 11.6166667,8.64364583 11.6166667,8.88333333 L11.6166667,9.96666667 C11.6166667,10.2063542 11.3932292,10.4 11.1166667,10.4 Z M11.1166667,11.4833333 C10.8401042,11.4833333 10.6166667,11.2896875 10.6166667,11.05 C10.6166667,10.8103125 10.8401042,10.6166667 11.1166667,10.6166667 C11.3932292,10.6166667 11.6166667,10.8103125 11.6166667,11.05 C11.6166667,11.2896875 11.3932292,11.4833333 11.1166667,11.4833333 Z" id="形状"></path>
            </g>
        </g>
    </g>
</svg>