<?xml version="1.0" encoding="UTF-8"?>
<svg width="20px" height="17px" viewBox="0 0 20 17" version="1.1" xmlns="http://www.w3.org/2000/svg" xmlns:xlink="http://www.w3.org/1999/xlink">
    <title>形状</title>
    <g id="定稿" stroke="none" stroke-width="1" fill-rule="evenodd">
        <g id="36生活习惯-洗澡习惯-洗澡频次" transform="translate(-364.000000, -527.000000)" fill-rule="nonzero" stroke="#B22924" stroke-width="0.2">
            <path d="M369.288224,528 C370.393142,528 371.292316,528.899174 371.292316,530.004092 C371.292316,530.206026 371.129119,530.369858 370.92655,530.369858 C370.723982,530.369858 370.560785,530.206026 370.560785,530.004092 C370.560785,529.301771 369.98991,528.730897 369.287589,528.730897 L369.287589,528.730897 L368.827842,528.730897 C368.12552,528.730897 367.554646,529.302406 367.554646,530.004092 L367.554646,530.004092 L367.550201,530.026318 L367.550201,530.026318 L367.554646,530.048543 L367.554646,533.498554 L381.846186,533.498554 C382.482467,533.498554 383,534.016087 383,534.652367 C383,535.179426 382.643124,535.620123 382.159246,535.757285 C382.04939,538.010936 380.785084,539.962323 378.94165,541.03168 L378.94165,541.03168 L379.415367,542.798278 C379.468073,542.993227 379.351866,543.19389 379.156918,543.245961 C379.124533,543.254851 379.092782,543.258661 379.061667,543.258661 C378.896406,543.258326 378.751921,543.147164 378.709236,542.987511 L378.709236,542.987511 L378.276159,541.372045 C377.488746,541.714316 376.621957,541.906089 375.710083,541.906089 L375.710083,541.906089 L372.289917,541.906089 C371.349467,541.906089 370.457913,541.699711 369.650815,541.33712 L369.650815,541.33712 L369.208213,542.988146 C369.164397,543.151979 369.017075,543.259296 368.855782,543.259296 C368.824032,543.259296 368.792281,543.254851 368.760531,543.246596 C368.565582,543.194525 368.449376,542.993862 368.502081,542.798913 L368.502081,542.798913 L368.987229,540.989134 C367.183165,539.910887 365.94934,537.982361 365.840754,535.75792 C365.356876,535.620123 365,535.179426 365,534.652367 C365,534.016087 365.517533,533.498554 366.153814,533.498554 L366.153814,533.498554 L366.824384,533.498554 L366.824384,530.048543 L366.824384,530.048543 L366.828829,530.026318 L366.828829,530.026318 L366.824384,530.004092 C366.824384,528.899174 367.723559,528 368.828477,528 L368.828477,528 Z M381.43343,535.806181 L366.567205,535.806181 C366.756438,538.798984 369.250758,541.175192 372.289917,541.175192 L372.289917,541.175192 L375.710083,541.175192 C378.749242,541.175192 381.244197,538.798984 381.43343,535.806181 L381.43343,535.806181 Z M381.846186,534.22945 L366.153814,534.22945 C365.920765,534.22945 365.730897,534.419318 365.730897,534.652367 C365.730897,534.885416 365.920765,535.075284 366.153814,535.075284 L366.153814,535.075284 L381.846186,535.075284 C382.079235,535.075284 382.269103,534.885416 382.269103,534.652367 C382.269103,534.419318 382.079235,534.22945 381.846186,534.22945 L381.846186,534.22945 Z M376.724194,528.124462 C377.711635,528.124462 378.515558,528.928385 378.515558,529.915826 C378.515558,530.903267 377.711635,531.70719 376.724194,531.70719 C375.736753,531.70719 374.93283,530.903267 374.93283,529.915826 C374.93283,528.928385 375.736753,528.124462 376.724194,528.124462 Z M376.724194,528.855359 C376.139984,528.855359 375.663727,529.330981 375.663727,529.915826 C375.663727,530.50067 376.139349,530.976293 376.724194,530.976293 C377.309038,530.976293 377.784661,530.50067 377.784661,529.915826 C377.784661,529.330981 377.309038,528.855359 376.724194,528.855359 Z" id="形状"></path>
        </g>
    </g>
</svg>