<?xml version="1.0" encoding="UTF-8"?>
<svg width="18px" height="18px" viewBox="0 0 18 18" version="1.1" xmlns="http://www.w3.org/2000/svg" xmlns:xlink="http://www.w3.org/1999/xlink">
    <title>形状</title>
    <g id="定稿" stroke="none" stroke-width="1" fill="none" fill-rule="evenodd">
        <g id="26消费情况-消费金额" transform="translate(-606.000000, -527.000000)" fill="#666666" fill-rule="nonzero" stroke="#666666" stroke-width="0.2">
            <path d="M622.415355,531.636801 C622.2789,531.227662 621.899782,530.948639 621.468586,530.940001 L620.788209,528.217601 C620.756836,528.089622 620.641982,527.999718 620.510218,528.000001 L609.491782,528.000001 C609.360284,528.000001 609.245685,528.089526 609.214191,528.217201 L608.533414,530.939601 C608.100359,530.947022 607.719255,531.227245 607.583045,531.638401 C607.577046,531.653601 607.030264,533.162001 607.002665,533.719201 C606.961066,534.528001 607.409451,535.297601 608.144227,535.680001 C608.249023,535.734401 608.35902,535.776401 608.471016,535.813201 L608.471016,542.979201 C608.471678,543.542855 608.928546,543.99956 609.492182,544.000001 L620.510618,544.000001 C621.074189,543.99956 621.530943,543.542791 621.531384,542.979201 L621.531384,535.812001 C621.64258,535.776001 621.751777,535.734401 621.855773,535.680001 C622.590549,535.297201 623.038934,534.528001 622.997335,533.719201 C622.968936,533.162401 622.422155,531.654001 622.415355,531.636801 Z M609.715375,528.572801 L620.287025,528.572801 L620.878206,530.938401 L609.124194,530.938401 L609.715375,528.572801 Z M620.958203,542.979201 C620.958203,543.226401 620.75701,543.427201 620.510218,543.427201 L609.491782,543.427201 C609.24499,543.427201 609.043797,543.226401 609.043797,542.979201 L609.043797,535.915201 C609.069796,535.916001 609.096595,535.920001 609.122994,535.920001 C609.646977,535.920001 610.14936,535.727601 610.539348,535.378401 L610.593746,535.330001 L610.648144,535.378401 C611.03734,535.727298 611.541818,535.919921 612.064497,535.919201 C612.585076,535.918555 613.087276,535.726666 613.47565,535.380001 L613.529249,535.330801 L613.584047,535.379601 C613.609646,535.402401 613.637245,535.421201 613.664844,535.440401 L613.760041,535.510401 C613.77844,535.524801 613.79644,535.538801 613.817639,535.552401 C614.174027,535.792401 614.581214,535.919201 614.998,535.919201 C615.520362,535.919497 616.024443,535.726917 616.413553,535.378401 L616.467151,535.330001 L616.52155,535.378401 C616.910094,535.727324 617.414091,535.919981 617.936303,535.919201 C618.458459,535.919677 618.962351,535.727061 619.351056,535.378401 L619.405454,535.330001 L619.459852,535.378401 C619.84903,535.727424 620.353455,535.920312 620.876206,535.920001 C620.903405,535.920001 620.931004,535.916001 620.958603,535.914801 L620.958603,542.979201 L620.958203,542.979201 Z M621.510185,535.210801 C621.310567,535.300921 621.094022,535.347422 620.875006,535.347202 C620.418739,535.343794 619.987064,535.139872 619.694645,534.789601 L619.694645,533.428801 C619.694427,533.270743 619.566705,533.142481 619.408654,533.141601 C619.250538,533.142479 619.1227,533.270678 619.122264,533.428801 L619.122264,534.783601 C618.826273,535.139201 618.401887,535.347202 617.936703,535.347202 C617.480403,535.346606 617.04812,535.142628 616.757542,534.790801 L616.757542,533.428801 C616.756672,533.270858 616.629086,533.142912 616.471151,533.141601 C616.395094,533.141601 616.322168,533.171897 616.2685,533.225793 C616.214832,533.279688 616.184842,533.352742 616.185161,533.428801 L616.185161,534.784001 C615.894139,535.139886 615.458916,535.346569 614.9992,535.347202 C614.617045,535.345709 614.249038,535.202464 613.966434,534.945201 L613.939635,534.917601 C613.900036,534.881201 613.860038,534.834001 613.819639,534.788801 L613.819639,533.428801 C613.819546,533.326609 613.765011,533.232209 613.676531,533.181082 C613.588051,533.129955 613.479033,533.129848 613.390453,533.180801 C613.302004,533.23225 613.247608,533.326875 613.247658,533.429201 L613.247658,534.787601 C612.951668,535.140801 612.528482,535.347202 612.064897,535.347202 C611.600912,535.347202 611.178126,535.140001 610.882136,534.786801 L610.882136,533.428801 C610.882136,533.270627 610.753915,533.142401 610.595746,533.142401 C610.437577,533.142401 610.309355,533.270627 610.309355,533.428801 L610.309355,534.786401 C610.016895,535.138806 609.583729,535.344051 609.125794,535.347202 C608.906778,535.347422 608.690233,535.300921 608.490615,535.210801 C607.890235,534.940801 607.533847,534.326401 607.583445,533.645201 C607.598245,533.436001 607.768639,532.897201 607.775839,532.873201 L608.128627,531.818001 C608.189285,531.634737 608.360778,531.511155 608.553813,531.5116 L621.448587,531.5116 C621.64218,531.5116 621.812975,531.634801 621.873773,531.818001 L622.226961,532.874801 C622.234161,532.898001 622.404155,533.436401 622.418955,533.646001 C622.466953,534.326401 622.110565,534.940801 621.510185,535.210801 L621.510185,535.210801 Z" id="形状"></path>
        </g>
    </g>
</svg>