<?xml version="1.0" encoding="UTF-8"?>
<svg width="17px" height="17px" viewBox="0 0 17 17" version="1.1" xmlns="http://www.w3.org/2000/svg" xmlns:xlink="http://www.w3.org/1999/xlink">
    <title>编组</title>
    <g id="页面-1" stroke="none" stroke-width="1"  fill-rule="evenodd">
        <g id="12体质健康-校医院" transform="translate(-486.000000, -527.000000)"  fill-rule="nonzero">
            <g id="编组" transform="translate(486.000000, 527.000000)">
                <path d="M16.15,17 L0.85,17 C0.364285712,17 0,16.6357143 0,16.15 L0,0.85 C0,0.364285712 0.364285712,0 0.85,0 L10.2,0 C10.4428571,0 10.6857143,0.121428576 10.8071429,0.242857136 C10.9285714,0.364285695 11.05,0.607142848 11.05,0.85 L11.05,6.8 L16.15,6.8 C16.6357143,6.8 17,7.16428571 17,7.65 L17,16.15 C17,16.6357143 16.6357143,17 16.15,17 Z M3.4,16.15 L7.65,16.15 L7.65,12.75 L3.4,12.75 L3.4,16.15 L3.4,16.15 Z M10.2,0.85 L0.85,0.85 L0.85,16.15 L2.55,16.15 L2.55,12.75 C2.55,12.2642857 2.91428571,11.9 3.4,11.9 L7.65,11.9 C8.13571429,11.9 8.5,12.2642857 8.5,12.75 L8.5,16.15 L10.2,16.15 L10.2,0.85 Z M16.15,7.65 L11.05,7.65 L11.05,9.71428571 L13.9642857,9.71428571 C14.2071428,9.71428571 14.3285714,9.95714285 14.3285714,10.0785714 C14.3285714,10.3214286 14.0857143,10.5642857 13.9642857,10.5642857 L11.05,10.5642857 L11.05,12.75 L13.9642857,12.75 C14.2071428,12.75 14.3285714,12.9928571 14.3285714,13.2357143 C14.3285714,13.4785714 14.0857143,13.6 13.9642857,13.6 L11.05,13.6 L11.05,16.15 L16.15,16.15 L16.15,7.65 L16.15,7.65 Z M7.65,5.95 L5.95,5.95 L5.95,7.65 C5.95,7.89285714 5.70714286,8.01428571 5.58571429,8.01428571 C5.34285715,8.01428571 5.1,7.77142858 5.1,7.65 L5.1,5.95 L3.4,5.95 C3.15714286,5.95 3.03571429,5.70714286 3.03571429,5.58571429 C3.03571429,5.34285715 3.27857142,5.1 3.4,5.1 L5.1,5.1 L5.1,3.4 C5.1,3.15714286 5.34285714,3.03571429 5.58571429,3.03571429 C5.82857144,3.03571429 5.95,3.27857142 5.95,3.4 L5.95,5.1 L7.65,5.1 C7.89285714,5.1 8.01428571,5.34285714 8.01428571,5.58571429 C8.13571429,5.70714286 7.89285714,5.95 7.65,5.95 L7.65,5.95 Z" id="形状"></path>
            </g>
        </g>
    </g>
</svg>