<?xml version="1.0" encoding="UTF-8"?>
<svg width="18px" height="18px" viewBox="0 0 18 18" version="1.1" xmlns="http://www.w3.org/2000/svg" xmlns:xlink="http://www.w3.org/1999/xlink">
    <title>路径 3</title>
    <g id="定稿" stroke="none" stroke-width="1" fill="none" fill-rule="evenodd">
        <g id="26消费情况-消费金额" transform="translate(-362.000000, -527.000000)" fill="#B22924" fill-rule="nonzero" stroke="#B22924" stroke-width="0.3">
            <path d="M370.999911,528 C375.41813,528 378.999805,531.581675 378.999805,535.999929 C378.999805,540.418148 375.418113,543.999841 370.999894,543.999841 C369.383429,543.999841 367.87916,543.52015 366.621085,542.69573 C366.466104,542.653141 366.352106,542.511607 366.352106,542.343091 C366.352106,542.140915 366.515997,541.977024 366.718173,541.977024 C366.811761,541.977024 366.896868,542.012452 366.961599,542.070219 L366.961599,542.070219 C368.120104,542.836764 369.507571,543.285563 370.999911,543.285563 C375.023635,543.285563 378.285545,540.023653 378.285545,535.999929 C378.285545,531.976188 375.023635,528.714296 370.999911,528.714296 C366.97617,528.714296 363.714278,531.976188 363.714278,535.999929 C363.714278,537.301272 364.05556,538.522866 364.653375,539.580265 L364.653375,539.580265 C364.715106,539.647121 364.753927,539.736031 364.753927,539.834173 C364.753927,540.036349 364.590036,540.20024 364.38786,540.20024 C364.289736,540.20024 364.200826,540.161419 364.135095,540.098562 L364.135095,540.098562 C364.126684,540.095616 364.122595,540.088402 364.118363,540.081313 C364.08247,540.04217 364.054703,539.995492 364.038453,539.943582 C363.377657,538.779649 363,537.433949 363,535.999911 C363,531.581692 366.581675,528 370.999911,528 Z M368.495082,532.521646 C368.634545,532.382184 368.863524,532.385023 369.006487,532.527986 L369.006487,532.527986 L371.027304,534.548802 L373.046978,532.529075 C373.189941,532.386094 373.418903,532.383273 373.558383,532.522736 C373.697864,532.662198 373.695042,532.891178 373.552062,533.034141 L373.552062,533.034141 L371.555423,535.030797 L373.304404,535.030797 C373.506598,535.030797 373.670507,535.190706 373.670507,535.387936 C373.670507,535.585166 373.506598,535.745075 373.304404,535.745075 L373.304404,535.745075 L371.493388,535.745075 C371.457533,535.756706 371.420066,535.7626 371.382371,535.762539 L371.382371,535.762539 L371.382371,537.298647 L373.30069,537.298647 C373.502884,537.298629 373.666775,537.458538 373.666793,537.655786 C373.666793,537.853016 373.502884,538.012925 373.30069,538.012925 L373.30069,538.012925 L371.382371,538.012925 L371.382371,540.545433 C371.382389,540.747627 371.22248,540.911536 371.025233,540.911536 C370.828003,540.911536 370.668094,540.747627 370.668094,540.545433 L370.668094,540.545433 L370.668094,538.012925 L368.742008,538.012925 C368.539832,538.012925 368.375905,537.853016 368.375905,537.655786 C368.375905,537.458538 368.539814,537.298647 368.742008,537.298647 L368.742008,537.298647 L370.668094,537.298647 L370.668094,535.762396 C370.631844,535.762093 370.595827,535.756253 370.561202,535.745093 L370.561202,535.745093 L368.742026,535.745093 C368.539849,535.745093 368.375905,535.585184 368.375905,535.387954 C368.375905,535.190706 368.539832,535.030815 368.742026,535.030815 L368.742026,535.030815 L370.499185,535.030815 L368.501421,533.033051 C368.358459,532.890089 368.355601,532.661127 368.495082,532.521646 Z" id="路径-3"></path>
        </g>
    </g>
</svg>