<?xml version="1.0" encoding="UTF-8"?>
<svg width="17px" height="16px" viewBox="0 0 17 16" version="1.1" xmlns="http://www.w3.org/2000/svg" xmlns:xlink="http://www.w3.org/1999/xlink">
    <title>编组</title>
    <g id="定稿" stroke="none" stroke-width="1" fill="none" fill-rule="evenodd">
        <g id="17学业水平-自修自习" transform="translate(-485.000000, -529.000000)" fill="currentColor" fill-rule="nonzero">
            <g id="编组" transform="translate(485.000000, 529.000000)">
                <path d="M16.0555556,1.43366669 L16.0555556,13.733 C16.0552953,14.0030821 15.8364154,14.2219619 15.5663334,14.2222222 L1.43366669,14.2222222 C1.16358462,14.2219619 0.944704784,14.0030821 0.944444464,13.733 L0.944444464,1.43366669 C0.944704784,1.16358462 1.16358462,0.944704784 1.43366669,0.944444464 L15.5663334,0.944444464 C15.8364154,0.944704784 16.0552953,1.16358462 16.0555556,1.43366669 Z M1.43366669,0 C1.05341545,0 0.688720324,0.150963855 0.419842089,0.419842089 C0.150963855,0.688720324 0,1.05341545 0,1.43366669 L0,13.733 C0,14.1132513 0.150963855,14.4779464 0.419842089,14.7468246 C0.688720324,15.0157029 1.05341545,15.1666667 1.43366669,15.1666667 L15.5663334,15.1666667 C15.9465846,15.1666667 16.3112797,15.0157029 16.5801579,14.7468246 C16.8490362,14.4779464 17,14.1132513 17,13.733 L17,1.43366669 C17,1.05341545 16.8490362,0.688720324 16.5801579,0.419842089 C16.3112797,0.150963855 15.9465846,0 15.5663334,0 L1.43366669,0 Z" id="形状"></path>
                <path d="M16.4805556,4.65138891 L0.708333353,4.65138891 C0.447532221,4.65138891 0.236111131,4.43996782 0.236111131,4.17916669 C0.236111131,3.91836555 0.447532221,3.70694446 0.708333353,3.70694446 L16.4805556,3.70694446 C16.7413567,3.70694446 16.9527778,3.91836555 16.9527778,4.17916669 C16.9527778,4.43996782 16.7413567,4.65138891 16.4805556,4.65138891 Z M12.7263889,8.14583335 L8.94861113,8.14583335 C8.68781,8.14583335 8.47638891,7.93441226 8.47638891,7.67361113 C8.47638891,7.41281 8.68781,7.20138891 8.94861113,7.20138891 L12.7263889,7.20138891 C12.98719,7.20138891 13.1986111,7.41281 13.1986111,7.67361113 C13.1986111,7.93441226 12.98719,8.14583335 12.7263889,8.14583335 L12.7263889,8.14583335 Z M15.0166667,11.1208334 L8.94861113,11.1208334 C8.68781,11.1208334 8.47638891,10.9094123 8.47638891,10.6486111 C8.47638891,10.38781 8.68781,10.1763889 8.94861113,10.1763889 L15.0166667,10.1763889 C15.2774678,10.1763889 15.4888889,10.38781 15.4888889,10.6486111 C15.4888889,10.9094123 15.2774678,11.1208334 15.0166667,11.1208334 L15.0166667,11.1208334 Z" id="形状"></path>
                <path d="M4.58055558,9.56250002 C3.49079805,9.56250002 2.60737502,8.67907699 2.60737502,7.58931946 C2.60737502,6.49956193 3.49079805,5.61613891 4.58055558,5.61613891 C5.6703131,5.61613891 6.55373613,6.49956193 6.55373613,7.58931946 C6.5524351,8.67853764 5.66977375,9.56119899 4.58055558,9.56250002 L4.58055558,9.56250002 Z M4.58055558,6.49305558 C3.97510575,6.49305558 3.48429169,6.98386964 3.48429169,7.58931946 C3.48429169,8.19476929 3.97510575,8.68558335 4.58055558,8.68558335 C5.1860054,8.68558335 5.67681946,8.19476929 5.67681946,7.58931946 C5.6761688,6.98413935 5.18573568,6.49370624 4.58055558,6.49305558 L4.58055558,6.49305558 Z" id="形状"></path>
                <path d="M7.21154169,12.3250001 C7.0952361,12.3250627 6.98367609,12.2788882 6.90143561,12.1966478 C6.81919513,12.1144073 6.77302067,12.0028473 6.77308335,11.8865417 C6.77308335,10.675642 5.79145523,9.69401391 4.58055558,9.69401391 C3.36965592,9.69401391 2.3880278,10.675642 2.3880278,11.8865417 C2.3880278,12.1286955 2.19172331,12.3250001 1.94956946,12.3250001 C1.70741561,12.3250001 1.51111113,12.1286955 1.51111113,11.8865417 C1.51111113,10.1940972 2.88811113,8.81709724 4.58055558,8.81709724 C6.27300002,8.81709724 7.65000008,10.1940972 7.65000008,11.8865417 C7.6500627,12.0028473 7.60388825,12.1144073 7.52164777,12.1966478 C7.43940729,12.2788882 7.32784727,12.3250627 7.21154169,12.3250001 L7.21154169,12.3250001 Z" id="路径"></path>
            </g>
        </g>
    </g>
</svg>