<?xml version="1.0" encoding="UTF-8"?>
<svg width="16px" height="15px" viewBox="0 0 16 15" version="1.1" xmlns="http://www.w3.org/2000/svg" xmlns:xlink="http://www.w3.org/1999/xlink">
    <title>编组</title>
    <g id="页面-1" stroke="none" stroke-width="1" fill="none" fill-rule="evenodd">
        <g id="48学生画像-科学研究-学术论文" transform="translate(-487.000000, -408.000000)" fill="currentColor" fill-rule="nonzero">
            <g id="编组" transform="translate(487.000000, 408.000000)">
                <path d="M2.72135103,15 C2.03558504,15 1.46924005,14.9149578 1.03860072,14.7466828 C0.74185766,14.6308806 0.506634499,14.473462 0.338359469,14.2798552 C0.132086852,14.0428227 0.0289505428,13.7569361 0.0271411339,13.4330519 C0.0271411339,13.0747889 0.170084439,12.7418577 0.439686369,12.4704463 C0.70747889,12.2008444 1.0946924,11.9927624 1.58685163,11.8516285 C1.99034982,11.7358263 2.4517491,11.672497 2.88600724,11.672497 L2.88600724,12.5048251 C2.11700844,12.5048251 1.35343788,12.7328106 1.02955368,13.0585042 C0.913751508,13.1743064 0.85946924,13.2937274 0.85946924,13.4312425 C0.85946924,13.5958987 0.915560917,13.8057901 1.34077201,13.9722557 C1.67008444,14.1007238 2.1477684,14.1676719 2.72135103,14.1676719 C3.15018094,14.1676719 4.3371532,13.8763571 4.61942099,13.7442702 L4.97406514,14.4969843 C4.60494572,14.6706876 3.28045838,15 2.72135103,15 L2.72135103,15 Z M0.490349819,1.48733414 C0.443305187,1.48733414 0.394451146,1.4800965 0.347406514,1.46200241 C0.132086852,1.38238842 0.0199034982,1.14354644 0.099517491,0.928226779 C0.18455971,0.694813028 0.439686369,0.28588661 1.19963812,0.180940893 C1.66827503,0.115802171 2.22195416,0.188178528 2.76115802,0.385404101 C2.97647768,0.463208685 3.08866104,0.702050663 3.00904704,0.919179735 C2.93124246,1.1344994 2.69240048,1.24668275 2.47527141,1.16706876 C1.61218335,0.852231604 0.951749095,1.01869723 0.881182147,1.21230398 C0.819662244,1.38238842 0.660434258,1.48733414 0.490349819,1.48733414 Z" id="形状"></path>
                <path d="M0.416164053,13.778649 C0.18455971,13.778649 0,13.5904704 0,13.3606755 C0.0162846803,9.28769602 0.0271411339,6.23522316 0.0343787696,4.19963812 L0.0470446321,1.14897467 C0.048854041,0.919179735 0.23522316,0.732810615 0.463208685,0.732810615 C0.693003619,0.732810615 0.879372738,0.919179735 0.879372738,1.14897467 C0.879372738,1.20687575 0.864897467,5.20205066 0.832328106,13.3642943 C0.832328106,13.5922799 0.645958987,13.778649 0.416164053,13.778649 Z M4.14535585,12.7056695 L4.97768396,12.7056695 L4.97768396,14.5078408 L4.14535585,14.5078408 L4.14535585,12.7056695 Z M13.9620024,12.7020507 L3.65681544,12.7020507 C2.94933655,12.7020507 2.3721351,12.1248492 2.3721351,11.4173703 L2.3721351,1.28468034 C2.3721351,0.577201448 2.94933655,0 3.65681544,0 L13.9620024,0 C14.6694813,0 15.2466828,0.577201448 15.2466828,1.28468034 L15.2466828,11.4173703 C15.2466828,12.1248492 14.6694813,12.7020507 13.9620024,12.7020507 Z M3.65681544,0.832328106 C3.40711701,0.832328106 3.20446321,1.03498191 3.20446321,1.28468034 L3.20446321,11.4173703 C3.20446321,11.6670688 3.40711701,11.8697226 3.65681544,11.8697226 L13.9620024,11.8697226 C14.2117008,11.8697226 14.4143546,11.6670688 14.4143546,11.4173703 L14.4143546,1.28468034 C14.4143546,1.03498191 14.2117008,0.832328106 13.9620024,0.832328106 L3.65681544,0.832328106 Z" id="形状"></path>
                <path d="M5.21290712,1.75512666 L10.63269,1.75512666 C10.9529554,1.75512666 11.2117008,2.01387214 11.2117008,2.33413752 C11.2117008,2.6544029 10.9529554,2.91314837 10.63269,2.91314837 L5.21290712,2.91314837 C4.89264174,2.91314837 4.63389626,2.6544029 4.63389626,2.33413752 C4.63389626,2.01387214 4.89264174,1.75512666 5.21290712,1.75512666 Z M4.95958987,4.08926417 L13.0211098,4.08926417 C13.2509047,4.08926417 13.4372738,4.27563329 13.4372738,4.50542823 C13.4372738,4.73522316 13.2509047,4.92159228 13.0211098,4.92159228 L4.95958987,4.92159228 C4.72979493,4.92159228 4.54342581,4.73522316 4.54342581,4.50542823 C4.54342581,4.27563329 4.72979493,4.08926417 4.95958987,4.08926417 Z M4.95958987,6.09770808 L13.0211098,6.09770808 C13.2509047,6.09770808 13.4372738,6.2840772 13.4372738,6.51387214 C13.4372738,6.74366707 13.2509047,6.93003619 13.0211098,6.93003619 L4.95958987,6.93003619 C4.72979493,6.93003619 4.54342581,6.74366707 4.54342581,6.51387214 C4.54342581,6.2840772 4.72979493,6.09770808 4.95958987,6.09770808 Z M4.95958987,8.10615199 L13.0211098,8.10615199 C13.2509047,8.10615199 13.4372738,8.29252111 13.4372738,8.52231604 C13.4372738,8.75211098 13.2509047,8.9384801 13.0211098,8.9384801 L4.95958987,8.9384801 C4.72979493,8.9384801 4.54342581,8.75211098 4.54342581,8.52231604 C4.54342581,8.29252111 4.72979493,8.10615199 4.95958987,8.10615199 Z M5.05006031,10.1145959 L13.1115802,10.1145959 C13.3413752,10.1145959 13.5277443,10.300965 13.5277443,10.53076 C13.5277443,10.7605549 13.3413752,10.946924 13.1115802,10.946924 L5.05006031,10.946924 C4.82026538,10.946924 4.63389626,10.7605549 4.63389626,10.53076 C4.63389626,10.300965 4.82026538,10.1145959 5.05006031,10.1145959 Z" id="形状"></path>
            </g>
        </g>
    </g>
</svg>