<?xml version="1.0" encoding="UTF-8"?>
<svg width="13px" height="15px" viewBox="0 0 13 15" version="1.1" xmlns="http://www.w3.org/2000/svg" xmlns:xlink="http://www.w3.org/1999/xlink">
    <title>编组</title>
    <g id="页面-1" stroke="none" stroke-width="1" fill="none" fill-rule="evenodd">
        <g id="48学生画像-科学研究-学术论文" transform="translate(-608.000000, -408.000000)" fill="currentColor" fill-rule="nonzero">
            <g id="编组" transform="translate(608.000000, 408.000000)">
                <path d="M12.647297,3.78438064 C12.647297,3.52359411 12.5016162,3.28618844 12.2696062,3.16748561 L6.19597777,0.0560325146 C6.05389408,-0.0159085974 5.88663099,-0.019505653 5.74274877,0.0506369312 L0.237455173,2.71245807 C-0.0736901367,2.86353441 -0.0790857201,3.30417372 0.228462534,3.46064564 L6.15820869,6.50195615 L11.2804159,4.0271819 C11.4350893,3.95344226 11.6131435,4.06495098 11.6131435,4.23581112 L11.6131435,5.68722305 L6.14202194,8.30048395 L0.838163458,5.58110991 C0.6726989,5.49657911 0.47665937,5.489385 0.305799229,5.56132611 C-0.0215328305,5.69981275 -0.0377195807,6.15663881 0.278821312,6.31850631 L6.16000722,9.33463743 L11.6167406,6.69979421 L11.6167406,8.51990434 L6.14202194,11.1331652 L0.841760513,8.41558973 C0.6726989,8.32926039 0.474860842,8.32206628 0.300403646,8.39580592 C-0.0251298861,8.53429256 -0.0413166363,8.98752157 0.273425729,9.14938907 L6.15820869,12.1673187 L11.614942,9.53247549 L11.614942,10.9029537 C11.614942,11.1781284 11.4566716,11.4281238 11.2084747,11.5468266 L6.14202194,13.9658465 L0.908306042,11.2806445 C0.697878289,11.1727328 0.449681453,11.1637402 0.232059589,11.2554651 C-0.0646974977,11.3813621 -0.0808842479,11.7986205 0.2068802,11.9460998 L6.15820869,15 L12.1149328,12.1223555 C12.4404663,11.9658836 12.647297,11.636753 12.647297,11.2752489 L12.647297,3.78438064 Z M6.14202194,5.46780266 L1.55397752,3.1153283 L5.98734855,0.973281692 L10.575393,3.32755458 L6.14202194,5.46780266 Z" id="形状"></path>
                <path d="M9.11318986,3.62970725 L6.43338344,4.90126641 C6.32367325,4.95342371 6.19417924,4.94982666 6.0880661,4.89227377 C5.81648841,4.74479449 5.82548105,4.35271543 6.10245433,4.21602731 L8.72650639,2.9210873 C8.82722394,2.87072852 8.94592678,2.86892999 9.04844286,2.91389319 L9.1023987,2.93727405 C9.40275284,3.07036511 9.40814842,3.48942208 9.11318986,3.62970725 Z M5.29311682,4.26638609 C5.1888022,4.31494634 5.06650231,4.31314782 4.96398623,4.25739345 L4.94420242,4.24660229 C4.67802031,4.10272006 4.68881148,3.71783511 4.96398623,3.59013964 L7.57904565,2.38332749 C7.67976321,2.33656576 7.79666751,2.33836429 7.89738507,2.38872307 C8.17255982,2.52720971 8.16716424,2.91928877 7.89019096,3.04878277 L5.29311682,4.26638609 Z" id="形状"></path>
            </g>
        </g>
    </g>
</svg>