<?xml version="1.0" encoding="UTF-8"?>
<svg width="18px" height="17px" viewBox="0 0 18 17" version="1.1" xmlns="http://www.w3.org/2000/svg" xmlns:xlink="http://www.w3.org/1999/xlink">
    <title>形状</title>
    <g id="定稿" stroke="none" stroke-width="1" fill-rule="evenodd">
        <g id="36生活习惯-洗澡习惯-洗澡频次" transform="translate(-484.000000, -528.000000)" fill-rule="nonzero">
            <path d="M492.763045,528 C493.839466,528 494.896579,528.253417 495.905422,528.755425 C496.701877,529.151239 497.46937,529.701517 498.183766,530.391778 C499.161233,531.333043 499.767021,532.269481 499.979409,532.619438 C500.384877,532.817345 501.381653,533.423134 501.328556,534.538171 C501.304421,535.069141 501.239256,536.478624 500.676911,537.996716 C500.358329,538.858335 499.928726,539.618587 499.397756,540.255751 C498.811275,540.960493 498.099293,541.522839 497.273876,541.93072 C497.213539,542.280678 497.04218,542.6065 496.764628,542.884053 C496.363987,543.28952 495.758198,543.596035 494.961743,543.801182 C494.319753,543.962887 493.583635,544.049773 492.825796,544.049773 C492.772699,544.049773 492.719602,544.049773 492.666505,544.047359 C491.853156,544.059427 491.059114,543.974954 490.368854,543.798769 C489.572399,543.596035 488.964197,543.287107 488.565969,542.881639 C488.29083,542.604087 488.117058,542.278264 488.056721,541.928307 C487.233717,541.520425 486.519322,540.95808 485.932841,540.253338 C485.401871,539.616174 484.972268,538.855922 484.653686,537.994302 C484.093754,536.478624 484.02859,535.066727 484.002041,534.535757 C483.948944,533.418307 484.94572,532.814932 485.351188,532.617025 C485.563576,532.267067 486.171778,531.33063 487.146831,530.389365 C487.861227,529.699104 488.62872,529.148826 489.425175,528.753012 C490.436432,528.253417 491.493544,528 492.569965,528 L492.763045,528 Z M492.765459,528.967813 L492.572379,528.967813 C490.880515,528.967813 489.280365,529.682209 487.820198,531.08928 C486.714815,532.153633 486.121094,533.2204 486.116267,533.232467 C486.060757,533.331421 485.973871,533.408653 485.867677,533.449682 C485.860436,533.452096 484.938479,533.823775 484.969855,534.497141 C485.126732,537.851906 486.420368,540.159211 488.713193,541.172881 C488.891792,541.252527 489.005226,541.431126 489.000399,541.626619 C488.995572,541.839007 489.077631,542.02726 489.253817,542.205859 C489.767182,542.723768 491.009575,543.066368 492.399484,543.08476 L492.820969,543.084373 C494.257002,543.084373 495.555464,542.736829 496.081607,542.203446 C496.257793,542.024847 496.339852,541.836594 496.335025,541.624206 C496.330198,541.428712 496.443632,541.250113 496.622231,541.170468 C498.915056,540.156798 500.208692,537.847079 500.365569,534.494728 C500.396945,533.823775 499.477401,533.449682 499.467747,533.447269 C499.361553,533.406239 499.272254,533.329007 499.219157,533.230054 C499.204676,533.205919 498.598887,532.127084 497.495918,531.069972 C496.040578,529.674969 494.447668,528.967813 492.765459,528.967813 Z M486.44933,534.328196 C486.466225,534.33061 488.126712,534.610576 490.482288,534.750559 C492.647197,534.878474 495.861979,534.90985 498.87644,534.33061 C499.137098,534.279926 499.390515,534.451285 499.441199,534.714356 C499.491882,534.975014 499.320524,535.228432 499.057452,535.279115 C497.010805,535.672515 494.886925,535.79319 493.038184,535.79319 C492.067957,535.79319 491.174962,535.759401 490.409883,535.713545 C488.360107,535.592244 486.860257,535.371116 486.417581,535.300799 L486.326415,535.286042 C486.304242,535.282373 486.290397,535.280009 486.285212,535.279115 C486.022141,535.233259 485.845955,534.984668 485.891812,534.721597 C485.937668,534.458525 486.186259,534.28234 486.44933,534.328196 Z" id="形状"></path>
        </g>
    </g>
</svg>