<?xml version="1.0" encoding="UTF-8"?>
<svg width="17px" height="15px" viewBox="0 0 17 15" version="1.1" xmlns="http://www.w3.org/2000/svg" xmlns:xlink="http://www.w3.org/1999/xlink">
    <title>编组</title>
    <g id="页面-1" stroke="none" stroke-width="1" fill="none" fill-rule="evenodd">
        <g id="48学生画像-科学研究-学术论文" transform="translate(-726.000000, -408.000000)" fill="currentColor" fill-rule="nonzero">
            <g id="编组" transform="translate(726.000000, 408.000000)">
                <path d="M15.4608411,0.00267009566 L10.7721988,0.00267009566 C10.5559363,-0.00673261901 9.00448841,-0.0443434777 8.00780066,1.00876057 C7.02051562,-0.0443434777 5.4690677,-0.00673261901 5.25280526,0.00267009566 L0.56416288,0.00267009566 C0.253873296,0.00267009566 0,0.256543392 0,0.566832976 L0,12.6963349 C0,13.0066245 0.253873296,13.2604978 0.56416288,13.2604978 L5.03654282,13.2604978 C5.45966498,13.2416924 6.66321246,13.3075114 7.18976448,13.815258 C7.35901334,13.9845068 7.44363778,14.1819638 7.44363778,14.4358371 C7.44363778,14.7461267 7.69751107,15 8.00780066,15 L8.02660609,15 C8.33689567,15 8.59076897,14.7461267 8.59076897,14.4358371 C8.59076897,14.1819638 8.6753934,13.9845068 8.84464226,13.815258 C9.380597,13.3075114 10.5841445,13.2416924 10.9978639,13.2604978 L15.4702439,13.2604978 C15.7805334,13.2604978 16.0344067,13.0066245 16.0344067,12.6963349 L16.0344067,0.566832976 C16.025004,0.256543392 15.7805334,0.00267009566 15.4608411,0.00267009566 Z M1.12832576,12.1227693 L1.12832576,1.13099586 L5.29981883,1.13099586 C5.36563783,1.13099586 6.87007218,1.04637142 7.45304049,2.16529447 L7.45304049,12.6305159 C6.48456088,12.0851585 5.2151944,12.1133666 4.99893196,12.1227693 L1.12832576,12.1227693 Z M11.0354748,12.1227693 C10.8192123,12.1133666 9.54984586,12.0851585 8.59076897,12.6117105 L8.59076897,2.13708633 C9.17373728,1.04637142 10.6687689,1.12159314 10.7251852,1.13099586 L14.8966783,1.13099586 L14.8966783,12.1227693 L11.0354748,12.1227693 Z" id="形状"></path>
            </g>
        </g>
    </g>
</svg>