<?xml version="1.0" encoding="UTF-8"?>
<svg width="15px" height="15px" viewBox="0 0 15 15" version="1.1" xmlns="http://www.w3.org/2000/svg" xmlns:xlink="http://www.w3.org/1999/xlink">
    <title>编组</title>
    <g id="页面-1" stroke="none" stroke-width="1" fill="none" fill-rule="evenodd">
        <g id="49学生画像-科学研究-学生著作" transform="translate(-967.000000, -407.000000)" fill="currentColor" fill-rule="nonzero">
            <g id="编组" transform="translate(967.000000, 407.000000)">
                <path d="M7.5,1.15384615 C8.35637019,1.15384615 9.1875,1.32151442 9.96995192,1.65144231 C10.7253606,1.97055288 11.4050481,2.42848558 11.9873798,3.01262019 C12.5697115,3.59495192 13.0276442,4.27463942 13.3485577,5.03004808 C13.6784856,5.8125 13.8461538,6.64182692 13.8461538,7.5 C13.8461538,8.953125 13.5414663,10.1195913 13.0096154,10.7055288 C12.9699519,10.734375 12.8401442,10.8064904 12.609375,10.8713942 C12.3677885,10.9399038 12.1009615,10.9795673 11.859375,10.9795673 C11.7043269,10.9795673 11.5600962,10.9633413 11.4573317,10.9326923 C11.1292067,10.8371394 10.797476,10.6352163 10.4783654,10.4387019 C10.0258413,10.1610577 9.55709135,9.87439904 9,9.87259615 C8.64483173,9.87259615 8.31310096,9.98978365 8.04086538,10.2115385 C7.87680288,10.3449519 7.36658654,10.8479567 7.63882212,11.7385817 C7.70733173,11.9603365 7.81009615,12.1748798 7.92007212,12.4002404 C8.00841346,12.5823317 8.10036058,12.7698317 8.16346154,12.9447115 C8.2265625,13.1231971 8.23197115,13.2079327 8.23197115,13.2367788 C8.2265625,13.4387019 8.109375,13.5793269 8.04086538,13.6442308 C7.90024038,13.7740385 7.70913462,13.8461538 7.5,13.8461538 C6.64362981,13.8461538 5.8125,13.6784856 5.03004808,13.3485577 C4.27463942,13.0294471 3.59495192,12.5715144 3.01262019,11.9873798 C2.43028846,11.4050481 1.97235577,10.7253606 1.65144231,9.96995192 C1.32151442,9.1875 1.15384615,8.35817308 1.15384615,7.5 C1.15384615,6.64182692 1.32151442,5.8125 1.65144231,5.03004808 C1.97055288,4.27463942 2.42848558,3.59495192 3.01262019,3.01262019 C3.59675481,2.43028846 4.27463942,1.97235577 5.03004808,1.65144231 C5.8125,1.32151442 6.64362981,1.15384615 7.5,1.15384615 M7.5,0 C3.35697115,0 0,3.35697115 0,7.5 C0,11.6430288 3.35697115,15 7.5,15 C8.54387019,15 9.36237981,14.2157452 9.38401442,13.2638221 C9.40384615,12.3569712 8.47716346,11.34375 8.76923077,11.1057692 C8.83774038,11.0498798 8.91346154,11.0264423 8.99819712,11.0264423 C9.46694712,11.0264423 10.1917067,11.765625 11.1346154,12.0396635 C11.3545673,12.1027644 11.6033654,12.1316106 11.859375,12.1316106 C12.6508413,12.1316106 13.5126202,11.8575721 13.8425481,11.5042067 C14.7133413,10.5667067 15,8.97115385 15,7.49819712 C15,3.35697115 11.6430288,0 7.5,0 L7.5,0 Z" id="形状"></path>
                <path d="M3.41826923,6.34975962 C2.78185096,6.34975962 2.26442308,6.8671875 2.26442308,7.50360577 C2.26442308,8.14002404 2.78185096,8.65745192 3.41826923,8.65745192 C4.0546875,8.65745192 4.57211538,8.14002404 4.57211538,7.50360577 C4.57211538,6.8671875 4.05649038,6.34975962 3.41826923,6.34975962 L3.41826923,6.34975962 Z M4.86418269,3.18028846 C4.22776442,3.18028846 3.71033654,3.69771635 3.71033654,4.33413462 C3.71033654,4.97055288 4.22776442,5.48798077 4.86418269,5.48798077 C5.50060096,5.48798077 6.01802885,4.97055288 6.01802885,4.33413462 C6.01802885,3.69771635 5.50060096,3.18028846 4.86418269,3.18028846 Z M9.01442308,3.18028846 C8.37800481,3.18028846 7.86057692,3.69771635 7.86057692,4.33413462 C7.86057692,4.97055288 8.37800481,5.48798077 9.01442308,5.48798077 C9.65084135,5.48798077 10.1682692,4.97055288 10.1682692,4.33413462 C10.1682692,3.69771635 9.65084135,3.18028846 9.01442308,3.18028846 Z M11.5168269,6.34975962 C10.8804087,6.34975962 10.3629808,6.8671875 10.3629808,7.50360577 C10.3629808,8.14002404 10.8804087,8.65745192 11.5168269,8.65745192 C12.1532452,8.65745192 12.6706731,8.14002404 12.6706731,7.50360577 C12.6706731,6.8671875 12.1550481,6.34975962 11.5168269,6.34975962 L11.5168269,6.34975962 Z" id="形状"></path>
            </g>
        </g>
    </g>
</svg>