<?xml version="1.0" encoding="UTF-8"?>
<svg width="17px" height="17px" viewBox="0 0 17 17" version="1.1" xmlns="http://www.w3.org/2000/svg" xmlns:xlink="http://www.w3.org/1999/xlink">
    <title>编组</title>
    <g id="页面-1" stroke="none" stroke-width="1" fill="none" fill-rule="evenodd">
        <g id="13奖惩贷勤-奖学金" transform="translate(-486.000000, -528.000000)" fill="currentColor" fill-rule="nonzero">
            <g id="编组" transform="translate(486.000000, 528.000000)">
                <path d="M16.8212079,10.8706773 C16.4985123,10.0976798 15.5206907,10.103345 14.976694,10.2328262 L12.4664021,10.9382206 C12.211888,10.2597158 11.5123583,9.99219581 11.006063,9.9866902 L0.438911598,9.9866902 L0.438771967,9.9866902 L0.438632335,9.9866902 C0.196465959,9.9866902 0,10.1914744 0,10.4438939 L0,14.515401 C0,14.7145001 0.123357249,14.8904397 0.305281242,14.9508616 C3.18787903,15.9086955 6.66017389,16.9635355 8.81655182,16.9635355 C9.06673721,16.9635355 9.2997675,16.9492329 9.51137385,16.9191716 C10.8858376,16.6890936 15.3942216,13.7697719 16.271207,13.0211905 C16.9194509,12.4669607 17.135326,11.6228293 16.8212079,10.8706773 L16.8212079,10.8706773 Z M15.7151618,12.313961 C14.8270256,13.0720774 10.4819942,15.8306796 9.38253094,16.0145984 C7.57314513,16.2726632 3.73642376,15.1234501 0.87726465,14.1807965 L0.87726465,10.9010378 L11.0014551,10.9010378 C11.1159954,10.9022347 11.6874003,10.9373628 11.6874003,11.5073514 C11.6874003,11.6927863 11.6214529,11.7829703 11.5714637,11.8344755 C11.3741399,12.039539 10.9571909,12.0842021 10.8004011,12.0842021 L7.020531,12.2880687 C6.77836462,12.3011545 6.59245106,12.5160522 6.60501818,12.7681925 C6.61702675,13.0125731 6.81089949,13.2018578 7.0428127,13.2018578 C7.05021334,13.2018578 7.05795308,13.2015586 7.06565295,13.2012594 L10.8169578,12.9979713 C10.9023344,12.9973928 11.6911106,12.9961959 12.1863149,12.4869284 C12.3520812,12.3165342 12.460318,12.1058854 12.5172091,11.8709601 L15.1885597,11.1201446 C15.4358526,11.0612187 15.9387568,11.0486915 16.0169921,11.2356224 C16.138953,11.5278777 16.1235333,11.9645153 15.7151618,12.313961 L15.7151618,12.313961 Z" id="形状"></path>
                <path d="M2.32054836,6.62117594 L12.5866874,6.62117594 C12.8288538,6.62117594 13.0253397,6.41639176 13.0253397,6.1639722 L13.0253397,0.457203742 C13.0253397,0.204784181 12.8288538,-7.09168969e-16 12.5866874,-7.09168969e-16 L2.32054836,-7.09168969e-16 C2.07838199,-7.09168969e-16 1.88191603,0.204784181 1.88191603,0.457203742 L1.88191603,6.1639722 C1.88191603,6.41639176 2.07838197,6.62117594 2.32054836,6.62117594 L2.32054836,6.62117594 Z M2.7591807,0.914387542 L12.1480551,0.914387542 L12.1480551,5.70680836 L2.7591807,5.70680836 L2.7591807,0.914387542 L2.7591807,0.914387542 Z" id="形状"></path>
                <path d="M3.93518372,8.30409265 C3.93518372,8.55649225 4.13166962,8.76125649 4.37383599,8.76125649 L14.6399551,8.76125649 C14.8821414,8.76125649 15.0786074,8.55647231 15.0786074,8.30409265 L15.0786074,2.59730426 C15.0786074,2.3448847 14.8821215,2.14010052 14.6399551,2.14010052 C14.3978086,2.14010052 14.2013227,2.3448847 14.2013227,2.59730426 L14.2013227,7.84690885 L4.37383601,7.84690885 C4.13166962,7.84688891 3.93518372,8.05167309 3.93518372,8.30409265 L3.93518372,8.30409265 Z" id="路径"></path>
                <path d="M7.45377746,1.60494074 C6.55135861,1.60494074 5.81743887,2.36989925 5.81743887,3.31043836 C5.81743887,4.25099743 6.55135861,5.01595594 7.45377746,5.01595594 C8.35617637,5.01595594 9.09011604,4.25099743 9.09011604,3.31043836 C9.09011604,2.36987931 8.35619631,1.60494074 7.45377746,1.60494074 L7.45377746,1.60494074 Z M7.45377746,4.10158834 C7.03513283,4.10158834 6.6947235,3.7467767 6.6947235,3.31043836 C6.6947235,2.87410002 7.03513283,2.51928837 7.45377746,2.51928837 C7.87242209,2.51928837 8.21283141,2.87410002 8.21283141,3.31043836 C8.21283141,3.74679664 7.87242209,4.10158834 7.45377746,4.10158834 L7.45377746,4.10158834 Z" id="形状"></path>
            </g>
        </g>
    </g>
</svg>