<?xml version="1.0" encoding="UTF-8"?>
<svg width="16px" height="16px" viewBox="0 0 16 16" version="1.1" xmlns="http://www.w3.org/2000/svg" xmlns:xlink="http://www.w3.org/1999/xlink">
    <title>编组</title>
    <g id="页面-1" stroke="none" stroke-width="1" fill="none" fill-rule="evenodd">
        <g id="48学生画像-科学研究-学术论文" transform="translate(-383.000000, -407.000000)" fill="currentColor" fill-rule="nonzero">
            <g id="编组" transform="translate(383.000000, 407.000000)">
                <path d="M8,16 C3.58843704,16 0,12.411563 0,8 C0,3.58843704 3.58843704,0 8,0 C8.27045566,0 8.4899559,0.219500245 8.4899559,0.489955904 C8.4899559,1.13277805 8.49093582,2.61538462 8.49289564,4.12836845 C8.49387555,5.41499265 8.49485546,6.72415483 8.49583537,7.55903969 C9.80009799,7.55609995 11.3797158,7.54140127 12.7917687,7.52866242 C13.9500245,7.51788339 14.9505145,7.50906418 15.511024,7.50906418 C15.7814797,7.50906418 16.0009799,7.72856443 16.0009799,7.99902009 C16,12.410583 12.410583,16 8,16 Z M7.5100441,0.996570309 C3.86673199,1.24840764 0.979911808,4.29299363 0.979911808,7.99902009 C0.979911808,11.8696717 4.12934836,15.0191083 8,15.0191083 C11.7060265,15.0191083 14.7496325,12.133268 15.0024498,8.49093582 C14.4341009,8.49387555 13.6609505,8.50073493 12.799608,8.50857423 C11.2033317,8.52327291 9.39343459,8.53993141 8.00489956,8.53993141 C7.7344439,8.53993141 7.51494366,8.32043116 7.51494366,8.0499755 C7.51494366,7.32092112 7.51396374,5.70798628 7.51200392,4.12934836 C7.51102401,2.93287604 7.51102401,1.75502205 7.5100441,0.996570309 L7.5100441,0.996570309 Z" id="形状"></path>
                <path d="M15.4953454,6.82312592 C13.355218,6.82312592 9.91572758,6.81528662 9.88143067,6.81528662 C9.61121826,6.8147462 9.39245468,6.59554368 9.39245468,6.32533072 L9.39245468,0.605585497 C9.39245468,0.463498285 9.45418912,0.327290544 9.56197942,0.234198922 C9.66976972,0.1411073 9.81283684,0.0989710926 9.95394415,0.120529152 C10.0068594,0.128368447 11.2601666,0.321411073 12.6271436,1.1700147 C13.8961293,1.95688388 15.5071044,3.47770701 15.977462,6.25085742 C16.0019598,6.39294463 15.9617834,6.53895149 15.8686918,6.64870162 C15.7756002,6.75845174 15.6393925,6.82312592 15.4953454,6.82312592 L15.4953454,6.82312592 Z M10.3723665,5.83635473 C11.2836845,5.83831455 13.2944635,5.8422342 14.8926997,5.84321411 C14.0940715,2.6389025 11.5247428,1.5521803 10.3723665,1.22097011 L10.3723665,5.83635473 Z" id="形状"></path>
            </g>
        </g>
    </g>
</svg>