<?xml version="1.0" encoding="UTF-8"?>
<svg width="17px" height="18px" viewBox="0 0 17 18" version="1.1" xmlns="http://www.w3.org/2000/svg" xmlns:xlink="http://www.w3.org/1999/xlink">
    <title>编组</title>
    <g id="定稿" stroke="none" stroke-width="1" fill-rule="evenodd">
        <g id="36生活习惯-洗澡习惯-洗澡频次" transform="translate(-605.000000, -528.000000)" fill-rule="nonzero">
            <g id="编组" transform="translate(605.000000, 528.000000)">
                <path d="M8.35297332,17.2847278 C4.46068748,17.2844038 1.04884988,14.6822848 0.0190864255,10.9286897 C-0.0304893564,10.7527307 0.0180991743,10.5636998 0.146381044,10.4334574 C0.274662914,10.303215 0.462935096,10.2517651 0.639625752,10.2986665 C0.816316408,10.3455679 0.954287324,10.4836169 1.00108873,10.6603341 C1.90286942,13.9610265 4.92584024,16.2666856 8.35297332,16.2666856 C12.5536139,16.2666856 15.9719919,12.8485113 15.9719919,8.64685266 C15.9719919,4.44519402 12.5536139,1.0270197 8.35297332,1.0270197 C5.48535555,1.0270197 2.88772224,2.61210947 1.57383858,5.16393094 C1.4916474,5.32749914 1.32795664,5.43433716 1.14514077,5.44373429 C0.962324913,5.45313143 0.788542399,5.36364028 0.690013187,5.20936151 C0.591483976,5.05508273 0.583384154,4.85977932 0.668800165,4.69787179 C2.60821835,0.918116183 7.0072694,-0.891401987 11.0449036,0.429735884 C15.0825378,1.75087376 17.5610782,5.81078064 16.8910715,10.0058952 C16.2210649,14.2010098 12.6012542,17.2869419 8.35297332,17.2847278 L8.35297332,17.2847278 Z" id="路径"></path>
                <path d="M1.14320725,5.66969369 C0.926595103,5.66969369 0.733710386,5.53260756 0.662488311,5.32803914 L0.114782276,3.75883081 C0.0221799483,3.49339329 0.162290551,3.20314465 0.427728066,3.11054232 C0.693165581,3.01794 0.983414221,3.1580506 1.07601655,3.42348811 L1.45594943,4.51218112 L2.54464244,4.13224823 C2.7163504,4.07234503 2.90697308,4.10859729 3.04470476,4.22734915 C3.18243644,4.34610101 3.24635239,4.52931123 3.2123761,4.70796629 C3.17839982,4.88662135 3.05169309,5.0335793 2.87998513,5.0934825 L1.31077679,5.64118854 C1.25691275,5.66001507 1.20026663,5.6696511 1.14320725,5.66969369 Z M5.18462625,10.3760975 C4.93827648,10.3764264 4.72704664,10.2002938 4.68309276,9.95789668 C4.63913888,9.71549955 4.77507737,9.47641491 5.00585826,9.39022617 L7.79162554,8.34551254 L7.79162554,3.63422259 C7.79162554,3.35309834 8.01952177,3.12520211 8.30064602,3.12520211 C8.58177026,3.12520211 8.80966649,3.35309834 8.80966649,3.63422259 L8.80966649,8.69836554 C8.80966649,8.91055126 8.6780836,9.10049269 8.47941401,9.17501231 L5.36319063,10.3435197 C5.30610164,10.3649892 5.24561877,10.3760237 5.18462625,10.3760975 L5.18462625,10.3760975 Z M16.4810123,8.86369539 L15.3123013,8.86369539 C15.0311771,8.86369539 14.8032808,8.63579916 14.8032808,8.35467491 C14.8032808,8.07355066 15.0311771,7.84565443 15.3123013,7.84565443 L16.4810123,7.84565443 C16.7621366,7.84565443 16.9900328,8.07355066 16.9900328,8.35467491 C16.9900328,8.63579916 16.7621366,8.86369539 16.4810123,8.86369539 L16.4810123,8.86369539 Z M8.2033213,2.19573072 C7.92219705,2.19573072 7.69430082,1.96783449 7.69430082,1.68671024 L7.69430082,0.661339385 C7.69430082,0.380215137 7.92219705,0.152318906 8.2033213,0.152318906 C8.48444555,0.152318906 8.71234182,0.380215137 8.71234182,0.661339385 L8.71234182,1.68650663 C8.71239579,1.82154253 8.65879085,1.95106619 8.56332514,2.04657009 C8.46785943,2.14207399 8.33835721,2.19573072 8.2033213,2.19573072 Z M8.78767681,17.1413864 C8.50655256,17.1413864 8.27865633,16.9134902 8.27865633,16.6323659 L8.27865633,15.3203148 C8.27865633,15.0391905 8.50655256,14.8112943 8.78767681,14.8112943 C9.06880106,14.8112943 9.29669729,15.0391905 9.29669729,15.3203148 L9.29669729,16.6323659 C9.29669729,16.9134902 9.06880106,17.1413864 8.78767681,17.1413864 L8.78767681,17.1413864 Z" id="形状"></path>
            </g>
        </g>
    </g>
</svg>