<?xml version="1.0" encoding="UTF-8"?>
<svg width="16px" height="16px" viewBox="0 0 16 16" version="1.1" xmlns="http://www.w3.org/2000/svg" xmlns:xlink="http://www.w3.org/1999/xlink">
    <title>编组</title>
    <g id="定稿" stroke="none" stroke-width="1" fill="none" fill-rule="evenodd">
        <g id="17学业水平-自修自习" transform="translate(-608.000000, -529.000000)" fill="currentColor" fill-rule="nonzero">
            <g id="编组" transform="translate(608.000000, 529.000000)">
                <path d="M0.464456338,13.6246768 C0.207881667,13.6246768 0,13.4167952 0,13.1602205 L0,1.70425511 C0,0.765978396 0.764105588,0 1.70425511,0 L15.0199187,0 C15.2764933,0 15.484375,0.207881667 15.484375,0.464456338 L15.484375,11.3023952 C15.484375,11.5589698 15.2764933,11.7668515 15.0199187,11.7668515 C14.7652168,11.7668515 14.5535895,11.5608426 14.5535895,11.3023952 L14.5535895,0.928912675 L1.70425511,0.928912675 C1.27725493,0.928912675 0.928912675,1.27538212 0.928912675,1.70425511 L0.928912675,13.1602205 C0.930785483,13.4167952 0.721031008,13.6246768 0.464456338,13.6246768 Z" id="路径"></path>
                <path d="M15.0180459,15.4825022 L2.3241545,15.4825022 C1.04502676,15.4825022 0.00187280781,14.4393482 0.00187280781,13.1602205 C0.00187280781,11.8810928 1.04502676,10.8379388 2.3241545,10.8379388 L15.0199187,10.8379388 C15.2764933,10.8379388 15.484375,11.0458205 15.484375,11.3023952 C15.484375,11.557097 15.2764933,11.7668515 15.0199187,11.7668515 L2.3241545,11.7668515 C1.55630329,11.7668515 0.930785483,12.3923693 0.930785483,13.1602205 C0.930785483,13.9280717 1.55630329,14.5535895 2.3241545,14.5535895 L15.0199187,14.5535895 C15.2764933,14.5535895 15.484375,14.7614712 15.484375,15.0180459 C15.4825022,15.2708749 15.2746205,15.4825022 15.0180459,15.4825022 L15.0180459,15.4825022 Z M7.58861726,3.09762412 L3.25306717,3.09762412 C2.9964925,3.09762412 2.78861083,2.88974246 2.78861083,2.63316779 C2.78861083,2.37659312 2.9964925,2.16871145 3.25306717,2.16871145 L7.58861726,2.16871145 C7.84519193,2.16871145 8.0530736,2.37659312 8.0530736,2.63316779 C8.05120079,2.88786965 7.84331912,3.09762412 7.58861726,3.09762412 Z M10.6843686,5.26446276 L3.25306717,5.26446276 C2.9964925,5.26446276 2.78861083,5.0565811 2.78861083,4.80000643 C2.78861083,4.54343175 2.9964925,4.33555009 3.25306717,4.33555009 L10.6843686,4.33555009 C10.9409432,4.33555009 11.1488249,4.54343175 11.1488249,4.80000643 C11.1488249,5.0565811 10.9409432,5.26446276 10.6843686,5.26446276 Z" id="形状"></path>
                <path d="M14.7090326,13.6246768 L2.3241545,13.6246768 C2.06757983,13.6246768 1.85969816,13.4167952 1.85969816,13.1602205 C1.85969816,12.9055186 2.06757983,12.6957642 2.3241545,12.6957642 L14.7109054,12.6957642 C14.96748,12.6957642 15.1753617,12.9036458 15.1753617,13.1602205 C15.1734889,13.4167952 14.9656072,13.6246768 14.7090326,13.6246768 Z" id="路径"></path>
            </g>
        </g>
    </g>
</svg>