<?xml version="1.0" encoding="UTF-8"?>
<svg width="15px" height="16px" viewBox="0 0 15 16" version="1.1" xmlns="http://www.w3.org/2000/svg" xmlns:xlink="http://www.w3.org/1999/xlink">
    <title>编组</title>
    <g id="学生群像定稿" stroke="none" stroke-width="1" fill-rule="evenodd">
        <g id="45毕业就业-创新创业-考研情况-考研人数" transform="translate(-486.000000, -528.000000)" fill-rule="nonzero">
            <g id="编组" transform="translate(486.000000, 528.000000)">
                <path d="M4.36874431,3.97634213 L10.0193358,3.97634213 C10.1239763,3.97634213 10.2286169,3.93710191 10.3070974,3.85862147 C10.3855778,3.78014104 10.424818,3.67550045 10.424818,3.57085987 C10.424818,3.46621929 10.3855778,3.36157871 10.3070974,3.28309827 C10.2286169,3.20461783 10.1239763,3.16537762 10.0193358,3.16537762 L4.36874431,3.16537762 C4.26410373,3.16537762 4.15946315,3.20461783 4.08098271,3.28309827 C4.00250227,3.36157871 3.96326206,3.46621929 3.96326206,3.57085987 C3.96326206,3.79322111 4.14638308,3.97634213 4.36874431,3.97634213 M4.36874431,6.27843494 L8.39740673,6.27843494 C8.61976797,6.27843494 8.80288899,6.09531392 8.80288899,5.85987261 C8.80288899,5.63751137 8.61976797,5.44131028 8.39740673,5.44131028 L4.36874431,5.44131028 C4.14638308,5.44131028 3.96326206,5.6244313 3.96326206,5.85987261 C3.96326206,6.09531392 4.14638308,6.27843494 4.36874431,6.27843494 M13.5771156,4.98350773 L12.5568699,4.38182439 L12.5568699,0.418562329 C12.5568699,0.196201092 12.3737489,0 12.1513876,0 L2.23669245,0 C2.01433121,0 1.83121019,0.183121019 1.83121019,0.418562329 L1.83121019,4.38182439 L0.810964513,4.98350773 L0,5.40207006 L0,14.8458826 C0,14.8982029 0.0130800728,14.9505232 0.0261601456,15.0028435 L0.0261601456,15.0159236 C0.0392402184,15.0420837 0.0523202912,15.0682439 0.065400364,15.0813239 C0.130800728,15.1859645 0.248521383,15.2513649 0.379322111,15.2513649 L13.9695177,15.2513649 C14.191879,15.2513649 14.375,15.0682439 14.375,14.8458826 L14.375,5.42823021 L13.5771156,4.98350773 M12.56995,5.3366697 L13.5247953,5.89911283 L12.56995,6.46155596 L12.56995,5.3366697 M2.90377616,0.824044586 L11.4843039,0.824044586 C11.680505,0.824044586 11.7459054,0.88944495 11.7459054,1.08564604 L11.7459054,6.93243858 L7.19404004,9.64001365 L2.6421747,6.94551865 L2.6421747,1.09872611 C2.6421747,0.88944495 2.70757507,0.824044586 2.90377616,0.824044586 M1.83121019,6.46155596 L0.876364877,5.89911283 L1.83121019,5.3366697 L1.83121019,6.46155596 M13.5771156,14.4273203 L0.810964513,14.4273203 L0.810964513,6.81471793 L6.98475887,10.4771383 C6.99783894,10.4771383 6.99783894,10.4902184 6.99783894,10.4902184 L7.02399909,10.5032985 C7.03707916,10.5163785 7.05015924,10.5163785 7.06323931,10.5163785 C7.07631938,10.5163785 7.08939945,10.5163785 7.08939945,10.5294586 C7.10247953,10.5294586 7.1155596,10.5294586 7.12863967,10.5425387 L7.20712011,10.5425387 C7.22020018,10.5425387 7.23328025,10.5425387 7.24636033,10.5294586 C7.2594404,10.5294586 7.27252047,10.5294586 7.27252047,10.5163785 C7.28560055,10.5163785 7.29868062,10.5032985 7.32484076,10.5032985 C7.33792084,10.5032985 7.33792084,10.4902184 7.35100091,10.4902184 C7.35100091,10.4902184 7.36408098,10.4902184 7.36408098,10.4771383 L13.5378753,6.81471793 L13.5771156,14.4273203" id="形状"></path>
            </g>
        </g>
    </g>
</svg>